STARTFONT 2.1
FONT sungP24n4
SIZE 24 75 75
FONTBOUNDINGBOX 24 24 0 -2

STARTPROPERTIES 11
COPYRIGHT "Copyright (c) 1994 Hewlett-Packard Company."
_HP_ASXVERSION "@(#) ASX 3.00 $Revision: 13.9 $ sungP24n4"
POINT_SIZE 240
WEIGHT 10
RESOLUTION_X 75
RESOLUTION_Y 75
X_HEIGHT 22
QUAD_WIDTH 24
DEFAULT_CHAR 28253
FONT_DESCENT 2
FONT_ASCENT 22
ENDPROPERTIES

CHARS 7299

STARTCHAR cns4_2121
ENCODING 8481
SWIDTH 960 0
DWIDTH 24 0
BBX 24 24 0 -2
BITMAP
000070
0001F8
043F00
07E000
060000
060000
060000
060000
060000
060000
060000
060000
060000
060000
060000
0C0000
0C0000
0C0000
180000
180000
300000
200000
400000
800000
ENDCHAR

STARTCHAR cns4_2122
ENCODING 8482
SWIDTH 960 0
DWIDTH 24 0
BBX 24 24 0 -2
BITMAP
000000
000000
000000
00C000
01E000
03E000
073000
0E3000
1C1800
701800
000C00
000C00
000600
000700
000300
000180
0001C0
0000E0
000070
00003C
00001F
00000C
000000
000000
ENDCHAR

STARTCHAR cns4_2123
ENCODING 8483
SWIDTH 960 0
DWIDTH 24 0
BBX 24 24 0 -2
BITMAP
000000
000000
000000
000000
006000
3FF000
003000
003000
001800
001800
000C00
000C00
000600
000600
000300
000180
0001C0
0000E0
000070
00003C
00001F
000008
000000
000000
ENDCHAR

STARTCHAR cns4_2124
ENCODING 8484
SWIDTH 960 0
DWIDTH 24 0
BBX 24 24 0 -2
BITMAP
020000
038000
030000
030000
030000
030000
030000
030000
030000
030000
030000
030000
030000
030000
030000
030000
030008
030008
030008
030008
03800C
01FFFC
00FFF8
000000
ENDCHAR

STARTCHAR cns4_2125
ENCODING 8485
SWIDTH 960 0
DWIDTH 24 0
BBX 24 24 0 -2
BITMAP
000800
000F00
000E00
001C00
003800
003000
006000
00C000
018000
030000
060000
0C0000
0E0000
038000
00C000
007000
003800
001C00
000E00
000700
000700
000300
000000
000000
ENDCHAR

STARTCHAR cns4_2126
ENCODING 8486
SWIDTH 960 0
DWIDTH 24 0
BBX 24 24 0 -2
BITMAP
000000
00000C
7FFFFE
006000
006000
00C000
00C000
018000
030030
07FFF8
020030
000030
000030
000030
000030
000070
000060
000060
0000E0
0000C0
01C1C0
003B80
000F00
000600
ENDCHAR

STARTCHAR cns4_2127
ENCODING 8487
SWIDTH 960 0
DWIDTH 24 0
BBX 24 24 0 -2
BITMAP
000080
0000E0
0400C0
0700C0
0600C0
0600C0
0600C0
0600C0
0600C0
0600C0
0600C0
0600C0
0600C0
0600C0
0FFFC0
0400C0
0000C0
0000C0
0000C0
0000C0
0000C0
0000C0
0000C0
000080
ENDCHAR

STARTCHAR cns4_2128
ENCODING 8488
SWIDTH 960 0
DWIDTH 24 0
BBX 24 24 0 -2
BITMAP
000000
000600
7FFF00
000600
000600
000C00
000C00
001800
00180C
003FFE
00100C
00000C
00000C
00000C
00000C
00000C
00000C
00000C
00000C
00001C
000018
000038
000FF0
000060
ENDCHAR

STARTCHAR cns4_2129
ENCODING 8489
SWIDTH 960 0
DWIDTH 24 0
BBX 24 24 0 -2
BITMAP
000000
020180
03FFC0
030180
030180
030180
030180
030180
030180
030180
030180
030180
030180
030180
030180
060180
060180
060180
0C0180
0C0180
1801FE
3000FF
600000
800000
ENDCHAR

STARTCHAR cns4_212A
ENCODING 8490
SWIDTH 960 0
DWIDTH 24 0
BBX 24 24 0 -2
BITMAP
000100
0001C0
000180
010180
01C180
018180
018180
018180
018180
018180
018180
018180
018180
018180
018180
018180
018180
010180
000180
000180
000180
000180
007F80
000700
ENDCHAR

STARTCHAR cns4_212B
ENCODING 8491
SWIDTH 960 0
DWIDTH 24 0
BBX 24 24 0 -2
BITMAP
000000
100060
1FFFF0
180060
180060
180060
180060
180060
180060
180060
180060
1800E0
183FC0
180180
180000
180000
180004
180004
180004
180004
180006
1FFFFE
0FFFFC
000000
ENDCHAR

STARTCHAR cns4_212C
ENCODING 8492
SWIDTH 960 0
DWIDTH 24 0
BBX 24 24 0 -2
BITMAP
000000
008020
00F03C
00E038
01C070
018060
0300C0
030180
060300
0C0600
180C00
301800
301800
180C00
0C0600
060300
030180
0180C0
00C060
00E070
007038
007038
003018
000000
ENDCHAR

STARTCHAR cns4_212D
ENCODING 8493
SWIDTH 960 0
DWIDTH 24 0
BBX 24 24 0 -2
BITMAP
000000
100018
1FFFFC
180018
180018
180018
180018
180018
180018
180018
180198
1BFFD8
180018
180018
180018
180018
180018
180018
180018
180018
180018
180018
1801F8
100030
ENDCHAR

STARTCHAR cns4_212E
ENCODING 8494
SWIDTH 960 0
DWIDTH 24 0
BBX 24 24 0 -2
BITMAP
000000
000000
200008
38000E
30000C
30000C
30000C
30000C
3000CC
37FFEC
30000C
30000C
30000C
30000C
30000C
30000C
30000C
30000C
30000C
7FFFFC
20000C
000008
000000
000000
ENDCHAR

STARTCHAR cns4_212F
ENCODING 8495
SWIDTH 960 0
DWIDTH 24 0
BBX 24 24 0 -2
BITMAP
040000
070000
060000
060000
0C0000
0C0006
0FFFFF
180006
180006
300006
600006
400006
800186
07FFC6
000006
000006
000006
000006
000006
00000E
00000C
00001C
000FF8
000070
ENDCHAR

STARTCHAR cns4_2130
ENCODING 8496
SWIDTH 960 0
DWIDTH 24 0
BBX 24 24 0 -2
BITMAP
000000
000180
3FFFC0
000180
020180
038180
030180
030180
030180
030180
033180
7FF982
030182
030182
030182
030183
0301FF
0300FE
030000
030000
030000
030000
030000
020000
ENDCHAR

STARTCHAR cns4_2131
ENCODING 8497
SWIDTH 960 0
DWIDTH 24 0
BBX 24 24 0 -2
BITMAP
000000
020060
03FFF0
030060
030060
032060
031060
031860
030C60
030C60
030660
030660
030060
030060
0300E0
031FC0
030180
030000
030000
030000
030000
030000
030000
020000
ENDCHAR

STARTCHAR cns4_2132
ENCODING 8498
SWIDTH 960 0
DWIDTH 24 0
BBX 24 24 0 -2
BITMAP
000018
3FFFFC
000018
000030
000060
0000C0
000300
000C00
000C00
000C00
000C00
000C0C
000FFE
000C00
000C00
000C00
000C00
000C00
000C00
000C00
000C00
000C00
03FC00
003800
ENDCHAR

STARTCHAR cns4_2133
ENCODING 8499
SWIDTH 960 0
DWIDTH 24 0
BBX 24 24 0 -2
BITMAP
000018
3FFFFC
000038
0000E0
000180
000600
000C00
000C00
000C00
000C00
000C00
000C00
00FC00
078C00
FC0C00
700C00
000C00
000C00
000C00
000C00
000C00
000C00
01FC00
003800
ENDCHAR

STARTCHAR cns4_2134
ENCODING 8500
SWIDTH 960 0
DWIDTH 24 0
BBX 24 24 0 -2
BITMAP
002000
003800
003000
003000
003000
003006
FFFFFF
003600
003600
003600
003600
006600
006600
006600
00C600
00C600
018602
018602
030602
060602
0C0603
1807FF
3003FE
C00000
ENDCHAR

STARTCHAR cns4_2135
ENCODING 8501
SWIDTH 960 0
DWIDTH 24 0
BBX 24 24 0 -2
BITMAP
001000
001C00
001800
201808
38180E
30180C
30180C
30180C
30180C
30180C
30180C
30180C
7FFFFC
20180C
001808
001800
001800
003000
003000
006000
00C000
018000
060000
180000
ENDCHAR

STARTCHAR cns4_2136
ENCODING 8502
SWIDTH 960 0
DWIDTH 24 0
BBX 24 24 0 -2
BITMAP
002000
003800
003000
003000
003000
023200
023180
0230C0
063060
043070
0C3030
0C3030
183000
183000
003000
003000
003000
003000
003000
003000
003000
003000
003000
002000
ENDCHAR

STARTCHAR cns4_2137
ENCODING 8503
SWIDTH 960 0
DWIDTH 24 0
BBX 24 24 0 -2
BITMAP
000800
000E00
000C00
000C00
000C00
000C06
7FFFFF
000C00
000C00
000C00
000C00
000C70
000F80
003C00
01EC00
3F0C00
1C0C00
000C00
000C00
000C00
000C00
000C00
01FC00
001800
ENDCHAR

STARTCHAR cns4_2138
ENCODING 8504
SWIDTH 960 0
DWIDTH 24 0
BBX 24 24 0 -2
BITMAP
000100
0301C0
00C380
007700
003E00
001C00
003600
006300
00C300
030380
0C0780
000780
000D80
001980
003180
006180
00C180
030180
0C0180
000380
000300
000700
01FE00
001C00
ENDCHAR

STARTCHAR cns4_2139
ENCODING 8505
SWIDTH 960 0
DWIDTH 24 0
BBX 24 24 0 -2
BITMAP
000000
000030
1FFFF8
006030
006030
006030
006030
0C6030
036030
00E030
007030
007830
00DC30
00CE30
018630
018030
030030
060070
0C0060
1800E0
201FC0
000386
FFFFFF
000000
ENDCHAR

STARTCHAR cns4_213A
ENCODING 8506
SWIDTH 960 0
DWIDTH 24 0
BBX 24 24 0 -2
BITMAP
001000
001C00
001860
0019F0
001F00
00F800
1F1800
001800
001860
0019F0
001F00
00F800
1F1800
001860
0019F0
001F00
00F800
1F1800
001800
001800
001800
001800
001800
001000
ENDCHAR

STARTCHAR cns4_213B
ENCODING 8507
SWIDTH 960 0
DWIDTH 24 0
BBX 24 24 0 -2
BITMAP
000000
000060
0FFFF0
000000
000000
000000
000000
000000
000018
3FFFFC
000000
000000
000000
000000
000060
0FFFF0
000000
000000
000000
000000
000000
000006
FFFFFF
000000
ENDCHAR

STARTCHAR cns4_213C
ENCODING 8508
SWIDTH 960 0
DWIDTH 24 0
BBX 24 24 0 -2
BITMAP
001000
001800
003000
006C00
00C300
018180
0300E0
0C1078
301C3F
C0180C
001800
001800
001818
3FFFFC
001800
001800
001800
001800
001800
001800
001800
001800
001800
001000
ENDCHAR

STARTCHAR cns4_213D
ENCODING 8509
SWIDTH 960 0
DWIDTH 24 0
BBX 24 24 0 -2
BITMAP
001000
001C00
001800
001800
001818
3FFFFC
181800
181800
181800
181800
183000
18300C
1FFFFE
006600
006600
00C600
00C602
018602
030602
060602
0C0603
1807FF
6003FE
800000
ENDCHAR

STARTCHAR cns4_213E
ENCODING 8510
SWIDTH 960 0
DWIDTH 24 0
BBX 24 24 0 -2
BITMAP
000000
20000C
3FFFFE
30000C
30000C
30000C
3000CC
37FFEC
30000C
30000C
30000C
30000C
30000C
3000CC
37FFEC
30000C
30000C
30000C
30000C
30000C
30000C
30000C
3001FC
200018
ENDCHAR

STARTCHAR cns4_213F
ENCODING 8511
SWIDTH 960 0
DWIDTH 24 0
BBX 24 24 0 -2
BITMAP
001000
001C00
003800
003600
006180
00C0C0
018070
030038
06001C
0C000E
301006
C01C00
003800
003400
006600
00C300
018180
0300C0
060060
0C0030
18001C
30000F
C00004
000000
ENDCHAR

STARTCHAR cns4_2140
ENCODING 8512
SWIDTH 960 0
DWIDTH 24 0
BBX 24 24 0 -2
BITMAP
000004
001807
7FFC06
061886
0618E6
0618C6
0618C6
0618C6
0618C6
0618C6
0618C6
0618C6
0618C6
0618C6
0618C6
0618C6
0C18C6
0C18C6
081886
181806
101806
203806
47F07E
80600C
ENDCHAR

STARTCHAR cns4_2141
ENCODING 8513
SWIDTH 960 0
DWIDTH 24 0
BBX 24 24 0 -2
BITMAP
000000
006006
FFEFFF
186186
186186
186186
186186
186186
186186
186186
186186
186186
186186
186186
186186
186306
306306
306306
306606
206606
60EC06
4FC80E
4090FC
802018
ENDCHAR

STARTCHAR cns4_2142
ENCODING 8514
SWIDTH 960 0
DWIDTH 24 0
BBX 24 24 0 -2
BITMAP
080000
0E0000
0C0000
0C0030
0FFFF8
0C0000
0C0000
0C0000
0C0000
0FFFF8
07FFFC
001000
001C00
001800
001800
001806
FFFFFF
001800
001800
001800
001800
001800
001800
001000
ENDCHAR

STARTCHAR cns4_2143
ENCODING 8515
SWIDTH 960 0
DWIDTH 24 0
BBX 24 24 0 -2
BITMAP
000000
40C40C
7FE7FE
60C60C
60C60C
60C60C
60C60C
60C60C
60C60C
60C60C
60C60C
60C60C
6FC6FC
618618
600600
600600
600602
600602
600602
60C602
670603
7C07FF
3003FE
000000
ENDCHAR

STARTCHAR cns4_2144
ENCODING 8516
SWIDTH 960 0
DWIDTH 24 0
BBX 24 24 0 -2
BITMAP
020000
038000
0300C0
07FFE0
0600C0
0C0180
180306
3FFFFF
580000
180000
180000
180000
180000
180000
180000
180000
180000
180000
300000
300000
200000
600000
400000
800000
ENDCHAR

STARTCHAR cns4_2145
ENCODING 8517
SWIDTH 960 0
DWIDTH 24 0
BBX 24 24 0 -2
BITMAP
000000
000000
040040
070070
060060
060060
060060
060060
060060
0600C0
0C00C0
0C00C0
0C0180
190188
188184
30C306
304302
606603
67E63F
FC6FE3
606603
000000
000000
000000
ENDCHAR

STARTCHAR cns4_2146
ENCODING 8518
SWIDTH 960 0
DWIDTH 24 0
BBX 24 24 0 -2
BITMAP
000400
000700
418600
7FC600
618600
618600
618600
618600
618600
618600
618600
618600
618600
618600
618600
618602
618602
7F8602
610602
400602
000603
0007FF
0003FE
000000
ENDCHAR

STARTCHAR cns4_2147
ENCODING 8519
SWIDTH 960 0
DWIDTH 24 0
BBX 24 24 0 -2
BITMAP
000000
000006
FFFFFF
000000
000000
000000
000000
000000
100018
1FFFFC
180018
180018
180018
180018
180018
180018
180018
180018
180018
1FFFF8
180018
180010
100000
000000
ENDCHAR

STARTCHAR cns4_2148
ENCODING 8520
SWIDTH 960 0
DWIDTH 24 0
BBX 24 24 0 -2
BITMAP
000000
0001E0
000FF0
00FC00
0F9800
001800
001800
001800
001800
001800
001830
1FFFF8
001800
001800
001800
001800
001800
001800
001800
001800
00180C
7FFFFE
000000
000000
ENDCHAR

STARTCHAR cns4_2149
ENCODING 8521
SWIDTH 960 0
DWIDTH 24 0
BBX 24 24 0 -2
BITMAP
040000
070000
060000
060000
060000
061800
0FFC00
041800
001800
001800
001800
001806
FFFFFF
003400
003600
006300
006100
00C180
0180C0
030060
060030
0C001C
30000F
C00004
ENDCHAR

STARTCHAR cns4_214A
ENCODING 8522
SWIDTH 960 0
DWIDTH 24 0
BBX 24 24 0 -2
BITMAP
000600
010100
01C180
0180C0
038040
030060
060030
0C0018
18000C
310187
C1FFC2
018180
018180
018180
018180
018180
018182
030182
030182
060182
0C0183
1801FF
3000FE
C00000
ENDCHAR

STARTCHAR cns4_214B
ENCODING 8523
SWIDTH 960 0
DWIDTH 24 0
BBX 24 24 0 -2
BITMAP
000200
010180
01C0C0
018070
038038
03001C
06000E
0C0007
190103
31C1C0
C18180
018180
018180
018180
018180
018180
018182
030182
030182
060182
0C0183
1801FF
3000FE
C00000
ENDCHAR

STARTCHAR cns4_214C
ENCODING 8524
SWIDTH 960 0
DWIDTH 24 0
BBX 24 24 0 -2
BITMAP
000070
0001F8
001F00
03F800
7E1800
001800
001800
20180C
3FFFFE
30180C
30180C
30180C
30180C
30180C
30180C
30180C
30180C
3018FC
201818
001800
001800
001800
001800
001000
ENDCHAR

STARTCHAR cns4_214D
ENCODING 8525
SWIDTH 960 0
DWIDTH 24 0
BBX 24 24 0 -2
BITMAP
000000
000018
3FFFFC
018180
018180
018180
018180
018180
018180
018180
018186
FFFFFF
018180
018180
018180
030180
030180
060180
060180
0C0180
180180
300180
600180
800100
ENDCHAR

STARTCHAR cns4_214E
ENCODING 8526
SWIDTH 960 0
DWIDTH 24 0
BBX 24 24 0 -2
BITMAP
000000
000006
FFFFFF
001800
001800
001800
003800
003C00
007E00
005B00
00D900
009980
0198C0
031860
061830
0C1818
18180C
301807
601802
801800
001800
001800
001800
001000
ENDCHAR

STARTCHAR cns4_214F
ENCODING 8527
SWIDTH 960 0
DWIDTH 24 0
BBX 24 24 0 -2
BITMAP
000000
100000
0C0030
067FF8
040030
000030
810060
610060
3100C0
230180
020180
060300
040600
0C0600
0C0C00
181800
F81802
703002
303002
306002
186003
187FFF
183FFE
180000
ENDCHAR

STARTCHAR cns4_2150
ENCODING 8528
SWIDTH 960 0
DWIDTH 24 0
BBX 24 24 0 -2
BITMAP
000000
000000
000000
000000
000000
000000
000000
000000
000000
000000
000000
020810
110408
11860C
30C306
30C307
606187
E06183
C00000
000000
000000
000000
000000
000000
ENDCHAR

STARTCHAR cns4_2151
ENCODING 8529
SWIDTH 960 0
DWIDTH 24 0
BBX 24 24 0 -2
BITMAP
000000
000000
000000
000070
0007F8
007F00
3F8000
000000
000000
000000
004040
082020
083030
181818
10180C
300C0E
700C06
600000
000000
000000
000000
000000
000000
000000
ENDCHAR

STARTCHAR cns4_2152
ENCODING 8530
SWIDTH 960 0
DWIDTH 24 0
BBX 24 24 0 -2
BITMAP
000000
20000C
3FFFFE
30000C
30000C
30010C
3001CC
32018C
31818C
30C30C
30630C
30360C
301E0C
301C0C
301E0C
30360C
30630C
30C38C
31818C
33018C
34000C
30000C
3000FC
200018
ENDCHAR

STARTCHAR cns4_2153
ENCODING 8531
SWIDTH 960 0
DWIDTH 24 0
BBX 24 24 0 -2
BITMAP
000000
000000
000000
000000
040040
070070
060060
060060
064066
FFE7FF
060060
060060
060060
060060
040040
000000
000000
000000
000000
000000
000000
000000
000000
000000
ENDCHAR

STARTCHAR cns4_2154
ENCODING 8532
SWIDTH 960 0
DWIDTH 24 0
BBX 24 24 0 -2
BITMAP
000000
400000
300000
180000
180000
000000
000000
0C0000
FE0000
0C0000
0C0000
180000
300000
7E0000
060000
060000
060000
0C0000
0C0000
180000
FE0000
C3C000
00FFFF
003FFC
ENDCHAR

STARTCHAR cns4_2155
ENCODING 8533
SWIDTH 960 0
DWIDTH 24 0
BBX 24 24 0 -2
BITMAP
040040
071070
061C60
061860
061860
061860
061860
061868
3FFFFC
061860
061860
061860
061860
061860
061860
061860
061860
061860
061860
061860
061060
060066
FFFFFF
000000
ENDCHAR

STARTCHAR cns4_2156
ENCODING 8534
SWIDTH 960 0
DWIDTH 24 0
BBX 24 24 0 -2
BITMAP
0C0080
0E00E0
0600C0
030180
018180
0383C0
0CC330
30660C
C06603
003C00
001800
001800
001800
001800
001800
001800
001800
001800
001800
001800
001800
001800
001800
001000
ENDCHAR

STARTCHAR cns4_2157
ENCODING 8535
SWIDTH 960 0
DWIDTH 24 0
BBX 24 24 0 -2
BITMAP
040000
070000
060000
060018
0FFFFC
0C0000
181000
101C00
281800
4E1830
0C1FF8
0FF830
FC1830
0C1830
0C1860
0C1840
0C1884
0C1004
0C0004
0C0004
0C0006
0FFFFE
07FFFC
000000
ENDCHAR

STARTCHAR cns4_2158
ENCODING 8536
SWIDTH 960 0
DWIDTH 24 0
BBX 24 24 0 -2
BITMAP
080180
0E00C0
0C4086
0C7FFF
186000
186000
106000
386000
386000
586000
986000
186000
186000
186000
186000
186000
186000
184000
18C000
18C000
188000
198000
190000
120000
ENDCHAR

STARTCHAR cns4_2159
ENCODING 8537
SWIDTH 960 0
DWIDTH 24 0
BBX 24 24 0 -2
BITMAP
020000
038000
030000
06200C
063FFE
0C300C
0C300C
18300C
1C300C
3C300C
2C300C
4C300C
8C300C
0C300C
0C300C
0C300C
0C300C
0C300C
0C300C
0C300C
0C3FFC
0C3008
0C2000
080000
ENDCHAR

STARTCHAR cns4_215A
ENCODING 8538
SWIDTH 960 0
DWIDTH 24 0
BBX 24 24 0 -2
BITMAP
041000
071C00
061800
061800
0C1006
0C3FFF
0C3006
186006
184006
3C8006
6C0806
4C0406
8C0606
0C0206
0C0306
0C0306
0C0006
0C0006
0C0006
0C000E
0C000C
0C001C
0C07F8
080070
ENDCHAR

STARTCHAR cns4_215B
ENCODING 8539
SWIDTH 960 0
DWIDTH 24 0
BBX 24 24 0 -2
BITMAP
080000
0E0038
0C00FC
0C07C0
18FE00
180600
180600
300600
380600
780600
580606
99FFFF
180600
180600
180600
180600
180600
180602
180602
180602
180603
1807FF
1803FE
100000
ENDCHAR

STARTCHAR cns4_215C
ENCODING 8540
SWIDTH 960 0
DWIDTH 24 0
BBX 24 24 0 -2
BITMAP
002000
003800
003000
003060
003FF0
003000
003000
003000
003000
003006
FFFFFF
000000
010200
01C380
018300
018300
018302
030302
030302
060302
0C0303
1803FF
6001FE
800000
ENDCHAR

STARTCHAR cns4_215D
ENCODING 8541
SWIDTH 960 0
DWIDTH 24 0
BBX 24 24 0 -2
BITMAP
00000C
7FFFFE
000000
000000
080030
0FFFF8
0C0030
0C0030
0C0030
0C0330
0DFFB0
0C0030
0C0030
0C0030
0C0036
FFFFFF
0C0030
0C0030
0C0030
0C0030
0C0030
0C0030
0C01F0
080060
ENDCHAR

STARTCHAR cns4_215E
ENCODING 8542
SWIDTH 960 0
DWIDTH 24 0
BBX 24 24 0 -2
BITMAP
002000
003800
003000
003006
FFFFFF
006600
00C300
018180
0300E0
060038
0CC01F
30300C
C01C00
000E00
000600
000000
000000
0000C0
000300
000C00
007000
07C000
030000
000000
ENDCHAR

STARTCHAR cns4_215F
ENCODING 8543
SWIDTH 960 0
DWIDTH 24 0
BBX 24 24 0 -2
BITMAP
000000
100018
1FFFFC
180018
181018
181C18
181818
181818
191918
19D9D8
199998
199998
199998
199998
199998
199998
199998
319999
319999
23FF8D
61010D
400007
800003
000001
ENDCHAR

STARTCHAR cns4_2160
ENCODING 8544
SWIDTH 960 0
DWIDTH 24 0
BBX 24 24 0 -2
BITMAP
000000
001000
201C08
38180E
30180C
30180C
30180C
30198C
33FFCC
30180C
30180C
30180C
30180C
30180C
30180C
30180C
3018CC
37FFEC
30000C
30000C
30000C
7FFFFC
20000C
000008
ENDCHAR

STARTCHAR cns4_2161
ENCODING 8545
SWIDTH 960 0
DWIDTH 24 0
BBX 24 24 0 -2
BITMAP
000008
00000E
00000C
00620C
7FF38C
03030C
03030C
03030C
03030C
03030C
03030C
03030C
03030C
03030C
03030C
03030C
03030C
03F30C
FE020C
70000C
00000C
00000C
0000FC
000018
ENDCHAR

STARTCHAR cns4_2162
ENCODING 8546
SWIDTH 960 0
DWIDTH 24 0
BBX 24 24 0 -2
BITMAP
000010
00301C
FFF818
18C218
18C398
18C318
18C318
18C318
18C318
18C318
18C318
18C318
18C318
18C318
18C218
18C018
18C01A
18C0FA
30C032
30C002
20C003
60FFFF
407FFE
800000
ENDCHAR

STARTCHAR cns4_2163
ENCODING 8547
SWIDTH 960 0
DWIDTH 24 0
BBX 24 24 0 -2
BITMAP
100080
1C00E0
1800C0
1830C0
3FF8C0
3000C6
6007FF
4000C6
8060C6
3FF0C6
0060C6
00C0C6
0180C6
0300C6
0600C6
0C2186
182186
302186
602106
603306
7FF206
3FE40E
0008FC
001018
ENDCHAR

STARTCHAR cns4_2164
ENCODING 8548
SWIDTH 960 0
DWIDTH 24 0
BBX 24 24 0 -2
BITMAP
000100
00C1C0
07E180
7E0180
060180
060186
061FFF
060186
060186
066186
FFF186
060186
060186
060186
060186
060306
060306
060306
060606
060606
060C06
06180E
0630FC
04C018
ENDCHAR

STARTCHAR cns4_2165
ENCODING 8549
SWIDTH 960 0
DWIDTH 24 0
BBX 24 24 0 -2
BITMAP
40000C
7FFFFE
602000
603800
603180
603FC0
606180
606180
60C180
60C300
618300
630600
640700
600D80
6018C0
603060
606038
60C01E
630008
6C0000
600006
FFFFFF
400000
000000
ENDCHAR

STARTCHAR cns4_2166
ENCODING 8550
SWIDTH 960 0
DWIDTH 24 0
BBX 24 24 0 -2
BITMAP
200006
3FFFFF
300000
300000
300030
31FFF8
300600
300600
300600
300600
300600
30060C
37FFFE
300600
300600
200600
200600
600600
600600
400600
400600
800600
800600
000400
ENDCHAR

STARTCHAR cns4_2167
ENCODING 8551
SWIDTH 960 0
DWIDTH 24 0
BBX 24 24 0 -2
BITMAP
200006
3FFFFF
300000
3000C0
3003E0
301E00
31F800
301800
301800
301800
301800
30180C
37FFFE
301800
301800
301800
301800
601804
601804
401804
C01806
801FFE
800FFC
000000
ENDCHAR

STARTCHAR cns4_2168
ENCODING 8552
SWIDTH 960 0
DWIDTH 24 0
BBX 24 24 0 -2
BITMAP
001000
101C10
1C181C
181818
181818
181818
181818
3FFFF8
101810
001800
001860
0FFFF0
030060
0180C0
00C180
006300
003600
001C00
003E00
006700
01C1C0
0700F0
1C003F
E0000C
ENDCHAR

STARTCHAR cns4_2169
ENCODING 8553
SWIDTH 960 0
DWIDTH 24 0
BBX 24 24 0 -2
BITMAP
001000
001C00
001800
001860
0FFFF0
001860
001860
001860
001866
FFFFFF
001800
001800
0018C0
0FFFE0
0100C0
008180
00C300
006600
003C00
006700
00C1C0
030078
1C001F
E0000C
ENDCHAR

STARTCHAR cns4_216A
ENCODING 8554
SWIDTH 960 0
DWIDTH 24 0
BBX 24 24 0 -2
BITMAP
001040
001C70
431860
7F9860
631860
631860
631860
631860
631860
631860
631860
631860
631860
631860
631860
631862
631862
7F3062
623062
402062
006063
00407F
00803E
010000
ENDCHAR

STARTCHAR cns4_216B
ENCODING 8555
SWIDTH 960 0
DWIDTH 24 0
BBX 24 24 0 -2
BITMAP
001800
010600
01C300
038180
0300C0
060060
0C0030
18001C
30000F
C00004
000000
040060
07FFF0
060060
060060
060060
060060
060060
060060
060060
060060
07FFE0
060040
040000
ENDCHAR

STARTCHAR cns4_216C
ENCODING 8556
SWIDTH 960 0
DWIDTH 24 0
BBX 24 24 0 -2
BITMAP
080030
0FFFF8
0C0030
0C0030
0C0030
0C0030
0C0030
0FFFF0
0C0020
080000
000000
000018
7FFFFC
006018
006018
006018
00C018
00C018
018018
030018
060018
0C0038
301FF0
C000E0
ENDCHAR

STARTCHAR cns4_216D
ENCODING 8557
SWIDTH 960 0
DWIDTH 24 0
BBX 24 24 0 -2
BITMAP
000000
20000C
3FFFFE
30000C
30100C
301C0C
30180C
30180C
30300C
30300C
30300C
30620C
30610C
30C18C
30C0CC
318FCC
33F8CC
31C08C
30000C
30000C
30000C
3FFFFC
300008
200000
ENDCHAR

STARTCHAR cns4_216E
ENCODING 8558
SWIDTH 960 0
DWIDTH 24 0
BBX 24 24 0 -2
BITMAP
000000
20000C
3FFFFE
30000C
30600C
30300C
30180C
30180C
30180C
301C0C
30340C
30360C
30320C
30630C
30610C
30C18C
3180CC
3300EC
34004C
30000C
30000C
3FFFFC
300008
200000
ENDCHAR

STARTCHAR cns4_216F
ENCODING 8559
SWIDTH 960 0
DWIDTH 24 0
BBX 24 24 0 -2
BITMAP
000000
20000C
3FFFFE
30000C
30000C
30000C
30000C
30060C
3FFF0C
30060C
30060C
30060C
30060C
30060C
30060C
3FFE0C
30040C
30000C
30000C
30000C
30000C
3FFFFC
30000C
200008
ENDCHAR

STARTCHAR cns4_2170
ENCODING 8560
SWIDTH 960 0
DWIDTH 24 0
BBX 24 24 0 -2
BITMAP
001000
001C00
001800
001800
001818
0FFFFC
001800
001800
001800
001800
001806
FFFFFF
00C300
00C300
00C300
00C302
018302
018302
030302
060302
0C0303
1803FF
3001FE
C00000
ENDCHAR

STARTCHAR cns4_2171
ENCODING 8561
SWIDTH 960 0
DWIDTH 24 0
BBX 24 24 0 -2
BITMAP
000000
100006
1FFFFF
180000
180200
180380
180300
180300
180300
180300
18030C
19FFFE
180300
180300
180300
180300
180300
180300
300300
300300
200306
63FFFF
400000
800000
ENDCHAR

STARTCHAR cns4_2172
ENCODING 8562
SWIDTH 960 0
DWIDTH 24 0
BBX 24 24 0 -2
BITMAP
001000
001C00
001800
001800
001806
FFFFFF
003400
003300
006180
00C0C0
018060
030038
0C001F
30000C
C000C0
07FFE0
000000
000000
000000
000000
000000
000018
3FFFFC
000000
ENDCHAR

STARTCHAR cns4_2173
ENCODING 8563
SWIDTH 960 0
DWIDTH 24 0
BBX 24 24 0 -2
BITMAP
040000
070000
060000
060000
0C000C
0FFFFE
180C00
100C00
200C00
400C00
000C00
000C00
020C20
038C10
030C18
060C0C
060C0C
0C0C06
080C06
100C06
200C00
000C00
00FC00
001800
ENDCHAR

STARTCHAR cns4_2174
ENCODING 8564
SWIDTH 960 0
DWIDTH 24 0
BBX 24 24 0 -2
BITMAP
10000C
1FFFFE
18000C
18000C
18000C
18000C
1FFFFC
18000C
180008
180000
180000
180030
19FFF8
180000
180000
180000
180000
300000
300000
200006
6FFFFF
400000
800000
000000
ENDCHAR

STARTCHAR cns4_2175
ENCODING 8565
SWIDTH 960 0
DWIDTH 24 0
BBX 24 24 0 -2
BITMAP
000040
040070
030060
0180C0
00C080
08810C
0FFFFE
0C000C
0C000C
0C000C
0C000C
0C000C
0FFFFC
0C0008
0C0000
0C0000
0C0000
180000
180000
300000
300000
600000
400000
800000
ENDCHAR

STARTCHAR cns4_2176
ENCODING 8566
SWIDTH 960 0
DWIDTH 24 0
BBX 24 24 0 -2
BITMAP
001000
101C10
1C181C
181818
181818
3FFFF8
100010
000000
10000C
1FFFFE
180000
180000
180000
180000
180000
180000
180000
180000
100000
300000
300000
200000
400000
800000
ENDCHAR

STARTCHAR cns4_2177
ENCODING 8567
SWIDTH 960 0
DWIDTH 24 0
BBX 24 24 0 -2
BITMAP
080000
0E0830
0C0FF8
0C0C30
8C8C30
FFCC30
CC8C30
CC8C30
CC8C30
CC8C30
CC8C30
CC8C30
CC8C30
CC8C30
CC8C30
CC8C30
CC8C32
CC8C32
CC8C32
CF9832
8D1833
0C303F
0C601E
088000
ENDCHAR

STARTCHAR cns4_2178
ENCODING 8568
SWIDTH 960 0
DWIDTH 24 0
BBX 24 24 0 -2
BITMAP
000040
080070
060060
0300C0
018080
010118
3FFFFC
001800
001800
001800
001800
001800
001806
FFFFFF
001800
001800
001800
001800
001800
001800
001800
001800
001800
001000
ENDCHAR

STARTCHAR cns4_2179
ENCODING 8569
SWIDTH 960 0
DWIDTH 24 0
BBX 24 24 0 -2
BITMAP
080000
0E100C
0C1FFE
18180C
18180C
30180C
24180C
47180C
86180C
0C180C
0C180C
18180C
1E19FC
3C1838
6C1800
8C1800
0C1800
0C1802
0C1802
0C1802
0C1803
0C1FFF
0C0FFE
080000
ENDCHAR

STARTCHAR cns4_217A
ENCODING 8570
SWIDTH 960 0
DWIDTH 24 0
BBX 24 24 0 -2
BITMAP
080000
0E1004
0C1C07
0C1806
0C9806
FFD806
0C1806
0C1806
0C1806
0C1806
0C1806
0C1806
0FD806
FC1806
6C1806
0C1806
0C1806
0C1806
0C1806
0C1806
0C1806
0C3FFE
FC1006
180004
ENDCHAR

STARTCHAR cns4_217B
ENCODING 8571
SWIDTH 960 0
DWIDTH 24 0
BBX 24 24 0 -2
BITMAP
080008
0E000E
0C080C
0C0E0C
0C8C0C
FFCC0C
0C0C0C
0C0C0C
0C0C0C
0C0C0C
0C0C0C
0C0C0C
0FCC0C
FC0C0C
6C0C0C
0C1FFC
0C080C
0C000C
0C000C
0C000C
0C000C
0C000C
FC000C
180008
ENDCHAR

STARTCHAR cns4_217C
ENCODING 8572
SWIDTH 960 0
DWIDTH 24 0
BBX 24 24 0 -2
BITMAP
000000
100018
1FFFFC
180018
180018
180018
180018
1FFFF8
181818
181818
181818
181818
1FFFF8
181810
101800
001800
001800
001800
001800
001800
001800
001800
001800
001000
ENDCHAR

STARTCHAR cns4_217D
ENCODING 8573
SWIDTH 960 0
DWIDTH 24 0
BBX 24 24 0 -2
BITMAP
001000
101C10
1C181C
181818
181818
181818
181818
3FFFF8
101810
003800
003C00
003C00
005A00
00DB00
009980
0198C0
031860
061830
0C181C
181807
301802
C01800
001800
001000
ENDCHAR

STARTCHAR cns4_217E
ENCODING 8574
SWIDTH 960 0
DWIDTH 24 0
BBX 24 24 0 -2
BITMAP
000070
0001F8
001F00
001800
001800
001800
001800
001800
001806
FFFFFF
003800
007C00
007A00
00D980
0198C0
031860
061830
0C181C
18180F
301804
C01800
001800
001800
001000
ENDCHAR

STARTCHAR cns4_2221
ENCODING 8737
SWIDTH 960 0
DWIDTH 24 0
BBX 24 24 0 -2
BITMAP
000000
000000
20000C
3FFFFE
30C30C
30C30C
30C30C
30C30C
30C30C
30C30C
30C30C
30C30C
30C30C
30C30C
30C30C
30C30C
30C30C
30C30C
30C30C
3FFFFC
30000C
200008
000000
000000
ENDCHAR

STARTCHAR cns4_2222
ENCODING 8738
SWIDTH 960 0
DWIDTH 24 0
BBX 24 24 0 -2
BITMAP
460000
7F1030
661FF8
661830
661830
641830
681830
701830
6C1830
661830
661830
631830
631830
631830
631830
631830
673032
7E3032
6C6032
606032
60C033
61803F
63001E
4C0000
ENDCHAR

STARTCHAR cns4_2223
ENCODING 8739
SWIDTH 960 0
DWIDTH 24 0
BBX 24 24 0 -2
BITMAP
860800
FF0E00
C60C00
C60C00
C60C00
CC0C30
C8FFF8
D00C30
C80C30
CC0C30
C60C30
C60C30
C30C30
C30C30
C31830
C31830
C71832
FE3032
CC3032
C06032
C0C033
C1803F
C3001E
8C0000
ENDCHAR

STARTCHAR cns4_2224
ENCODING 8740
SWIDTH 960 0
DWIDTH 24 0
BBX 24 24 0 -2
BITMAP
000000
000006
FFFFFF
001800
001800
001800
20180C
3FFFFE
30180C
30180C
30340C
30330C
30618C
30C0CC
3180EC
33006C
3C006C
30000C
30000C
30000C
30000C
3FFFFC
300008
200000
ENDCHAR

STARTCHAR cns4_2225
ENCODING 8741
SWIDTH 960 0
DWIDTH 24 0
BBX 24 24 0 -2
BITMAP
0001C0
0107E0
01FC00
018000
018018
01FFFC
018018
018018
41FFF8
718018
618018
61FFF8
618000
618006
FFFFFF
418006
018006
030006
030006
060006
060006
0C000E
1803FC
200018
ENDCHAR

STARTCHAR cns4_2226
ENCODING 8742
SWIDTH 960 0
DWIDTH 24 0
BBX 24 24 0 -2
BITMAP
0000F8
100FFC
1FFC00
180000
180000
180078
1843FC
187E00
186400
186404
186607
18620E
186318
1861B0
1860C0
1860C0
186060
306030
306018
3060DC
60630E
606C07
407802
803000
ENDCHAR

STARTCHAR cns4_2227
ENCODING 8743
SWIDTH 960 0
DWIDTH 24 0
BBX 24 24 0 -2
BITMAP
000070
0001F8
000F80
007800
03D800
3C1800
001810
00181C
021A38
039A60
071B80
0C1900
301980
C21880
039840
071860
0E1830
1C181C
30180F
C01804
001800
001800
001800
001000
ENDCHAR

STARTCHAR cns4_2228
ENCODING 8744
SWIDTH 960 0
DWIDTH 24 0
BBX 24 24 0 -2
BITMAP
000000
00C000
FFE000
00C00C
00DFFE
01918C
01918C
03118C
03118C
061FFC
06118C
0C118C
0C118C
18118C
181FFC
301000
300002
600002
600002
600002
700003
3FFFFF
1FFFFE
000000
ENDCHAR

STARTCHAR cns4_2229
ENCODING 8745
SWIDTH 960 0
DWIDTH 24 0
BBX 24 24 0 -2
BITMAP
040200
070380
060300
0E0300
0C4306
0C7FFF
18C306
198304
388308
380300
580600
980780
180780
180D80
180D80
180980
181982
181182
183182
182182
184183
1881FF
1900FE
120000
ENDCHAR

STARTCHAR cns4_222A
ENCODING 8746
SWIDTH 960 0
DWIDTH 24 0
BBX 24 24 0 -2
BITMAP
040000
072006
063FFF
0E3000
0C3000
0C3000
18300C
1837FE
38330C
38330C
58330C
98330C
18330C
18330C
18330C
18337C
183318
186302
186302
184302
18C303
1883FF
1901FE
120000
ENDCHAR

STARTCHAR cns4_222B
ENCODING 8747
SWIDTH 960 0
DWIDTH 24 0
BBX 24 24 0 -2
BITMAP
040180
0700C0
061040
0E1C60
0C1830
0C3010
183018
18600C
38C007
39BFFA
5A0C00
980C00
181800
181818
183FFC
181018
180018
180018
180018
180018
180018
180030
180FE0
1000C0
ENDCHAR

STARTCHAR cns4_222C
ENCODING 8748
SWIDTH 960 0
DWIDTH 24 0
BBX 24 24 0 -2
BITMAP
001000
001C00
001806
FFFFFF
001800
101818
1FFFFC
181818
181818
181818
1818F8
101830
001000
001C00
001800
003400
003200
006300
00C180
0180C0
030070
0C001F
30000C
C00000
ENDCHAR

STARTCHAR cns4_222D
ENCODING 8749
SWIDTH 960 0
DWIDTH 24 0
BBX 24 24 0 -2
BITMAP
040000
070018
06FFFC
061800
0C1800
0C1800
181800
181830
383FF8
383030
583030
983030
183030
186030
186030
18FFF0
184060
180060
180060
180060
180060
180066
19FFFF
100000
ENDCHAR

STARTCHAR cns4_222E
ENCODING 8750
SWIDTH 960 0
DWIDTH 24 0
BBX 24 24 0 -2
BITMAP
040000
07000C
06FFFE
066000
0C6000
0C6008
18600E
18600C
38640C
386318
586198
9860F0
186060
1860F0
1860D8
186198
18630C
18660C
186800
186000
186000
187FFE
183FFF
100000
ENDCHAR

STARTCHAR cns4_222F
ENCODING 8751
SWIDTH 960 0
DWIDTH 24 0
BBX 24 24 0 -2
BITMAP
040000
07200C
063FFE
06300C
0C300C
0C300C
08300C
1E340C
3C320C
2C330C
4C318C
8C30CC
0C30CC
0C306C
0C306C
0C300C
0C300C
0C300C
0C300C
0C300C
0C300C
0C3FFC
0C3008
082000
ENDCHAR

STARTCHAR cns4_2230
ENCODING 8752
SWIDTH 960 0
DWIDTH 24 0
BBX 24 24 0 -2
BITMAP
040200
070380
060300
06030C
0C03FE
0C0300
080300
1E0300
3C0318
2C7FFC
4C1018
8C1018
0C1030
0C0830
0C0820
0C0460
0C06C0
0C0380
0C06C0
0C0C60
0C1830
0C301C
0C600F
098004
ENDCHAR

STARTCHAR cns4_2231
ENCODING 8753
SWIDTH 960 0
DWIDTH 24 0
BBX 24 24 0 -2
BITMAP
082080
0E38E0
0C30C0
0C30C0
1860C0
1860C0
1040C0
3CF0C0
79E0C0
5960C0
9A60C0
1861A0
1861A0
1861A0
1861B0
186310
186310
186318
186608
18660C
186406
186C07
186802
105000
ENDCHAR

STARTCHAR cns4_2232
ENCODING 8754
SWIDTH 960 0
DWIDTH 24 0
BBX 24 24 0 -2
BITMAP
010200
01C380
018300
018300
41830C
7F83FE
61830C
61830C
61830C
61830C
61830C
7F83FC
61830C
418308
018300
018300
030302
030302
060302
060302
0C0303
1803FF
3001FE
C00000
ENDCHAR

STARTCHAR cns4_2233
ENCODING 8755
SWIDTH 960 0
DWIDTH 24 0
BBX 24 24 0 -2
BITMAP
040030
07FFF8
060000
060000
060000
060060
07FFF0
060000
060000
060000
060006
FFFFFF
000000
010200
01C380
018300
018300
018302
030302
030302
060303
0C03FF
3001FE
C00000
ENDCHAR

STARTCHAR cns4_2234
ENCODING 8756
SWIDTH 960 0
DWIDTH 24 0
BBX 24 24 0 -2
BITMAP
000C00
020300
038180
0700C0
060060
0C0030
18001C
3000CF
CFFFE4
003000
003000
003000
003000
003006
FFFFFF
006000
006600
00C180
018060
030030
06001C
0C000E
300007
C00003
ENDCHAR

STARTCHAR cns4_2235
ENCODING 8757
SWIDTH 960 0
DWIDTH 24 0
BBX 24 24 0 -2
BITMAP
000C00
020300
038180
0700C0
060060
0C1038
181C1F
30180C
C01800
00180C
3FFFFE
30180C
30180C
30180C
30180C
3FFFFC
301808
201800
001800
001800
001800
001800
001800
001000
ENDCHAR

STARTCHAR cns4_2236
ENCODING 8758
SWIDTH 960 0
DWIDTH 24 0
BBX 24 24 0 -2
BITMAP
0200C0
03FFE0
0300C0
0300C0
0320C0
033FC0
0330C0
0330C0
0330C0
0330C0
4330C6
7FFFFF
600006
600006
600006
600006
600006
600006
600006
600006
600006
600006
60007E
40000C
ENDCHAR

STARTCHAR cns4_2237
ENCODING 8759
SWIDTH 960 0
DWIDTH 24 0
BBX 24 24 0 -2
BITMAP
200000
200006
3FFFFF
600006
600006
C00004
400C08
010300
01C180
0180C0
030060
062038
0C381C
18300F
306004
C06000
00C080
00C040
018060
030030
060FF8
0FF818
0F8018
060000
ENDCHAR

STARTCHAR cns4_2238
ENCODING 8760
SWIDTH 960 0
DWIDTH 24 0
BBX 24 24 0 -2
BITMAP
000000
800400
600300
300180
1800C0
100060
021060
021C00
021800
041800
041808
085804
085806
18D806
309803
F19803
619813
631810
331810
301810
301818
301FF8
300FF0
000000
ENDCHAR

STARTCHAR cns4_2239
ENCODING 8761
SWIDTH 960 0
DWIDTH 24 0
BBX 24 24 0 -2
BITMAP
020004
038007
030006
030086
0318E6
FFFCC6
0300C6
0300C6
0300C6
0330C6
7FF8C6
0030C6
0030C6
3030C6
0C60C6
0660C6
03C0C6
0180C6
03C086
067006
0C3806
181C06
300C7E
C0000C
ENDCHAR

STARTCHAR cns4_223A
ENCODING 8762
SWIDTH 960 0
DWIDTH 24 0
BBX 24 24 0 -2
BITMAP
020004
038007
030006
031806
FFFC86
0300E6
0300C6
0300C6
4318C6
7FFCC6
6318C6
6318C6
6318C6
6318C6
6318C6
6318C6
6318C6
6318C6
631886
637806
433006
030006
03007E
02000C
ENDCHAR

STARTCHAR cns4_223B
ENCODING 8763
SWIDTH 960 0
DWIDTH 24 0
BBX 24 24 0 -2
BITMAP
010004
08C007
0E6006
0C3086
1818E6
180CC6
300EC6
3006C6
6000C6
4018C6
BFFCC6
0618C6
0618C6
0618C6
0618C6
0618C6
0C18C6
0C18C6
181886
181806
301806
203806
47F07E
80600C
ENDCHAR

STARTCHAR cns4_223C
ENCODING 8764
SWIDTH 960 0
DWIDTH 24 0
BBX 24 24 0 -2
BITMAP
084004
0E7007
0C6006
0C6006
0C6086
0C60E6
7FFCC6
0C60C6
0C60C6
0C60C6
0C60C6
0C60C6
0C64C6
FFFEC6
0C60C6
0C60C6
0C60C6
0C60C6
186086
186006
306006
206006
40603E
80400C
ENDCHAR

STARTCHAR cns4_223D
ENCODING 8765
SWIDTH 960 0
DWIDTH 24 0
BBX 24 24 0 -2
BITMAP
004004
607007
186006
0CC006
078106
06C1C6
0C6186
187186
303186
600186
802186
003986
003186
303186
0C6186
066186
03C186
01C186
036106
063006
0C1806
181C06
300C7E
C0000C
ENDCHAR

STARTCHAR cns4_223E
ENCODING 8766
SWIDTH 960 0
DWIDTH 24 0
BBX 24 24 0 -2
BITMAP
020004
038007
030006
033006
03F886
3F00E6
0300C6
0300C6
0318C6
7FFCC6
0300C6
0300C6
0300C6
030CC6
FFFEC6
0300C6
0300C6
0600C6
060086
0C0006
180006
300006
60003E
80000C
ENDCHAR

STARTCHAR cns4_223F
ENCODING 8767
SWIDTH 960 0
DWIDTH 24 0
BBX 24 24 0 -2
BITMAP
080080
0600E0
0300C0
0230C0
FFF8C0
0000C6
000FFF
10C0C6
1FE0C6
18C0C6
18C0C6
18C0C6
18C0C6
18C0C6
18C0C6
18C186
18C186
18C986
30D306
30E306
604606
400C0E
8018FC
006018
ENDCHAR

STARTCHAR cns4_2240
ENCODING 8768
SWIDTH 960 0
DWIDTH 24 0
BBX 24 24 0 -2
BITMAP
100080
1C00E0
1800C0
3030C0
3FF8C0
6000C6
40C7FF
9FE0C6
0000C6
0060C6
3FF0C6
0060C6
00C0C6
0180C6
0300C6
0600C6
0C2186
182186
302106
603306
7FF206
3FE40E
0008FC
001018
ENDCHAR

STARTCHAR cns4_2241
ENCODING 8769
SWIDTH 960 0
DWIDTH 24 0
BBX 24 24 0 -2
BITMAP
000100
01C1C0
07E180
7E0180
060180
060186
061FFF
064186
7FE186
060186
060186
060186
060186
066186
FFF186
060306
060306
060306
060606
060606
060C06
06180E
7E31FC
0C4018
ENDCHAR

STARTCHAR cns4_2242
ENCODING 8770
SWIDTH 960 0
DWIDTH 24 0
BBX 24 24 0 -2
BITMAP
000080
0060E0
23F0C0
3E00C0
3000C0
3000C6
3007FF
3030C6
3FF8C6
30C0C6
30C0C6
30C0C6
30C0C6
30C0C6
30C0C6
30C0C6
30C186
30C186
30C106
20C306
60C206
40C40E
40C8FC
809018
ENDCHAR

STARTCHAR cns4_2243
ENCODING 8771
SWIDTH 960 0
DWIDTH 24 0
BBX 24 24 0 -2
BITMAP
40000C
7FFFFE
600000
600C00
604300
607180
6060C0
60C060
619038
631C1E
663808
683000
606080
606060
60C030
6187F8
63FC18
63E018
618000
600000
600006
FFFFFF
400000
000000
ENDCHAR

STARTCHAR cns4_2244
ENCODING 8772
SWIDTH 960 0
DWIDTH 24 0
BBX 24 24 0 -2
BITMAP
001000
001C00
001800
001800
001806
FFFFFF
001800
001800
081820
0E1838
0C1830
0C1830
0D9836
FFDBFF
0C1830
0C1830
0C1830
0C1830
0C1830
0C1830
081820
001800
001800
001000
ENDCHAR

STARTCHAR cns4_2245
ENCODING 8773
SWIDTH 960 0
DWIDTH 24 0
BBX 24 24 0 -2
BITMAP
00C018
03E07C
0E01C0
760EC0
0600C0
0600C0
0600C0
0600C0
0600C0
0600C0
0640C6
FFEFFF
0600C0
0600C0
0600C0
0600C0
0600C0
0C00C0
0C00C0
1800C0
1800C0
3000C0
6000C0
800080
ENDCHAR

STARTCHAR cns4_2246
ENCODING 8774
SWIDTH 960 0
DWIDTH 24 0
BBX 24 24 0 -2
BITMAP
008000
40E106
70C1FF
60C186
60C186
60C186
60C186
60C186
7EFD86
60C186
60C186
60C186
60C186
60C186
60C186
60C9BE
60C98C
60C980
66CD80
78FD80
307980
000180
000180
000100
ENDCHAR

STARTCHAR cns4_2247
ENCODING 8775
SWIDTH 960 0
DWIDTH 24 0
BBX 24 24 0 -2
BITMAP
200006
3FFFFF
300600
300600
300D80
3018C0
303060
306030
30C01C
33000F
3C4084
3070E0
3060C0
3060C0
3060C0
3060C0
3060C0
3060C0
2060C0
60C0C0
4080C0
4180C0
8300C0
040080
ENDCHAR

STARTCHAR cns4_2248
ENCODING 8776
SWIDTH 960 0
DWIDTH 24 0
BBX 24 24 0 -2
BITMAP
002000
003800
007000
006000
00C000
018080
030060
060030
0C0FF8
1FF818
0F8018
000000
040020
070038
060070
0C0060
0C00C0
1900C8
108184
30C306
63E63F
FC6FC3
606603
000000
ENDCHAR

STARTCHAR cns4_2249
ENCODING 8777
SWIDTH 960 0
DWIDTH 24 0
BBX 24 24 0 -2
BITMAP
000040
0700F0
00C1C0
003700
001E00
007380
01C0E0
0E2070
703830
003000
003006
FFFFFF
006000
00C400
00C700
018E00
030C20
061818
0C1808
18300C
3060FE
60FF86
807C06
000000
ENDCHAR

STARTCHAR cns4_224A
ENCODING 8778
SWIDTH 960 0
DWIDTH 24 0
BBX 24 24 0 -2
BITMAP
020100
0381C0
070180
060180
0C8308
0C4304
186206
33E67E
7E6FC6
384704
000000
020180
03FFC0
030180
030180
030180
030180
030182
060182
060182
0C0183
1801FF
3000FE
C00000
ENDCHAR

STARTCHAR cns4_224B
ENCODING 8779
SWIDTH 960 0
DWIDTH 24 0
BBX 24 24 0 -2
BITMAP
0001E0
0007F8
007C00
1F8010
00301C
101818
0C0C30
060820
040040
000018
0FFFFC
020018
010030
008060
00C0C0
006180
003300
001E00
003F00
007380
01C0E0
070078
1C001F
E0000C
ENDCHAR

STARTCHAR cns4_224C
ENCODING 8780
SWIDTH 960 0
DWIDTH 24 0
BBX 24 24 0 -2
BITMAP
003000
001800
00100C
7FFFFE
060000
060000
060000
060000
060000
07FFF0
03FFF8
000000
000000
080030
0FFFF8
0C0030
0C0030
0C0030
0C0030
0C0030
0C0030
0FFFF0
0C0020
080000
ENDCHAR

STARTCHAR cns4_224D
ENCODING 8781
SWIDTH 960 0
DWIDTH 24 0
BBX 24 24 0 -2
BITMAP
000000
000060
1FFFF0
000060
000060
100060
1FFFE0
180040
180008
180008
18000C
1FFFFC
0FFFF8
000000
080030
0FFFF8
0C0030
0C0030
0C0030
0C0030
0C0030
0FFFF0
0C0020
080000
ENDCHAR

STARTCHAR cns4_224E
ENCODING 8782
SWIDTH 960 0
DWIDTH 24 0
BBX 24 24 0 -2
BITMAP
000000
00000C
7FFFFE
001800
001800
001E00
001980
0018E0
001870
001830
001800
001800
001800
081030
0FFFF8
0C0030
0C0030
0C0030
0C0030
0C0030
0C0030
0FFFF0
0C0020
080000
ENDCHAR

STARTCHAR cns4_224F
ENCODING 8783
SWIDTH 960 0
DWIDTH 24 0
BBX 24 24 0 -2
BITMAP
002000
003800
003000
003060
003FF0
003000
003000
003000
003000
00300C
7FFFFE
000000
000000
080030
0FFFF8
0C0030
0C0030
0C0030
0C0030
0C0030
0C0030
0FFFF0
0C0020
080000
ENDCHAR

STARTCHAR cns4_2250
ENCODING 8784
SWIDTH 960 0
DWIDTH 24 0
BBX 24 24 0 -2
BITMAP
000000
000018
001FFC
430000
7F8000
630000
630000
630006
637FFF
630600
630600
630C00
630C0C
631FFE
63080C
63000C
63000C
7F000C
62000C
40000C
000018
000038
0003F0
000060
ENDCHAR

STARTCHAR cns4_2251
ENCODING 8785
SWIDTH 960 0
DWIDTH 24 0
BBX 24 24 0 -2
BITMAP
080018
0E007C
0C03C0
0C3F00
0C0300
0C0300
0D0300
7F8300
0C0300
0C030C
0C7FFE
0C0300
0C0300
0C0300
0C0300
0C0302
0C0302
0C0302
0F8302
FC0302
600303
0003FF
0001FE
000000
ENDCHAR

STARTCHAR cns4_2252
ENCODING 8786
SWIDTH 960 0
DWIDTH 24 0
BBX 24 24 0 -2
BITMAP
000060
0FFFF0
000060
000060
07FFE0
000060
000066
FFFFFF
008000
00E000
00C060
01FFF0
018060
030060
06C0C0
183180
601B00
001600
000C00
001800
006000
018000
060000
380000
ENDCHAR

STARTCHAR cns4_2253
ENCODING 8787
SWIDTH 960 0
DWIDTH 24 0
BBX 24 24 0 -2
BITMAP
002000
003800
003000
003006
FFFFFF
006300
00C180
0180C0
030070
06001C
0C100F
301C04
C01800
001800
041840
071820
061810
0C1818
08180C
10180C
20180C
401800
01F800
003000
ENDCHAR

STARTCHAR cns4_2254
ENCODING 8788
SWIDTH 960 0
DWIDTH 24 0
BBX 24 24 0 -2
BITMAP
004000
007000
00E000
01C200
030380
060700
0F0E00
05D800
007040
00C060
018030
060FF8
1FF818
0C2018
003800
003006
FFFFFF
006000
00C300
0180E0
030038
06001C
18000E
E00006
ENDCHAR

STARTCHAR cns4_2255
ENCODING 8789
SWIDTH 960 0
DWIDTH 24 0
BBX 24 24 0 -2
BITMAP
200180
3800C0
321046
331FFF
331800
FF9800
F31800
331800
331800
331800
331800
331800
631800
661800
661800
F61800
5C1800
0E1800
1B1800
199000
31B000
602000
404000
808000
ENDCHAR

STARTCHAR cns4_2256
ENCODING 8790
SWIDTH 960 0
DWIDTH 24 0
BBX 24 24 0 -2
BITMAP
200000
38000C
321FFE
3300C0
3300C0
FF80C0
F300C0
3300C0
3300C0
3300C2
333FFF
3300C0
6300C0
6600C0
6600C0
F600C0
5C00C0
0E00C0
1B00C0
1380C0
2180C0
4000C0
800FC0
000180
ENDCHAR

STARTCHAR cns4_2257
ENCODING 8791
SWIDTH 960 0
DWIDTH 24 0
BBX 24 24 0 -2
BITMAP
200100
3801C0
320180
330180
330300
FFC310
F3061C
330418
330818
331030
332030
330060
630060
6600C0
6600C0
F60190
5C0308
0E0304
1B0606
138C03
21983F
403FC3
801F03
000C00
ENDCHAR

STARTCHAR cns4_2258
ENCODING 8792
SWIDTH 960 0
DWIDTH 24 0
BBX 24 24 0 -2
BITMAP
100100
1C01C0
180188
18018E
18C18C
1FEFFF
30C18C
30C18C
20C30C
60C30C
40C618
818F18
0184F0
018070
0340D8
03418C
066306
062C04
0C3000
181800
100E00
2007FF
4001FE
800000
ENDCHAR

STARTCHAR cns4_2259
ENCODING 8793
SWIDTH 960 0
DWIDTH 24 0
BBX 24 24 0 -2
BITMAP
100000
1C0006
187FFF
180630
190630
198630
FFE630
798630
198630
198630
318630
318630
630630
630630
FB0630
4E0630
070C30
0D8C30
0CD830
189830
303030
606030
80C030
010020
ENDCHAR

STARTCHAR cns4_225A
ENCODING 8794
SWIDTH 960 0
DWIDTH 24 0
BBX 24 24 0 -2
BITMAP
003000
001800
201006
3FFFFF
600006
C00004
400030
1FFFF8
020000
038000
030000
030030
07FFF8
060030
0C0030
080030
100030
000030
000030
000030
000030
000070
001FE0
0000C0
ENDCHAR

STARTCHAR cns4_225B
ENCODING 8795
SWIDTH 960 0
DWIDTH 24 0
BBX 24 24 0 -2
BITMAP
004000
003000
001800
201006
3FFFFF
600006
E08004
40E008
00C000
00C0C0
01FFE0
0180C0
0180C0
0300C0
030180
030180
060180
0FFF80
040300
000300
000300
000306
FFFFFF
000000
ENDCHAR

STARTCHAR cns4_225C
ENCODING 8796
SWIDTH 960 0
DWIDTH 24 0
BBX 24 24 0 -2
BITMAP
001000
001C00
001800
001800
001830
001FF8
001800
001800
001800
001806
FFFFFF
001800
001800
041900
0718C0
061860
0C1830
0C1818
18181C
30180E
601806
801800
01F800
003000
ENDCHAR

STARTCHAR cns4_225D
ENCODING 8797
SWIDTH 960 0
DWIDTH 24 0
BBX 24 24 0 -2
BITMAP
080000
0E0018
0C0FFC
0C00C0
0C00C0
0C20C0
FFF0C0
0D80C4
0D9FFE
0D80C0
0D80C0
0D80C0
0D80C0
0D80C0
1980C0
1980C0
1980C0
118FC2
318182
318002
218003
61FFFF
40FFFE
800000
ENDCHAR

STARTCHAR cns4_225E
ENCODING 8798
SWIDTH 960 0
DWIDTH 24 0
BBX 24 24 0 -2
BITMAP
100018
1FFFFC
180018
180018
180018
180018
180018
1FFFF8
180010
180000
180000
18800C
18FFFE
18C00C
18C00C
18C00C
18C00C
18C00C
30C00C
30C00C
20C00C
60FFFC
40C008
808000
ENDCHAR

STARTCHAR cns4_225F
ENCODING 8799
SWIDTH 960 0
DWIDTH 24 0
BBX 24 24 0 -2
BITMAP
040040
030070
018060
00C0C0
008086
FFFFFF
001800
001800
101810
1C181C
181818
181818
181818
181818
3FFFF8
101810
003000
003000
006000
00C000
018000
030000
060000
180000
ENDCHAR

STARTCHAR cns4_2260
ENCODING 8800
SWIDTH 960 0
DWIDTH 24 0
BBX 24 24 0 -2
BITMAP
100000
1C0008
183FFC
180180
180180
180180
990180
990180
990180
990180
990186
997FFF
990180
990180
990180
990180
990180
990180
990180
FF0180
810180
800180
000180
000100
ENDCHAR

STARTCHAR cns4_2261
ENCODING 8801
SWIDTH 960 0
DWIDTH 24 0
BBX 24 24 0 -2
BITMAP
001000
201C08
38180E
30180C
30180C
30180C
7FFFFC
200008
000000
020180
03FFC0
030180
030180
036180
033180
031980
031980
060182
060182
0C0182
180183
3001FF
6000FE
800000
ENDCHAR

STARTCHAR cns4_2262
ENCODING 8802
SWIDTH 960 0
DWIDTH 24 0
BBX 24 24 0 -2
BITMAP
081020
0E1C38
0C1830
183060
3060C0
183060
0C1830
060C18
040810
000000
0FFFF0
0C0030
0C0030
0C0030
0FFFF0
0C0030
0C0030
0C0030
0C0030
0C0030
0C0030
0C0030
0C03F0
080060
ENDCHAR

STARTCHAR cns4_2263
ENCODING 8803
SWIDTH 960 0
DWIDTH 24 0
BBX 24 24 0 -2
BITMAP
000000
000030
007FF8
000C30
030C30
7F8C30
0C0C30
0C2C30
0C1C30
0C0C30
0C0E30
0C0F30
0C0DB0
0C0DB0
0C0C30
0C1830
0C1830
0FB032
F83032
606032
00C033
01803F
03001E
040000
ENDCHAR

STARTCHAR cns4_2264
ENCODING 8804
SWIDTH 960 0
DWIDTH 24 0
BBX 24 24 0 -2
BITMAP
080000
0E000C
0C07FE
0C0060
8CC060
FFE060
CCC060
CCC060
CCC060
CCC060
CCC066
CCCFFF
CCC060
CCC060
CCC060
CCC060
CCC060
CCC060
CCC060
CFC060
8C8060
0C0060
0C0060
080040
ENDCHAR

STARTCHAR cns4_2265
ENCODING 8805
SWIDTH 960 0
DWIDTH 24 0
BBX 24 24 0 -2
BITMAP
080000
0E0006
0C1FFF
0C0186
8CC186
FFE186
CCC186
CCD186
CCC986
CCCD86
CCC786
CCC586
CCC186
CCC186
CCC186
CCC186
CCC306
CCC306
CFC606
8C8406
0C0806
0C100E
0C21FC
084018
ENDCHAR

STARTCHAR cns4_2266
ENCODING 8806
SWIDTH 960 0
DWIDTH 24 0
BBX 24 24 0 -2
BITMAP
003000
001800
001006
FFFFFF
0C0000
0C0000
0C0000
0C0000
0FFFF8
07FFFC
001000
001C00
001800
101818
1FFFFC
181818
181818
181818
181818
181818
181818
1819F8
101830
001000
ENDCHAR

STARTCHAR cns4_2267
ENCODING 8807
SWIDTH 960 0
DWIDTH 24 0
BBX 24 24 0 -2
BITMAP
000000
080040
0E0070
0C0060
1800C0
1800C0
310188
31C18E
61830C
C1860C
630318
1B00D8
0E0070
060030
0C0060
1900C8
1880C4
30C186
606303
C7E63F
FC67E3
606303
000000
000000
ENDCHAR

STARTCHAR cns4_2268
ENCODING 8808
SWIDTH 960 0
DWIDTH 24 0
BBX 24 24 0 -2
BITMAP
001800
000C00
200806
3FFFFF
300000
300000
30000C
33FFFE
300600
300600
300600
300600
300780
3006E0
300670
300638
300618
300600
300600
200600
200600
400600
400600
800400
ENDCHAR

STARTCHAR cns4_2269
ENCODING 8809
SWIDTH 960 0
DWIDTH 24 0
BBX 24 24 0 -2
BITMAP
000C00
000600
200406
3FFFFF
300000
300000
300000
300000
308018
30FFFC
30C018
30C018
30C018
30C018
30C018
30C018
30C018
30C018
30C018
20FFF8
20C010
408000
400000
800000
ENDCHAR

STARTCHAR cns4_226A
ENCODING 8810
SWIDTH 960 0
DWIDTH 24 0
BBX 24 24 0 -2
BITMAP
000000
03000C
FF9FFE
0300C0
0300C0
0300C0
4300C0
7F00C0
6200C0
6000C0
C000C2
C33FFF
FF80C0
0300C0
0300C0
0300C0
0300C0
0300C0
0300C0
0300C0
0300C0
0600C0
FC00C0
180080
ENDCHAR

STARTCHAR cns4_226B
ENCODING 8811
SWIDTH 960 0
DWIDTH 24 0
BBX 24 24 0 -2
BITMAP
000000
03000C
FF9FFE
0300C0
0300C0
0300C0
4300C0
7F00C0
6200C0
6000C2
C03FFF
C300C0
FF80C0
0300C0
0300C0
0300C0
0300C0
0300C0
0300C0
0300C0
0300C0
0600C0
FC0FC0
180180
ENDCHAR

STARTCHAR cns4_226C
ENCODING 8812
SWIDTH 960 0
DWIDTH 24 0
BBX 24 24 0 -2
BITMAP
000000
00C006
FFE7FF
00C006
00C006
00C006
40C206
7FC3FE
608304
600300
C00600
C0C606
FFE7FF
00C406
00C006
00C006
00C006
00C006
00C006
01C00E
01800C
03801C
7F07F8
060030
ENDCHAR

STARTCHAR cns4_226D
ENCODING 8813
SWIDTH 960 0
DWIDTH 24 0
BBX 24 24 0 -2
BITMAP
080100
0E01C0
0C2180
183980
103180
203180
44318C
8731FE
063F8C
0CF18C
0C318C
183188
183198
383190
583180
983180
183182
183102
183002
183002
183003
183FFF
181FFE
100000
ENDCHAR

STARTCHAR cns4_226E
ENCODING 8814
SWIDTH 960 0
DWIDTH 24 0
BBX 24 24 0 -2
BITMAP
080100
0E01C0
0C0180
180180
180180
300180
640180
470180
86018C
0C3FFE
0C0180
180180
3E0180
2C0180
4C0180
8C0180
0C0180
0C0180
0C0180
0C0180
0C0180
0C0186
0CFFFF
080000
ENDCHAR

STARTCHAR cns4_226F
ENCODING 8815
SWIDTH 960 0
DWIDTH 24 0
BBX 24 24 0 -2
BITMAP
000000
000018
3FFFFC
006018
006018
006018
00C018
00C018
018018
030018
060038
0C07F0
300060
C02000
021800
038C00
030608
230644
230046
630043
630063
C3FFE3
C1FFC0
000000
ENDCHAR

STARTCHAR cns4_2270
ENCODING 8816
SWIDTH 960 0
DWIDTH 24 0
BBX 24 24 0 -2
BITMAP
100800
1C0E00
180C00
180C00
180C06
180FFF
5C1806
5A1006
5B2006
DA4006
D80806
980606
180306
180186
180186
180006
180006
180006
180006
18000E
18000C
18001C
1807F8
100030
ENDCHAR

STARTCHAR cns4_2271
ENCODING 8817
SWIDTH 960 0
DWIDTH 24 0
BBX 24 24 0 -2
BITMAP
000000
000060
0FFFF0
000000
000000
000000
000000
000006
FFFFFF
000000
000000
002000
001800
020C00
038620
130618
13000C
330046
230047
630043
C30063
C3FFE0
01FFC0
000000
ENDCHAR

STARTCHAR cns4_2272
ENCODING 8818
SWIDTH 960 0
DWIDTH 24 0
BBX 24 24 0 -2
BITMAP
020100
0381D0
03318C
7FF986
030186
030180
030186
FFFFFF
000180
000180
000188
00018E
00018C
00018C
0000D8
0000D8
0000F0
000062
0000E2
0001B2
00031A
000C0E
003007
000003
ENDCHAR

STARTCHAR cns4_2273
ENCODING 8819
SWIDTH 960 0
DWIDTH 24 0
BBX 24 24 0 -2
BITMAP
100000
1C200C
183FFE
18300C
18300C
FF300C
18300C
18300C
18300C
18300C
183FFC
18300C
1F300C
F8300C
D8300C
18300C
18300C
18300C
18300C
18300C
18300C
18300C
F830FC
302018
ENDCHAR

STARTCHAR cns4_2274
ENCODING 8820
SWIDTH 960 0
DWIDTH 24 0
BBX 24 24 0 -2
BITMAP
100100
1C01C0
180180
180180
180180
FF4186
187FFF
186186
186186
186186
186186
186186
1F6186
F86186
D86186
186186
186186
186186
186186
1861BE
18418C
180180
F80180
300100
ENDCHAR

STARTCHAR cns4_2275
ENCODING 8821
SWIDTH 960 0
DWIDTH 24 0
BBX 24 24 0 -2
BITMAP
100006
1C3FFF
180006
180006
190006
FF9006
181FFE
181804
181800
183000
183000
183006
1F7FFF
F82006
D80006
180006
180006
180006
180006
18000E
18000C
18001C
F803F8
300030
ENDCHAR

STARTCHAR cns4_2276
ENCODING 8822
SWIDTH 960 0
DWIDTH 24 0
BBX 24 24 0 -2
BITMAP
080020
0E0038
0C0030
0C0030
0C8030
FFC030
0C0036
0C3FFF
0C0030
0C0030
0C0030
0C0830
0F8430
FC0630
6C0330
0C0330
0C0030
0C0030
0C0030
0C0030
0C0030
0C0030
7C07F0
180060
ENDCHAR

STARTCHAR cns4_2277
ENCODING 8823
SWIDTH 960 0
DWIDTH 24 0
BBX 24 24 0 -2
BITMAP
000080
4000E0
7000C0
6000C0
6000C6
603FFF
6000C0
6180C0
7FC0C0
6000CC
603FFE
60080C
60080C
600418
600418
600230
60C360
6301C0
6C01C0
780360
300630
000C1C
00300F
00C002
ENDCHAR

STARTCHAR cns4_2278
ENCODING 8824
SWIDTH 960 0
DWIDTH 24 0
BBX 24 24 0 -2
BITMAP
080030
0FFFF8
0C0030
0C0030
0C0030
0FFFF0
0C0030
0C0030
0C0030
0FFFF0
000020
080000
0E0000
0C0000
0C0030
0FFFF8
0C0000
0C0000
0C0004
0C0004
0C0006
0FFFFE
07FFFC
000000
ENDCHAR

STARTCHAR cns4_2279
ENCODING 8825
SWIDTH 960 0
DWIDTH 24 0
BBX 24 24 0 -2
BITMAP
000100
0001C0
418180
7FC180
618180
618186
61BFFF
618186
618186
618186
7F8186
618186
618186
618186
618306
618306
618606
618606
7F8C06
611806
403006
00600E
00C1FC
010018
ENDCHAR

STARTCHAR cns4_227A
ENCODING 8826
SWIDTH 960 0
DWIDTH 24 0
BBX 24 24 0 -2
BITMAP
020004
038007
030106
0301C6
030186
033186
7FF986
030186
030186
070186
078186
0FC186
0B6186
1B7186
133186
330186
230186
630186
430106
830006
030006
030006
0300FE
02000C
ENDCHAR

STARTCHAR cns4_227B
ENCODING 8827
SWIDTH 960 0
DWIDTH 24 0
BBX 24 24 0 -2
BITMAP
080060
0FFFF0
0C0060
0C0060
0C0060
0C1FE0
0C00C8
0C0008
0C000C
0FFFFC
07FFF8
001000
001C00
001806
FFFFFF
003800
007C00
00DB00
0198C0
031878
0C181F
301804
C01800
001000
ENDCHAR

STARTCHAR cns4_227C
ENCODING 8828
SWIDTH 960 0
DWIDTH 24 0
BBX 24 24 0 -2
BITMAP
000000
018006
FFDFFF
180300
180300
180300
198300
1FC600
318606
318FFF
318406
218006
718006
598006
8D8006
070006
030006
060006
060006
0C000E
18000C
30001C
6003F8
800030
ENDCHAR

STARTCHAR cns4_227D
ENCODING 8829
SWIDTH 960 0
DWIDTH 24 0
BBX 24 24 0 -2
BITMAP
000100
00C1C0
FFE180
180180
180180
180180
198180
1FC180
318180
318180
3183C0
218340
718340
598360
8D8620
070620
030C30
060C10
061818
0C3018
18600C
30C00E
618007
860002
ENDCHAR

STARTCHAR cns4_227E
ENCODING 8830
SWIDTH 960 0
DWIDTH 24 0
BBX 24 24 0 -2
BITMAP
0001E0
001FF0
0FF000
003000
003030
1FFFF8
003000
003018
3FFFFC
003002
003002
003003
003FFF
001FFE
020200
038380
030300
030300
030302
060302
0C0303
1803FF
3001FE
C00000
ENDCHAR

STARTCHAR cns4_2321
ENCODING 8993
SWIDTH 960 0
DWIDTH 24 0
BBX 24 24 0 -2
BITMAP
0001C0
107FE0
1FF800
181800
181818
1FFFFC
181800
181800
180C08
186608
19838C
1E11FC
0C1C78
001800
001800
001806
FFFFFF
001800
001800
001800
001800
001800
001800
001000
ENDCHAR

STARTCHAR cns4_2322
ENCODING 8994
SWIDTH 960 0
DWIDTH 24 0
BBX 24 24 0 -2
BITMAP
200000
180006
0C7FFF
060306
040306
000306
810306
614306
613306
321B06
220F06
060706
040306
0C0306
080306
180606
700606
300C06
300C06
18180E
18300C
18601C
18C3F8
010070
ENDCHAR

STARTCHAR cns4_2323
ENCODING 8995
SWIDTH 960 0
DWIDTH 24 0
BBX 24 24 0 -2
BITMAP
100010
0C001C
060038
030070
0200C0
000180
808600
609808
30800E
19001C
110038
030070
0200C0
060180
040600
0C1804
180007
78000E
18001C
180070
0C01C0
0C0700
0C3800
000000
ENDCHAR

STARTCHAR cns4_2324
ENCODING 8996
SWIDTH 960 0
DWIDTH 24 0
BBX 24 24 0 -2
BITMAP
000300
3FFF80
018300
01860C
030FFE
03040C
06000C
0C000C
18001C
3001F8
601030
801C00
001808
08180C
061818
033430
023240
006300
00C180
0180C0
030060
0C0038
30001F
C00008
ENDCHAR

STARTCHAR cns4_2325
ENCODING 8997
SWIDTH 960 0
DWIDTH 24 0
BBX 24 24 0 -2
BITMAP
001000
001C00
001800
003400
006300
00C180
0180C0
030060
060038
0C001F
30100C
C01C00
001808
08180C
061818
033430
023340
006180
00C0C0
018060
030038
0C001C
30000E
C00006
ENDCHAR

STARTCHAR cns4_2326
ENCODING 8998
SWIDTH 960 0
DWIDTH 24 0
BBX 24 24 0 -2
BITMAP
020008
03800E
23040C
3B070C
33060C
33660C
3FF60C
63060C
43060C
83060C
03060C
03060C
03F60C
FF060C
63060C
03060C
030FFC
03040C
03000C
03000C
03000C
03000C
03000C
020008
ENDCHAR

STARTCHAR cns4_2327
ENCODING 8999
SWIDTH 960 0
DWIDTH 24 0
BBX 24 24 0 -2
BITMAP
020800
838E00
630C00
360C00
1E1806
0C1FFF
1C3006
362006
634006
830006
070806
0F0606
0B0306
1B0386
330186
230006
430006
830006
030006
03000E
03000C
07001C
7E03F8
0C0030
ENDCHAR

STARTCHAR cns4_2328
ENCODING 9000
SWIDTH 960 0
DWIDTH 24 0
BBX 24 24 0 -2
BITMAP
040000
870030
6600F8
3C0780
1C7E00
180600
1C0600
340600
660600
460600
8E060C
0EFFFE
1E0600
160600
360600
260600
460602
860602
060602
060602
060603
0E07FF
FC03FE
180000
ENDCHAR

STARTCHAR cns4_2329
ENCODING 9001
SWIDTH 960 0
DWIDTH 24 0
BBX 24 24 0 -2
BITMAP
000008
00000E
01880C
FFCE0C
0C0C0C
0C0C0C
0C0C0C
0C0C0C
0C0C0C
0D0C0C
7F8C0C
0C0C0C
0C0C0C
0C0C0C
0C0C0C
0C0C0C
0C0C0C
0C1FFC
0FC80C
F8000C
60000C
00000C
00000C
000008
ENDCHAR

STARTCHAR cns4_232A
ENCODING 9002
SWIDTH 960 0
DWIDTH 24 0
BBX 24 24 0 -2
BITMAP
000100
000080
020080
FF00C0
180840
180E40
180C60
180C60
180C60
1A0C60
FF0C60
180C60
180C60
180C20
181830
181830
181830
183018
1F3018
F8600C
60C00C
008006
010007
020002
ENDCHAR

STARTCHAR cns4_232B
ENCODING 9003
SWIDTH 960 0
DWIDTH 24 0
BBX 24 24 0 -2
BITMAP
008000
00E000
00C000
018000
130018
1FFFFC
181818
181818
181818
181818
181818
181818
181818
1FFFF8
181818
181818
181818
181818
181818
181818
181818
1FFFF8
180010
100000
ENDCHAR

STARTCHAR cns4_232C
ENCODING 9004
SWIDTH 960 0
DWIDTH 24 0
BBX 24 24 0 -2
BITMAP
000040
040070
030060
0180C0
01C080
00810C
7FFFFE
001800
001800
001800
001800
001800
001818
3FFFFC
001800
001800
001800
001800
001800
001800
001806
FFFFFF
000000
000000
ENDCHAR

STARTCHAR cns4_232D
ENCODING 9005
SWIDTH 960 0
DWIDTH 24 0
BBX 24 24 0 -2
BITMAP
000C00
010300
01C180
0380C0
030060
060030
0C001C
18000F
340064
C7FFF0
060060
060060
067060
061C60
060C60
060060
0603E0
061E60
06F860
0C6060
0C0060
180060
3007E0
4000C0
ENDCHAR

STARTCHAR cns4_232E
ENCODING 9006
SWIDTH 960 0
DWIDTH 24 0
BBX 24 24 0 -2
BITMAP
040040
070070
064062
FFE7FF
060060
060060
040040
000000
000040
040070
070060
060060
060060
060060
060060
060060
0FFFE0
040060
000060
000060
000060
000060
000060
000040
ENDCHAR

STARTCHAR cns4_232F
ENCODING 9007
SWIDTH 960 0
DWIDTH 24 0
BBX 24 24 0 -2
BITMAP
040040
070070
064062
FFE7FF
060060
040040
000000
0200C0
03FFE0
0300C0
0300C0
0300C0
0300C0
0300C0
0300C0
0600C0
0600C2
0400C2
0C00C2
0800C2
1000C3
2000FF
40007E
800000
ENDCHAR

STARTCHAR cns4_2330
ENCODING 9008
SWIDTH 960 0
DWIDTH 24 0
BBX 24 24 0 -2
BITMAP
000000
000060
41FFF0
301860
181860
1818C0
0018C0
18198C
FC19FE
18190C
18180C
30300C
24300C
7E300C
0C600C
0C601C
0C4018
18C038
1887F0
310060
FC0000
C78000
01FFFF
007FFC
ENDCHAR

STARTCHAR cns4_2331
ENCODING 9009
SWIDTH 960 0
DWIDTH 24 0
BBX 24 24 0 -2
BITMAP
04020C
0703FE
06030C
06030C
066318
FFF318
060310
060320
060318
06030C
060306
07E306
FE0303
660303
060303
060303
060303
060307
06037E
06030C
060300
060300
3E0300
0C0200
ENDCHAR

STARTCHAR cns4_2332
ENCODING 9010
SWIDTH 960 0
DWIDTH 24 0
BBX 24 24 0 -2
BITMAP
00010C
00C1FE
03E18C
7E018C
06018C
060198
060190
0601A0
060198
06018C
063186
FFF986
060183
060183
060183
060183
060183
0C0187
0C01BE
18018C
180180
300180
200180
400100
ENDCHAR

STARTCHAR cns4_2333
ENCODING 9011
SWIDTH 960 0
DWIDTH 24 0
BBX 24 24 0 -2
BITMAP
04010C
0701FE
06018C
0C018C
0C418C
187198
30E190
0CC1A0
038198
03218C
063986
0C3186
183183
31F183
7E6183
786183
30C183
00C187
0181BE
03018C
060180
0C0180
180180
600100
ENDCHAR

STARTCHAR cns4_2334
ENCODING 9012
SWIDTH 960 0
DWIDTH 24 0
BBX 24 24 0 -2
BITMAP
430000
7F8018
631FFC
630180
630180
660180
640180
680180
640180
660180
630186
637FFF
618180
618180
618180
618180
638180
7F0180
660180
600180
600180
600180
600180
400100
ENDCHAR

STARTCHAR cns4_2335
ENCODING 9013
SWIDTH 960 0
DWIDTH 24 0
BBX 24 24 0 -2
BITMAP
000006
FFFFFF
00C300
00C300
00C300
00C300
40C306
7FC3FF
60C306
60C306
60C306
60C306
60C306
60C306
7FC3FE
40C304
00C300
018300
018300
030300
060300
0C0300
180300
200200
ENDCHAR

STARTCHAR cns4_2336
ENCODING 9014
SWIDTH 960 0
DWIDTH 24 0
BBX 24 24 0 -2
BITMAP
040200
070380
060300
060300
062300
FFF300
060300
060300
060300
060300
060300
7FE300
000300
000300
406300
7FF302
606302
606302
606302
606302
606303
7FE3FF
6041FE
400000
ENDCHAR

STARTCHAR cns4_2337
ENCODING 9015
SWIDTH 960 0
DWIDTH 24 0
BBX 24 24 0 -2
BITMAP
003000
001800
00100C
7FFFFE
008000
00E100
01C0C0
030060
0607F0
1FFC30
0E0030
000000
082080
0E38E0
0C30C0
0C30C0
0C30C0
0C30C0
0C30C0
1830C0
1830C0
3030FE
60307F
802000
ENDCHAR

STARTCHAR cns4_2338
ENCODING 9016
SWIDTH 960 0
DWIDTH 24 0
BBX 24 24 0 -2
BITMAP
040100
0701C0
060180
0E0180
0C0186
0CFFFF
180180
180180
380180
38018C
587FFE
980180
180380
1807C0
1805A0
180DB0
181998
18318C
186187
18C182
190180
180180
180180
100100
ENDCHAR

STARTCHAR cns4_2339
ENCODING 9017
SWIDTH 960 0
DWIDTH 24 0
BBX 24 24 0 -2
BITMAP
108000
1CE000
18C000
18C806
30CEFF
30CC46
30FE46
67CC46
7ACC46
B0CC46
30CC46
30CC46
318C46
31984C
33184C
33D828
303038
302C30
306668
30C4CC
318184
330306
360C07
283002
ENDCHAR

STARTCHAR cns4_233A
ENCODING 9018
SWIDTH 960 0
DWIDTH 24 0
BBX 24 24 0 -2
BITMAP
003800
003000
006800
00C600
018380
0300E0
0C003F
30000C
CFFFF0
0C1830
0C1830
0C1830
0FFFF0
0C1830
0C1830
0C1830
0FFFF0
081820
001800
001800
001800
001800
001800
001000
ENDCHAR

STARTCHAR cns4_233B
ENCODING 9019
SWIDTH 960 0
DWIDTH 24 0
BBX 24 24 0 -2
BITMAP
000078
000FFC
10FC00
1F8800
180E00
180C00
180C18
180FFC
180C00
180C00
180C00
180C06
1FFFFF
180000
184080
1870E0
1860C0
1860C2
1060C2
30C0C2
20C0C3
6180FF
43007E
8C0000
ENDCHAR

STARTCHAR cns4_233C
ENCODING 9020
SWIDTH 960 0
DWIDTH 24 0
BBX 24 24 0 -2
BITMAP
004006
407FFF
206186
306186
186186
106186
026186
027FFE
046186
046186
0C6186
086186
186186
187FFE
304184
F00180
600180
600180
300180
300180
300180
300180
300180
000100
ENDCHAR

STARTCHAR cns4_233D
ENCODING 9021
SWIDTH 960 0
DWIDTH 24 0
BBX 24 24 0 -2
BITMAP
000000
40400C
207FFE
30600C
18600C
10600C
02600C
02600C
047FFC
046188
0C6180
086180
18618C
187FFE
306180
F06180
6060C0
6060C2
306062
306062
306132
30661B
307C0F
003006
ENDCHAR

STARTCHAR cns4_233E
ENCODING 9022
SWIDTH 960 0
DWIDTH 24 0
BBX 24 24 0 -2
BITMAP
010004
01C007
018006
218C86
3FFEE6
318CC6
3188C6
3190C6
3180C6
3198C6
3FFCC6
3018C6
3018C6
3430C6
3230C6
3160C6
31E0C6
30C0C6
61E086
633006
461806
4C1C06
980C3E
20000C
ENDCHAR

STARTCHAR cns4_233F
ENCODING 9023
SWIDTH 960 0
DWIDTH 24 0
BBX 24 24 0 -2
BITMAP
040004
070007
060006
060086
0600E6
0630C6
07F8C6
0600C6
0600C6
0600C6
0600C6
0600C6
4630C6
7FF8C6
6030C6
6030C6
6030C6
6030C6
603086
603006
603006
7FF006
60207E
40000C
ENDCHAR

STARTCHAR cns4_2340
ENCODING 9024
SWIDTH 960 0
DWIDTH 24 0
BBX 24 24 0 -2
BITMAP
038004
030007
06C006
066086
0C30E6
1818C6
301CC6
600CC6
4060C6
9FF0C6
0000C6
0000C6
0018C6
7FFCC6
0018C6
0030C6
0060C6
00C0C6
198086
070006
01C006
00E006
00607E
00000C
ENDCHAR

STARTCHAR cns4_2341
ENCODING 9025
SWIDTH 960 0
DWIDTH 24 0
BBX 24 24 0 -2
BITMAP
100004
1C0007
180006
181886
3FFCE6
3018C6
6018C6
4018C6
A198C6
3FD8C6
3198C6
3198C6
3198C6
3198C6
3198C6
3F98C6
3118C6
2018C6
001886
001806
001806
003806
07F07E
00600C
ENDCHAR

STARTCHAR cns4_2342
ENCODING 9026
SWIDTH 960 0
DWIDTH 24 0
BBX 24 24 0 -2
BITMAP
000004
003807
21FC06
3F3086
3330E6
3330C6
3330C6
3330C6
3330C6
3330C6
3330C6
3330C6
3330C6
3310C6
3318C6
3218C6
3298C6
3648C6
242C86
6CE406
6F2606
442306
40023E
80000C
ENDCHAR

STARTCHAR cns4_2343
ENCODING 9027
SWIDTH 960 0
DWIDTH 24 0
BBX 24 24 0 -2
BITMAP
020004
038007
030006
030006
036086
3FF0E6
0300C6
0300C6
0300C6
0300C6
0330C6
7FF8C6
0300C6
0700C6
0F80C6
0B60C6
1B30C6
1318C6
330C86
630806
430006
830006
03003E
02000C
ENDCHAR

STARTCHAR cns4_2344
ENCODING 9028
SWIDTH 960 0
DWIDTH 24 0
BBX 24 24 0 -2
BITMAP
088020
0EE038
0CC030
0CC030
0CCC30
FFFE30
0CCDFF
0CCC33
4CCC33
7FFC33
6CC033
6CC033
CCCC33
FFFE33
8CCC63
0CCC63
0CCC63
0CCCC3
18FCC3
18C983
30C103
20C207
40C47E
80880C
ENDCHAR

STARTCHAR cns4_2345
ENCODING 9029
SWIDTH 960 0
DWIDTH 24 0
BBX 24 24 0 -2
BITMAP
100100
1C01C0
180180
180180
180186
181FFF
FFC300
18C300
18C300
18C600
18C60C
18C7FE
18CC60
18C860
18D060
18E060
10C060
30C060
30C060
20C060
20C060
41C066
4F9FFF
830000
ENDCHAR

STARTCHAR cns4_2346
ENCODING 9030
SWIDTH 960 0
DWIDTH 24 0
BBX 24 24 0 -2
BITMAP
000100
00C1C0
FFE180
0C0180
0C0180
0C0180
180186
183FFF
198186
3FC186
318186
318186
718186
718186
B18186
318306
318306
318606
318606
3F8C06
311806
20300E
0061FC
008018
ENDCHAR

STARTCHAR cns4_2347
ENCODING 9031
SWIDTH 960 0
DWIDTH 24 0
BBX 24 24 0 -2
BITMAP
040100
0701C0
060180
0C0180
48C180
7FE186
60CFFF
60C186
60C186
60C186
60C186
60C186
7FC186
60C186
60C186
60C306
60C306
60C306
60C206
60C606
7FC406
60880E
4010FC
002018
ENDCHAR

STARTCHAR cns4_2348
ENCODING 9032
SWIDTH 960 0
DWIDTH 24 0
BBX 24 24 0 -2
BITMAP
000080
400CE0
7FFEC0
6000C0
6030C0
6FF8C6
6103FF
61C0C6
6180C6
6198C6
6FFCC6
6198C6
6198C6
6198C6
6198C6
6198C6
6198C6
6318C6
631986
661986
4C1B06
49F20E
9064FC
200818
ENDCHAR

STARTCHAR cns4_2349
ENCODING 9033
SWIDTH 960 0
DWIDTH 24 0
BBX 24 24 0 -2
BITMAP
00C080
FFE0E0
40C0C0
20C0C0
3180C0
1B00C0
0E00C6
0F0FFF
1980C6
30C0C6
6070C6
8420C6
0700C6
0600C6
0640C6
7FE186
060186
060186
060306
060306
07F606
FC0C0E
6018FC
002018
ENDCHAR

STARTCHAR cns4_234A
ENCODING 9034
SWIDTH 960 0
DWIDTH 24 0
BBX 24 24 0 -2
BITMAP
40000C
7FFFFE
600000
600000
610030
61FFF8
618030
618030
618030
618030
618030
61FFF0
610020
604080
607060
60E030
61C018
63000C
640008
600000
600006
FFFFFF
400000
000000
ENDCHAR

STARTCHAR cns4_234B
ENCODING 9035
SWIDTH 960 0
DWIDTH 24 0
BBX 24 24 0 -2
BITMAP
40000C
7FFFFE
600000
604300
6070C0
606060
60C030
618018
63001C
66000C
688060
60FFF0
60C060
60C060
60C060
60C060
60C060
60FFE0
608040
600000
600006
FFFFFF
400000
000000
ENDCHAR

STARTCHAR cns4_234C
ENCODING 9036
SWIDTH 960 0
DWIDTH 24 0
BBX 24 24 0 -2
BITMAP
000080
0030E0
FFF8C0
0C30C0
0C30C0
0C30C0
1830C0
1830F0
3030DC
2070CE
47E0C7
80C0C3
0000C0
4030C0
7FF8C0
6030C0
6030C0
6030C0
6030C0
6030C0
6030C0
7FF0C0
6020C0
400080
ENDCHAR

STARTCHAR cns4_234D
ENCODING 9037
SWIDTH 960 0
DWIDTH 24 0
BBX 24 24 0 -2
BITMAP
001000
001C00
001800
001818
001FFC
001800
001800
20180C
3FFFFE
30010C
3001CC
33038C
30C30C
30360C
301C0C
30360C
30630C
30C18C
3180CC
3600CC
30000C
3FFFFC
30000C
200008
ENDCHAR

STARTCHAR cns4_234E
ENCODING 9038
SWIDTH 960 0
DWIDTH 24 0
BBX 24 24 0 -2
BITMAP
000000
082106
0439FF
063186
033186
033186
106186
1C6186
186186
18C186
18C186
58D186
598986
598D86
DB0D86
DB0586
DE2186
1E21BE
1C218C
183180
1FF180
37E180
600180
800100
ENDCHAR

STARTCHAR cns4_234F
ENCODING 9039
SWIDTH 960 0
DWIDTH 24 0
BBX 24 24 0 -2
BITMAP
001000
001C00
001806
FFFFFF
001800
081830
0FFFF8
0C1830
0C1830
0C1830
0FFFF0
081820
001800
001860
1FFFF0
020060
0180C0
00C180
006300
003E00
00E380
0380F0
1C003F
E0000C
ENDCHAR

STARTCHAR cns4_2350
ENCODING 9040
SWIDTH 960 0
DWIDTH 24 0
BBX 24 24 0 -2
BITMAP
100018
1FFFFC
180018
180198
19FFD8
198198
198198
19FF98
198018
198018
18FFD8
100010
000000
000060
0FFFF0
010060
0080C0
006180
003600
001E00
007380
0380F0
1C003F
E00018
ENDCHAR

STARTCHAR cns4_2351
ENCODING 9041
SWIDTH 960 0
DWIDTH 24 0
BBX 24 24 0 -2
BITMAP
000100
0001C0
430180
7F8180
632186
633FFF
636186
636184
636188
630180
630180
630180
630360
630360
630360
630660
630662
7F0C62
620C62
401862
003063
00607F
00C03E
030000
ENDCHAR

STARTCHAR cns4_2352
ENCODING 9042
SWIDTH 960 0
DWIDTH 24 0
BBX 24 24 0 -2
BITMAP
000000
000006
433FFF
7F80C0
6300C0
6300C0
6310C6
631FFF
6318C6
6318C6
6318C6
6318C6
6318C6
6318C6
6318C6
6318C6
6318C6
7F18C6
6218C6
4018DE
0010C4
0000C0
0000C0
000080
ENDCHAR

STARTCHAR cns4_2353
ENCODING 9043
SWIDTH 960 0
DWIDTH 24 0
BBX 24 24 0 -2
BITMAP
000038
0001FC
433F00
7F8300
630300
630300
630318
637FFC
630300
630300
630300
630300
630306
63FFFF
630300
630300
630302
7F0302
620302
400302
000303
0003FF
0001FE
000000
ENDCHAR

STARTCHAR cns4_2354
ENCODING 9044
SWIDTH 960 0
DWIDTH 24 0
BBX 24 24 0 -2
BITMAP
00001C
0000FE
433F80
7F8180
630180
630180
630180
630180
630186
637FFF
630180
630340
630340
630340
630660
630620
630C30
7F0C30
621818
403018
00600C
00C00E
018007
060002
ENDCHAR

STARTCHAR cns4_2355
ENCODING 9045
SWIDTH 960 0
DWIDTH 24 0
BBX 24 24 0 -2
BITMAP
001000
001C00
431800
7F9806
631FFF
633006
632006
634406
630706
630606
630606
630C06
630C06
631886
631846
633066
6363B6
7F7C36
623036
400006
000006
00000E
0001FC
000018
ENDCHAR

STARTCHAR cns4_2356
ENCODING 9046
SWIDTH 960 0
DWIDTH 24 0
BBX 24 24 0 -2
BITMAP
000180
000040
430840
7F8E20
630C30
631818
63101C
63200E
634007
63BFFA
630600
630600
630C00
630C18
631FFC
630818
630018
7F0018
620018
400018
000018
000038
0007F0
000060
ENDCHAR

STARTCHAR cns4_2357
ENCODING 9047
SWIDTH 960 0
DWIDTH 24 0
BBX 24 24 0 -2
BITMAP
00001C
0010FE
431F80
7F9800
631800
631806
631FFF
631806
631806
631806
631806
631806
631FFE
631804
631800
631800
7F3000
623000
406000
006000
00C000
018000
030000
040000
ENDCHAR

STARTCHAR cns4_2358
ENCODING 9048
SWIDTH 960 0
DWIDTH 24 0
BBX 24 24 0 -2
BITMAP
000000
002006
433FFF
7FB000
633000
633000
63300C
633FFE
63320C
63320C
63320C
63320C
63330C
633118
633118
6331B0
6330F0
7F6060
6260E0
4041B0
00C318
00860C
010C07
023002
ENDCHAR

STARTCHAR cns4_2359
ENCODING 9049
SWIDTH 960 0
DWIDTH 24 0
BBX 24 24 0 -2
BITMAP
000040
000830
860E18
FF1C0C
C61806
C63007
C66003
C64010
C6901C
C61018
C61818
C60830
C60C30
C60460
C606C0
C60380
C60380
FE06C0
C40C60
801830
003018
00600E
018007
060002
ENDCHAR

STARTCHAR cns4_235A
ENCODING 9050
SWIDTH 960 0
DWIDTH 24 0
BBX 24 24 0 -2
BITMAP
0001E0
103FF0
1FFC00
180C00
180C00
180C18
1FFFFC
180600
180308
180188
18E0C8
1B806C
1E003C
0C0018
000000
0FFFF0
0C0030
0C0030
0C0030
0C0030
0C0030
0FFFF0
0C0020
080000
ENDCHAR

STARTCHAR cns4_235B
ENCODING 9051
SWIDTH 960 0
DWIDTH 24 0
BBX 24 24 0 -2
BITMAP
000000
080030
0FFFF8
0C0030
0C0030
0C0030
0C0030
0FFFF0
080020
000000
000030
1FFFF8
001800
001800
001800
001860
0FFFF0
001800
001800
001800
001800
001806
FFFFFF
000000
ENDCHAR

STARTCHAR cns4_235C
ENCODING 9052
SWIDTH 960 0
DWIDTH 24 0
BBX 24 24 0 -2
BITMAP
000000
00000C
007FFE
860C30
FF0C30
C60C30
C60C30
C60C30
C60C30
C60C30
C60C36
C6FFFF
C60C30
C60C30
C60C30
C60C30
FE0C30
C40C30
801830
001830
003030
006030
00C030
010020
ENDCHAR

STARTCHAR cns4_235D
ENCODING 9053
SWIDTH 960 0
DWIDTH 24 0
BBX 24 24 0 -2
BITMAP
020400
038700
070600
060600
0C060C
1E07FE
360600
460600
860602
060602
060603
0607FF
0603FE
040000
080030
0FFFF8
0C0030
0C0030
0C0030
0C0030
0C0030
0C0030
0FFFF0
080020
ENDCHAR

STARTCHAR cns4_235E
ENCODING 9054
SWIDTH 960 0
DWIDTH 24 0
BBX 24 24 0 -2
BITMAP
101020
1C1C38
181830
181830
181830
181830
1AFFFE
FF1830
181830
181830
181830
181830
181832
19FFFF
181830
181830
181830
181830
1F3030
F03030
606030
004030
008030
010020
ENDCHAR

STARTCHAR cns4_235F
ENCODING 9055
SWIDTH 960 0
DWIDTH 24 0
BBX 24 24 0 -2
BITMAP
000400
100300
1C0100
180180
184186
187FFF
186186
186186
FF6186
186346
186346
186266
186626
186436
186C36
18681E
187016
1F6006
F86006
606006
006006
006006
00607E
00400C
ENDCHAR

STARTCHAR cns4_2360
ENCODING 9056
SWIDTH 960 0
DWIDTH 24 0
BBX 24 24 0 -2
BITMAP
000018
3FFFFC
0C1800
0C1800
0C180C
1FFFFE
083600
006602
00C602
018603
0607FF
1803FE
E01000
001C00
001800
001830
1FFFF8
001800
001800
001800
001800
001806
FFFFFF
000000
ENDCHAR

STARTCHAR cns4_2361
ENCODING 9057
SWIDTH 960 0
DWIDTH 24 0
BBX 24 24 0 -2
BITMAP
00000C
7FFFFE
040810
070E1C
060C18
0C1830
183060
304180
1830C0
0C1830
060C18
03060C
020408
001000
001C00
001800
001818
3FFFFC
001800
001800
001800
001806
FFFFFF
000000
ENDCHAR

STARTCHAR cns4_2362
ENCODING 9058
SWIDTH 960 0
DWIDTH 24 0
BBX 24 24 0 -2
BITMAP
004000
007000
006006
FFFFFF
00C200
018180
030060
060038
0C001F
30000C
CFFFF0
0C1830
0C1830
0C1830
0C1830
0FFFF0
0C0000
0C0004
0C0004
0C0004
0C0006
0FFFFE
07FFFC
000000
ENDCHAR

STARTCHAR cns4_2363
ENCODING 9059
SWIDTH 960 0
DWIDTH 24 0
BBX 24 24 0 -2
BITMAP
004000
007000
006006
FFFFFF
00C100
0180C0
030070
0C101F
301C0C
C01800
001818
3FFFFC
001800
081820
0E1838
0C1830
0C1830
1FFFF0
081824
001804
001806
001FFE
000FFC
000000
ENDCHAR

STARTCHAR cns4_2364
ENCODING 9060
SWIDTH 960 0
DWIDTH 24 0
BBX 24 24 0 -2
BITMAP
002000
003800
003006
FFFFFF
006200
00C180
019060
031C38
0C380E
307606
C0C180
018060
030038
0D010F
31C1C6
C18182
018180
018180
018180
030180
030180
060180
040180
080100
ENDCHAR

STARTCHAR cns4_2365
ENCODING 9061
SWIDTH 960 0
DWIDTH 24 0
BBX 24 24 0 -2
BITMAP
001000
001C00
001800
001806
FFFFFF
001800
001800
101880
081840
041820
0E1870
0B1858
11988C
21B50C
403400
006200
006300
00C180
0180C0
030060
060030
0C001C
30000F
C00004
ENDCHAR

STARTCHAR cns4_2366
ENCODING 9062
SWIDTH 960 0
DWIDTH 24 0
BBX 24 24 0 -2
BITMAP
001000
001C00
003800
003006
FFFFFF
00C100
0180C0
030060
0C0038
30000F
CFFFF4
00C000
00C180
00FFC0
018180
018180
030180
030180
07FF80
020300
000300
000318
3FFFFC
000000
ENDCHAR

STARTCHAR cns4_2367
ENCODING 9063
SWIDTH 960 0
DWIDTH 24 0
BBX 24 24 0 -2
BITMAP
200080
3800E0
3200C0
3300C0
3300C4
FF9FFE
F300C0
3300C0
3300C0
3300C0
3300C2
333FFF
6300C0
6600C0
6601A0
F601A0
5C0330
0E0310
1B0618
138408
21880C
401006
802007
004002
ENDCHAR

STARTCHAR cns4_2368
ENCODING 9064
SWIDTH 960 0
DWIDTH 24 0
BBX 24 24 0 -2
BITMAP
000000
018200
FFC388
31830E
31830C
31830C
319FFF
31830C
31830C
31830C
FFE60C
31860C
318618
318C18
319F30
3189F0
318060
3180F0
3180D8
31818C
318306
FFE607
000C03
003000
ENDCHAR

STARTCHAR cns4_2369
ENCODING 9065
SWIDTH 960 0
DWIDTH 24 0
BBX 24 24 0 -2
BITMAP
200000
381006
301FFF
3318C6
3318C6
FF98C6
F318C6
3318C6
3318C6
3318C6
3318C6
331FFE
631804
661800
661800
F61800
5C1802
0E1802
1B1802
139802
219803
401FFF
800FFE
000000
ENDCHAR

STARTCHAR cns4_236A
ENCODING 9066
SWIDTH 960 0
DWIDTH 24 0
BBX 24 24 0 -2
BITMAP
200080
3800E0
3000C0
3200C0
3310C6
331FFF
FF98C6
F318C6
3318C6
3318C6
3318C6
6318C6
6318C6
631FFE
E618C4
5610C0
0C00C0
0E00C0
1B00C0
1980C0
3100C0
6000C0
8000C0
000080
ENDCHAR

STARTCHAR cns4_236B
ENCODING 9067
SWIDTH 960 0
DWIDTH 24 0
BBX 24 24 0 -2
BITMAP
200830
380FF8
300C30
320C30
330C30
330C30
FF8C30
F3183E
33181F
333000
334018
631FFC
630418
630418
E60618
560230
0C0330
0E01E0
1B00C0
1981E0
310330
60061C
80180F
006004
ENDCHAR

STARTCHAR cns4_236C
ENCODING 9068
SWIDTH 960 0
DWIDTH 24 0
BBX 24 24 0 -2
BITMAP
000040
0700F0
00E1C0
003F00
000E00
007BC0
03C0F0
1E2030
003800
006006
FFFFFF
00C000
018060
037FF0
0600C0
0C0180
300700
C0060C
0FFFFE
000600
000600
000600
007E00
000C00
ENDCHAR

STARTCHAR cns4_236D
ENCODING 9069
SWIDTH 960 0
DWIDTH 24 0
BBX 24 24 0 -2
BITMAP
018000
FFC00C
019FFE
03000C
060418
040330
0C01C0
0C00C0
0C0086
0C3FFF
0F00C6
3C00C6
EC00C4
4C00C8
0C00C0
0C00C0
0C00C0
0C00C0
0C00C0
0C00C0
0C00C0
0C00C0
7C0FC0
180180
ENDCHAR

STARTCHAR cns4_236E
ENCODING 9070
SWIDTH 960 0
DWIDTH 24 0
BBX 24 24 0 -2
BITMAP
003000
001800
201006
3FFFFF
600006
C00004
400008
3FFFFC
001800
001800
081818
0E1FFC
0C1818
0C1818
0C1818
1FFFF8
080018
000018
000018
000038
000030
000070
001FE0
0000C0
ENDCHAR

STARTCHAR cns4_236F
ENCODING 9071
SWIDTH 960 0
DWIDTH 24 0
BBX 24 24 0 -2
BITMAP
003000
001800
201006
3FFFFF
600006
E01004
C01C80
001860
001830
001820
001804
7FFFFE
001800
003400
003600
006200
006300
00C180
0180C0
030060
060030
0C001C
30000F
C00004
ENDCHAR

STARTCHAR cns4_2370
ENCODING 9072
SWIDTH 960 0
DWIDTH 24 0
BBX 24 24 0 -2
BITMAP
003000
001800
200806
3FFFFF
600806
E00E04
401C08
003200
006180
00C0C0
030070
0D011F
31C1CC
C18180
018180
018180
018180
018180
030180
030180
060180
0C0180
180180
200100
ENDCHAR

STARTCHAR cns4_2371
ENCODING 9073
SWIDTH 960 0
DWIDTH 24 0
BBX 24 24 0 -2
BITMAP
000020
018038
3FC030
000030
000030
000036
001FFF
000030
006030
FFF030
198430
198230
198330
198230
198030
198030
198032
3183F2
318062
318002
218003
61FFFF
40FFFE
800000
ENDCHAR

STARTCHAR cns4_2372
ENCODING 9074
SWIDTH 960 0
DWIDTH 24 0
BBX 24 24 0 -2
BITMAP
001000
001C00
041800
071860
0E1830
0C1818
18180C
30180E
601806
801000
000000
001000
001C00
201810
181818
0C3430
063420
046240
00C180
0180C0
030060
060038
18001F
E00008
ENDCHAR

STARTCHAR cns4_2373
ENCODING 9075
SWIDTH 960 0
DWIDTH 24 0
BBX 24 24 0 -2
BITMAP
040040
070070
060060
060060
060062
062FFF
FFF060
0D80E0
0D80F0
0D81E8
0D8368
0D8364
098666
198463
198862
199060
118060
318062
318062
218042
618003
41FFFF
40FFFE
800000
ENDCHAR

STARTCHAR cns4_2374
ENCODING 9076
SWIDTH 960 0
DWIDTH 24 0
BBX 24 24 0 -2
BITMAP
080000
0E0000
0C0100
0C01C0
0C0180
0C0188
FFE18C
1B0198
1B7DB0
1B0DC0
1B0DA0
1B0DB0
1B1998
1B198C
1B318E
1B2184
1B4180
130F82
330302
230002
230003
43FFFF
41FFFE
800000
ENDCHAR

STARTCHAR cns4_2375
ENCODING 9077
SWIDTH 960 0
DWIDTH 24 0
BBX 24 24 0 -2
BITMAP
001000
001C00
101810
1C181C
181818
183018
3FFFF8
106010
00C000
018000
030000
0C0C00
700600
00040C
7FFFFE
000000
010180
01C060
038030
070018
0C000C
18000E
300006
400000
ENDCHAR

STARTCHAR cns4_2376
ENCODING 9078
SWIDTH 960 0
DWIDTH 24 0
BBX 24 24 0 -2
BITMAP
001000
001C00
101810
1C181C
181818
183018
3FFFF8
10C010
018000
060018
3FFFFC
001800
001800
001800
001800
001830
1FFFF8
001800
001800
001800
001800
001806
FFFFFF
000000
ENDCHAR

STARTCHAR cns4_2377
ENCODING 9079
SWIDTH 960 0
DWIDTH 24 0
BBX 24 24 0 -2
BITMAP
001000
101C10
1C181C
181818
181818
3FFFF8
103010
006000
018600
040180
0700C0
0C0060
180030
30001C
6FFFEF
80C066
00C060
00C060
018060
030060
060060
0C00E0
301FC0
C00180
ENDCHAR

STARTCHAR cns4_2378
ENCODING 9080
SWIDTH 960 0
DWIDTH 24 0
BBX 24 24 0 -2
BITMAP
080800
0E0E00
0C0C00
0C0C0C
0C0FFE
4C8CC0
4CD8C0
4C90C0
4CA0C0
4C80C0
4C80C0
4C80C6
4CBFFF
4C80C0
4C80C0
4C80C0
4C80C0
4C80C0
4C80C0
7F80C0
4080C0
0000C0
0000C0
000080
ENDCHAR

STARTCHAR cns4_2379
ENCODING 9081
SWIDTH 960 0
DWIDTH 24 0
BBX 24 24 0 -2
BITMAP
001000
001C00
101810
1C181C
181818
181818
3FFFF8
100010
000000
000000
080030
0FFFF8
0C0030
0C0030
0C0030
0C0030
0FFFF0
0C0030
0C0030
0C0030
0C0030
0FFFF0
0C0020
080000
ENDCHAR

STARTCHAR cns4_237A
ENCODING 9082
SWIDTH 960 0
DWIDTH 24 0
BBX 24 24 0 -2
BITMAP
001000
001C00
101810
1C181C
181818
181818
3FFFF8
100010
000000
00C40C
23E7FE
3C060C
30060C
30060C
30060C
30060C
30060C
30660C
31C60C
3F060C
3C06FC
180618
000600
000400
ENDCHAR

STARTCHAR cns4_237B
ENCODING 9083
SWIDTH 960 0
DWIDTH 24 0
BBX 24 24 0 -2
BITMAP
001000
101C10
1C181C
181818
181818
3FFFF8
100010
004000
003000
001800
001030
3FFFF8
000070
0000E0
000380
000700
001C00
007000
01C000
070000
3E0000
33C000
00FFFF
003FFC
ENDCHAR

STARTCHAR cns4_237C
ENCODING 9084
SWIDTH 960 0
DWIDTH 24 0
BBX 24 24 0 -2
BITMAP
040100
0701C0
060180
060180
060188
06118E
46498C
766998
664D90
6645A0
664580
664180
6641C0
664340
664360
664320
664630
664610
664C10
FFCC18
40580C
00300E
006007
018002
ENDCHAR

STARTCHAR cns4_237D
ENCODING 9085
SWIDTH 960 0
DWIDTH 24 0
BBX 24 24 0 -2
BITMAP
001000
101C10
1C181C
181818
181818
3FFFF8
100010
000000
0001E0
101FF0
1FF000
180000
180000
18000C
1FFFFE
180300
180300
180300
100300
300300
200300
600300
400300
800200
ENDCHAR

STARTCHAR cns4_237E
ENCODING 9086
SWIDTH 960 0
DWIDTH 24 0
BBX 24 24 0 -2
BITMAP
100018
1FFFFC
180018
180018
180018
1FFFF8
180018
180018
180018
1FFFF8
100010
000000
081020
0E1C38
0C1830
183060
3060C0
60C180
3060C0
183060
0C1830
0C1830
060C18
040810
ENDCHAR

STARTCHAR cns4_2421
ENCODING 9249
SWIDTH 960 0
DWIDTH 24 0
BBX 24 24 0 -2
BITMAP
100080
1C00E0
1800C0
1800C0
9908D0
FF8EC8
990CC4
9918C6
9918C3
9930C3
9920C0
9940C4
9900C7
9900CE
99008C
990018
990030
990060
9F00C0
980180
180300
180C00
183000
10C000
ENDCHAR

STARTCHAR cns4_2422
ENCODING 9250
SWIDTH 960 0
DWIDTH 24 0
BBX 24 24 0 -2
BITMAP
080000
0E0018
0C3FFC
0C0C18
4C8C18
7FCC18
4C8C30
4C8C30
4C8C36
4C8FFF
4C8D06
4C8D06
4C8D06
4C8D8C
4C8C8C
4C8C98
4C98D8
4C9870
4F9060
4D30F0
0C2198
0C630C
0C4607
089802
ENDCHAR

STARTCHAR cns4_2423
ENCODING 9251
SWIDTH 960 0
DWIDTH 24 0
BBX 24 24 0 -2
BITMAP
0000F8
100FFC
1FF800
180000
18000C
1FFFFE
18000C
18000C
18000C
1FFFFC
180600
180600
1A060C
1BFFFE
1B060C
1B060C
1B060C
33060C
33060C
23060C
6306FC
420618
800600
000400
ENDCHAR

STARTCHAR cns4_2424
ENCODING 9252
SWIDTH 960 0
DWIDTH 24 0
BBX 24 24 0 -2
BITMAP
100200
1C0380
180300
180300
990330
FFBFF8
990300
990300
990300
990300
99030C
997FFE
990680
990680
9906C0
990CC0
9F0C60
9A1860
181830
183038
18601C
18C00E
188007
110002
ENDCHAR

STARTCHAR cns4_2425
ENCODING 9253
SWIDTH 960 0
DWIDTH 24 0
BBX 24 24 0 -2
BITMAP
001000
001C10
20181C
181818
0C1830
061860
031840
021880
20180C
3FFFFE
30180C
30980C
30FA0C
30D90C
31998C
3198CC
3318EC
36186C
34186C
38180C
30180C
30180C
3018FC
201018
ENDCHAR

STARTCHAR cns4_2426
ENCODING 9254
SWIDTH 960 0
DWIDTH 24 0
BBX 24 24 0 -2
BITMAP
000018
3FFFFC
001800
001800
001806
FFFFFF
001800
001800
101818
1FFFFC
181818
181818
181818
1FFFF8
181818
181818
181818
1FFFF8
101810
001800
001800
001800
001800
001000
ENDCHAR

STARTCHAR cns4_2427
ENCODING 9255
SWIDTH 960 0
DWIDTH 24 0
BBX 24 24 0 -2
BITMAP
000080
0800E0
0E00C0
0C00C0
1800C0
1808C8
310EC4
31CCC6
618CC3
C198C3
E318C3
3330C0
1E20C4
0640C7
0C00CE
19008C
188018
30C030
606060
C7E0C0
FC6180
604300
000C00
003000
ENDCHAR

STARTCHAR cns4_2428
ENCODING 9256
SWIDTH 960 0
DWIDTH 24 0
BBX 24 24 0 -2
BITMAP
001800
000C00
200406
3FFFFF
300400
300700
300600
300D00
3018C0
303060
306030
30C01C
31A04F
333862
3C3060
303060
303060
303060
302060
206060
204060
408060
410060
820040
ENDCHAR

STARTCHAR cns4_2429
ENCODING 9257
SWIDTH 960 0
DWIDTH 24 0
BBX 24 24 0 -2
BITMAP
000080
0000E0
0600C0
FF00C0
0600C0
0610C0
0C1CC0
1818C4
3018FE
7E18C0
2618C0
0618C0
0618C0
0618C0
0618C0
8618C0
6C18C6
3CFFFF
180000
1E0000
378000
21FFFF
407FFE
800000
ENDCHAR

STARTCHAR cns4_242A
ENCODING 9258
SWIDTH 960 0
DWIDTH 24 0
BBX 24 24 0 -2
BITMAP
007000
006030
00FFF8
01C030
033060
0C18C0
330D80
018600
005800
00E000
070000
780080
0200E0
0380C0
0300C0
0300C6
FFFFFF
0300C0
0600C0
0600C0
0C00C0
1800C0
3000C0
C00080
ENDCHAR

STARTCHAR cns4_242B
ENCODING 9259
SWIDTH 960 0
DWIDTH 24 0
BBX 24 24 0 -2
BITMAP
008100
20E1C0
38C190
30C188
30C18C
30C184
30C180
30DFFF
30C180
7FC180
20C180
00C180
00C180
3FC180
30C0C0
30C0C0
30C0C2
30C062
30C062
30C032
20C01A
60C00F
40C007
808002
ENDCHAR

STARTCHAR cns4_242C
ENCODING 9260
SWIDTH 960 0
DWIDTH 24 0
BBX 24 24 0 -2
BITMAP
080000
0E0006
0CFFFF
180180
100180
200180
440180
870180
060180
0C0180
0C0184
187FFE
180180
380180
580180
980180
180180
180180
180180
180180
180186
18FFFF
180000
100000
ENDCHAR

STARTCHAR cns4_242D
ENCODING 9261
SWIDTH 960 0
DWIDTH 24 0
BBX 24 24 0 -2
BITMAP
100100
1C01C0
180180
180180
18018C
1C7FFE
5A0180
5B0180
5B0180
D80180
D80180
D80182
18FFFF
180180
180340
180340
180620
180620
180C10
181818
18300C
18600E
18C007
130002
ENDCHAR

STARTCHAR cns4_242E
ENCODING 9262
SWIDTH 960 0
DWIDTH 24 0
BBX 24 24 0 -2
BITMAP
100100
1C01C0
180180
180186
18FFFF
1C0180
5A0180
5B4186
5B7FFF
D86186
D86186
D86186
186186
186186
186186
186186
186186
186186
1861BE
18418C
180180
180180
180180
100100
ENDCHAR

STARTCHAR cns4_242F
ENCODING 9263
SWIDTH 960 0
DWIDTH 24 0
BBX 24 24 0 -2
BITMAP
100000
1C100C
181FFE
181860
181860
1C1860
5A1860
5B3060
5B3060
D83066
D87FFF
D820E0
1801E0
180160
180360
180660
180C60
181860
183060
186060
18C060
190060
1807E0
1000C0
ENDCHAR

STARTCHAR cns4_2430
ENCODING 9264
SWIDTH 960 0
DWIDTH 24 0
BBX 24 24 0 -2
BITMAP
100000
1C4006
187FFF
186000
186000
1C6000
5A6000
5B600C
5A7FFE
D8640C
D8640C
98640C
186418
186218
186230
186130
1861E0
1840C0
18C1E0
188330
190618
1A0C0C
183007
10C002
ENDCHAR

STARTCHAR cns4_2431
ENCODING 9265
SWIDTH 960 0
DWIDTH 24 0
BBX 24 24 0 -2
BITMAP
008000
00E080
00C0E0
00C0C6
7FFFFF
0180C0
030180
060180
0FF300
040E00
0019C0
006070
038038
3C0018
003000
020C00
038620
130618
33004C
33004E
630066
E3FFE6
C1FFC0
000000
ENDCHAR

STARTCHAR cns4_2432
ENCODING 9266
SWIDTH 960 0
DWIDTH 24 0
BBX 24 24 0 -2
BITMAP
100010
1C601C
181830
180660
1803C0
1C0660
5A0C30
5B3018
5AC018
D80000
D80010
98201C
981018
181830
180C60
1806C0
180380
180380
1806C0
180C60
181830
18301C
18C00F
130006
ENDCHAR

STARTCHAR cns4_2433
ENCODING 9267
SWIDTH 960 0
DWIDTH 24 0
BBX 24 24 0 -2
BITMAP
100038
1C01FC
180F00
18F300
180300
1C0300
5A0300
5B0300
DA0300
D80306
99FFFF
180680
180680
1806C0
180C40
180C60
181820
181830
183010
186018
18C00C
19800E
1B0007
140002
ENDCHAR

STARTCHAR cns4_2434
ENCODING 9268
SWIDTH 960 0
DWIDTH 24 0
BBX 24 24 0 -2
BITMAP
0001C0
207FF0
3FC000
30000C
3FFFFE
30000C
30000C
30000C
3FFFFC
300000
320018
33FFFC
330018
330018
330018
33FFF8
330010
330004
230004
630004
430006
43FFFE
81FFFC
000000
ENDCHAR

STARTCHAR cns4_2435
ENCODING 9269
SWIDTH 960 0
DWIDTH 24 0
BBX 24 24 0 -2
BITMAP
100100
1C01C0
180180
18018C
187FFE
FF0180
180180
180180
180180
180188
183FFC
180180
1F0180
F80180
D80180
180182
18FFFF
180180
180180
180180
180180
180180
F80180
300100
ENDCHAR

STARTCHAR cns4_2436
ENCODING 9270
SWIDTH 960 0
DWIDTH 24 0
BBX 24 24 0 -2
BITMAP
100100
1C01C0
180180
180182
187FFF
FF0180
180180
180180
18218C
183FFE
18318C
18318C
1F318C
F8318C
D8318C
18318C
18318C
18318C
18318C
1831FC
182188
180180
F80180
300100
ENDCHAR

STARTCHAR cns4_2437
ENCODING 9271
SWIDTH 960 0
DWIDTH 24 0
BBX 24 24 0 -2
BITMAP
102000
1C3806
1831FF
183066
183066
FF3066
183066
19FE66
183066
183066
183066
183066
1F3066
F83066
D83066
183066
183066
183246
183CC6
183886
181106
18020E
F804FC
300818
ENDCHAR

STARTCHAR cns4_2438
ENCODING 9272
SWIDTH 960 0
DWIDTH 24 0
BBX 24 24 0 -2
BITMAP
100200
1C0380
180300
18030C
1803FE
180300
FF0300
180300
180318
18FFFC
181018
181018
1F1018
F80830
D80830
180460
1806C0
180380
180380
1806C0
180C70
18183C
F8600F
318002
ENDCHAR

STARTCHAR cns4_2439
ENCODING 9273
SWIDTH 960 0
DWIDTH 24 0
BBX 24 24 0 -2
BITMAP
100600
1C0300
180100
180180
184186
FF7FFF
186186
1861C6
186346
186366
186226
186636
1F6436
F86C1E
D8681E
187006
186006
186006
186006
186006
186006
186006
F8607E
30400C
ENDCHAR

STARTCHAR cns4_243A
ENCODING 9274
SWIDTH 960 0
DWIDTH 24 0
BBX 24 24 0 -2
BITMAP
102000
1C3800
183006
183FFF
186000
FF6000
184018
18BFFC
190000
180000
180030
18FFF8
1F0030
F80030
D80030
180030
180030
180031
180031
180019
180019
18000D
F80007
300003
ENDCHAR

STARTCHAR cns4_243B
ENCODING 9275
SWIDTH 960 0
DWIDTH 24 0
BBX 24 24 0 -2
BITMAP
101080
1C1CE0
1818C0
1818C0
1830C0
FF30C0
1820C0
1870C4
1870FE
18B0C0
18B0C0
1830C0
1E30C0
F830C0
D830C0
1830C0
1830C2
1830C2
1830C2
1830C2
1830C3
1830FF
F8307E
302000
ENDCHAR

STARTCHAR cns4_243C
ENCODING 9276
SWIDTH 960 0
DWIDTH 24 0
BBX 24 24 0 -2
BITMAP
100000
1C000C
187FFE
180180
190180
FF8180
180180
180180
180186
18FFFF
180180
180180
1F0370
F80360
D80360
180660
180662
180C62
180C62
181862
183063
18607F
F8C03E
330000
ENDCHAR

STARTCHAR cns4_243D
ENCODING 9277
SWIDTH 960 0
DWIDTH 24 0
BBX 24 24 0 -2
BITMAP
001800
00180C
7FFFFE
001800
001830
0FFFF8
030060
0180C0
00E300
003E00
007F00
01C1E0
07107F
1C1C0C
E01800
1FFFF8
181818
181818
181818
181818
181818
1819F8
101830
001000
ENDCHAR

STARTCHAR cns4_243E
ENCODING 9278
SWIDTH 960 0
DWIDTH 24 0
BBX 24 24 0 -2
BITMAP
000100
0041C0
7FE180
060180
060300
060306
0603FF
06060C
06050C
06290C
FFF10C
06010C
060118
060118
060098
0600B0
0600B0
060060
0600E0
0601B0
060318
06060C
060C07
043002
ENDCHAR

STARTCHAR cns4_243F
ENCODING 9279
SWIDTH 960 0
DWIDTH 24 0
BBX 24 24 0 -2
BITMAP
000200
000380
40C300
7FE300
60C600
60C606
60C7FF
60C418
60CA18
60CA18
7FD218
608218
600218
600330
600130
600160
6000E0
6040C0
6181E0
660330
7C0618
300C0C
003007
00C002
ENDCHAR

STARTCHAR cns4_2440
ENCODING 9280
SWIDTH 960 0
DWIDTH 24 0
BBX 24 24 0 -2
BITMAP
200100
3801C0
304180
3FE180
600300
400306
8003FF
00C20C
7FE70C
00C50C
01890C
03010C
060118
0C0118
180098
3040B0
6040B0
604060
C040E0
C061B0
FFE318
7FC60C
000C07
003002
ENDCHAR

STARTCHAR cns4_2441
ENCODING 9281
SWIDTH 960 0
DWIDTH 24 0
BBX 24 24 0 -2
BITMAP
100010
1C001C
180018
180418
18C318
1FE198
18C198
30C018
30C018
38C818
6CC618
478318
838318
018018
030018
03001A
063FFF
060018
0C0018
080018
100018
200018
400018
800010
ENDCHAR

STARTCHAR cns4_2442
ENCODING 9282
SWIDTH 960 0
DWIDTH 24 0
BBX 24 24 0 -2
BITMAP
100080
0800E0
0C00C0
0441E0
FFE1B0
300318
30060C
300C07
301882
3FA0E0
3180C0
3180C0
3180C0
3180C0
3180C0
3180C0
3180C0
3180C0
3180C0
2180C0
2180C0
4380C0
5F00C0
860080
ENDCHAR

STARTCHAR cns4_2443
ENCODING 9283
SWIDTH 960 0
DWIDTH 24 0
BBX 24 24 0 -2
BITMAP
000000
080030
0FFFF8
0C0030
0C0030
0C0030
0FFFF0
0C0030
0C0030
0C0030
0FFFF0
080000
020080
0380E0
0300C0
0300C6
FFFFFF
0300C0
0300C0
0600C0
0C00C0
1800C0
3000C0
C00080
ENDCHAR

STARTCHAR cns4_2444
ENCODING 9284
SWIDTH 960 0
DWIDTH 24 0
BBX 24 24 0 -2
BITMAP
000000
100018
1FFFFC
180018
180018
1FFFF8
180018
180018
1FFFF8
180010
103000
001800
000806
FFFFFF
0C0000
0C0000
0C0000
0C0000
0C0000
0C0000
0C0000
0FFFFC
07FFFE
000000
ENDCHAR

STARTCHAR cns4_2445
ENCODING 9285
SWIDTH 960 0
DWIDTH 24 0
BBX 24 24 0 -2
BITMAP
100400
1C0700
180600
180600
180600
FF0618
187FFC
180618
180618
3C0618
3A0618
7B1618
5B0E18
D80718
980798
980CD8
180CD8
181819
181819
183019
186019
18C01F
19800F
120000
ENDCHAR

STARTCHAR cns4_2446
ENCODING 9286
SWIDTH 960 0
DWIDTH 24 0
BBX 24 24 0 -2
BITMAP
001000
001C00
001800
001800
001818
3FFFFC
001800
101820
0C1830
061860
061840
001886
FFFFFF
003800
007C00
005B00
00D980
0198C0
031870
06183C
0C181F
301808
C01800
001000
ENDCHAR

STARTCHAR cns4_2447
ENCODING 9287
SWIDTH 960 0
DWIDTH 24 0
BBX 24 24 0 -2
BITMAP
080000
0E000C
0C1FFE
0C000C
0C000C
0C900C
FFDC0C
0C180C
0C180C
1C180C
1F1FFC
3D9808
2CD800
6CD800
4C1800
CC1800
8C1800
0C1802
0C1802
0C1802
0C1803
0C1FFF
0C0FFE
080000
ENDCHAR

STARTCHAR cns4_2448
ENCODING 9288
SWIDTH 960 0
DWIDTH 24 0
BBX 24 24 0 -2
BITMAP
080000
0E0100
0C01C0
0C0180
0C0180
0D8308
FFC30E
0C030C
0C061C
1C0C18
1E1C30
3D8760
2CC1C0
2C80C0
4C0180
4C0188
8C0304
0C0606
0C0C02
0C181F
0C7FF3
0C7F03
0C3000
080000
ENDCHAR

STARTCHAR cns4_2449
ENCODING 9289
SWIDTH 960 0
DWIDTH 24 0
BBX 24 24 0 -2
BITMAP
000080
0601E0
018380
006700
003E00
00E3C0
038070
1C1030
001D80
0018C0
001880
001806
FFFFFF
003800
007C00
00DB00
019980
0318E0
061838
0C181F
30180C
C01800
001800
001000
ENDCHAR

STARTCHAR cns4_244A
ENCODING 9290
SWIDTH 960 0
DWIDTH 24 0
BBX 24 24 0 -2
BITMAP
000400
000700
018600
FFC600
018606
018FFF
018CC6
0188C4
0198C8
4190C0
7FA0C0
6100C0
6000C0
6001A0
6001A0
6001A0
600330
608330
630610
6E0618
780C0C
30180E
003007
00C002
ENDCHAR

STARTCHAR cns4_244B
ENCODING 9291
SWIDTH 960 0
DWIDTH 24 0
BBX 24 24 0 -2
BITMAP
000200
000380
40C300
7FE300
60C606
60C7FF
60C4C6
60CCC4
60C8C8
7FD8C0
60D0C0
60A0C0
6000C0
6001A0
6001A0
6001A0
600330
600330
400610
400618
800C0C
80180E
003007
00C002
ENDCHAR

STARTCHAR cns4_244C
ENCODING 9292
SWIDTH 960 0
DWIDTH 24 0
BBX 24 24 0 -2
BITMAP
000100
0001C0
018180
FFC180
300180
300180
330186
3FBFFF
330180
330180
630180
7301C0
5F03C0
8E0340
060360
0C0620
0C0630
180C10
180C18
30180C
20300E
406007
80C002
030000
ENDCHAR

STARTCHAR cns4_244D
ENCODING 9293
SWIDTH 960 0
DWIDTH 24 0
BBX 24 24 0 -2
BITMAP
040000
070000
060000
07E00C
060FFE
26040C
36040C
36C40C
3FE418
30C618
30C218
20C230
58C330
4CC160
86C160
0580E0
0181A0
030330
030610
060C18
0C180C
18300E
306007
C18002
ENDCHAR

STARTCHAR cns4_244E
ENCODING 9294
SWIDTH 960 0
DWIDTH 24 0
BBX 24 24 0 -2
BITMAP
018000
07C000
7C0818
0C0FFC
0C0C18
0C0C18
0D8C18
FFCC18
0C0C18
0C0C18
0C0C18
0C0C18
0D8C18
FFCC18
0C0C18
0C0C18
0C0FF8
0C0C12
0C0802
0C0002
0C0003
0FFFFF
07FFFE
000000
ENDCHAR

STARTCHAR cns4_244F
ENCODING 9295
SWIDTH 960 0
DWIDTH 24 0
BBX 24 24 0 -2
BITMAP
008006
20FFFF
18C000
0CC100
08C1C0
00C180
00C180
82C180
42C180
64C180
44C1C0
0CC140
08C140
18C360
18C360
30C320
F08630
618610
618610
618C18
310C0C
33180E
323007
304002
ENDCHAR

STARTCHAR cns4_2450
ENCODING 9296
SWIDTH 960 0
DWIDTH 24 0
BBX 24 24 0 -2
BITMAP
000100
2001C0
180180
0C0180
080180
000180
000180
820180
422180
643980
44318C
0C31FE
083180
183180
183180
306180
F06180
605980
60CD80
60C780
308380
3181FF
31007C
320000
ENDCHAR

STARTCHAR cns4_2451
ENCODING 9297
SWIDTH 960 0
DWIDTH 24 0
BBX 24 24 0 -2
BITMAP
000000
100006
0C7FFF
0600C0
0400C0
000180
000180
410300
2103C0
320780
2205A0
060D98
04198C
0C3186
0C2186
184183
F88183
700180
300180
300180
180180
180180
180180
180100
ENDCHAR

STARTCHAR cns4_2452
ENCODING 9298
SWIDTH 960 0
DWIDTH 24 0
BBX 24 24 0 -2
BITMAP
000040
07FFE0
001800
001800
001800
001806
7FFFFF
001800
001800
001800
001000
001C00
101810
0C181C
061830
033420
023640
006200
00C300
018180
0300C0
060070
18001F
E0000C
ENDCHAR

STARTCHAR cns4_2453
ENCODING 9299
SWIDTH 960 0
DWIDTH 24 0
BBX 24 24 0 -2
BITMAP
001000
001C00
001800
001806
FFFFFF
003400
006200
00C180
0180E0
061038
181C1F
E01804
001820
081838
061860
0330C0
023600
006180
00C0C0
018070
030038
0C001C
30000E
C00006
ENDCHAR

STARTCHAR cns4_2454
ENCODING 9300
SWIDTH 960 0
DWIDTH 24 0
BBX 24 24 0 -2
BITMAP
080200
0E0380
0C0300
0C0300
0C8300
FFC308
0C030E
0C430C
0C3318
0C1330
0C1B20
0C1340
0F8300
FC0680
6C06C0
0C0640
0C0C60
0C0C60
0C1830
0C1818
0C3018
0C600C
7CC00F
190004
ENDCHAR

STARTCHAR cns4_2455
ENCODING 9301
SWIDTH 960 0
DWIDTH 24 0
BBX 24 24 0 -2
BITMAP
082008
0E390E
0C31CC
6C318C
6C318C
6C318C
7FB18C
4C318C
4C318C
8C318C
0C318C
0C318C
0FB18C
FC318C
CC318C
0C318C
0C318C
0C318C
0C618C
0C618C
0CC10C
0C800C
0D000C
080008
ENDCHAR

STARTCHAR cns4_2456
ENCODING 9302
SWIDTH 960 0
DWIDTH 24 0
BBX 24 24 0 -2
BITMAP
040200
870380
660300
3C0300
1C030C
183FFE
1C030C
34030C
66030C
46030C
8E030C
0E030C
1EFFFF
160600
360680
260660
460C30
860C18
06180C
061806
063006
0E6003
FCC003
190000
ENDCHAR

STARTCHAR cns4_2457
ENCODING 9303
SWIDTH 960 0
DWIDTH 24 0
BBX 24 24 0 -2
BITMAP
042040
873870
663060
3C3060
1C3060
183060
1C3060
34326C
663F7E
463060
8E3060
0E3060
1E3060
163060
363060
263060
463062
863062
063062
063062
063363
0E3C7F
FC183E
180000
ENDCHAR

STARTCHAR cns4_2458
ENCODING 9304
SWIDTH 960 0
DWIDTH 24 0
BBX 24 24 0 -2
BITMAP
040000
87100C
661FFE
3C180C
1C180C
18180C
1C180C
34180C
66180C
46180C
8E180C
0E1FFC
1E180C
16180C
36180C
26180C
46180C
86180C
06180C
06180C
06180C
0E1FFC
FC1808
181000
ENDCHAR

STARTCHAR cns4_2459
ENCODING 9305
SWIDTH 960 0
DWIDTH 24 0
BBX 24 24 0 -2
BITMAP
040018
87207C
663FC0
3C30C0
1C30C0
1830C0
1C30C0
3430C0
6630CC
463FFE
8E30C0
0E30C0
1E30C0
1630C0
363060
263060
463060
863032
063032
06301A
06319A
0E3E0F
FC1807
180002
ENDCHAR

STARTCHAR cns4_245A
ENCODING 9306
SWIDTH 960 0
DWIDTH 24 0
BBX 24 24 0 -2
BITMAP
040100
8701C0
660180
3C0180
1C2186
183FFF
1C6186
34C184
664188
460180
8E0180
0E0380
1E03E0
1602C0
3606C0
2606C0
460CC2
860CC2
0618C2
0618C2
0630C3
0E60FF
FCC07E
190000
ENDCHAR

STARTCHAR cns4_245B
ENCODING 9307
SWIDTH 960 0
DWIDTH 24 0
BBX 24 24 0 -2
BITMAP
020000
43A00C
333FFE
1E318C
0E318C
0C318C
0E318C
1A318C
33318C
63318C
87318C
073FFC
0F3008
0B3000
1B3000
133000
233002
433002
033002
033002
033003
073FFF
7E1FFE
0C0000
ENDCHAR

STARTCHAR cns4_245C
ENCODING 9308
SWIDTH 960 0
DWIDTH 24 0
BBX 24 24 0 -2
BITMAP
000000
000030
013FF8
FF8C30
180C30
180C30
180C30
180C30
180C30
190C30
FF8D30
183FB0
180C30
180C30
180C30
180C30
180C32
180C32
180C32
1F8C32
F80C33
600C3F
000C1E
000800
ENDCHAR

STARTCHAR cns4_245D
ENCODING 9309
SWIDTH 960 0
DWIDTH 24 0
BBX 24 24 0 -2
BITMAP
000100
0001C0
020180
FF0180
180180
180180
180180
180180
18018C
1A7FFE
FF0180
180180
180180
180180
180180
180180
180180
180180
1F0180
F80180
C00180
000186
00FFFF
000000
ENDCHAR

STARTCHAR cns4_245E
ENCODING 9310
SWIDTH 960 0
DWIDTH 24 0
BBX 24 24 0 -2
BITMAP
000000
00000C
017FFE
FF8C00
0C0C00
0C0C00
0C0C30
0C0FF8
0C0C30
0C0C30
0C0E30
0C0D30
0C0DB0
0C0CB0
0C0CF0
0C18B0
0C1830
0C1830
0C1832
0C1B9A
0C1E1A
7C780E
183007
000003
ENDCHAR

STARTCHAR cns4_245F
ENCODING 9311
SWIDTH 960 0
DWIDTH 24 0
BBX 24 24 0 -2
BITMAP
000000
000000
40C104
7FE1C7
64C186
64C30C
64C30C
64C618
64C618
64CC30
64CC30
7FD860
64C820
64CC30
64C618
64C618
64C30C
64C30C
64C186
7FC1C7
608082
400000
000000
000000
ENDCHAR

STARTCHAR cns4_2460
ENCODING 9312
SWIDTH 960 0
DWIDTH 24 0
BBX 24 24 0 -2
BITMAP
000C00
000600
080406
0FFFFF
8C0000
4C0000
6C0030
3CFFF8
2C2030
0C2030
0C3060
0C1060
0C18C0
3C08C0
EC0D80
4C0700
0C0700
0C0D80
1818C0
183060
106030
30C01C
21800F
460004
ENDCHAR

STARTCHAR cns4_2461
ENCODING 9313
SWIDTH 960 0
DWIDTH 24 0
BBX 24 24 0 -2
BITMAP
000C00
000600
080406
0FFFFF
0C0000
8C0020
4C0038
6C4030
3C7030
2C6030
0C6030
0C6030
0C6030
1C6030
2C6030
ECFFF0
4C4030
0C0030
180030
180030
100030
300030
200030
400020
ENDCHAR

STARTCHAR cns4_2462
ENCODING 9314
SWIDTH 960 0
DWIDTH 24 0
BBX 24 24 0 -2
BITMAP
000C00
000600
080406
0FFFFF
0C0000
8C0000
4C000C
6DFFFE
3C0C00
2C0C00
0C1800
0C1800
0C3018
1C7FFC
3C2018
EC0018
4C0018
0C0018
180018
180038
300030
200070
400FE0
8000C0
ENDCHAR

STARTCHAR cns4_2463
ENCODING 9315
SWIDTH 960 0
DWIDTH 24 0
BBX 24 24 0 -2
BITMAP
000020
00C870
7FE4C4
00C70E
30C318
1981A0
0B00C0
060060
0C0038
18001F
37FFCC
C600C0
0600C0
0600C0
0600C0
0600C0
063FC8
060188
060008
060008
06000C
07FFFC
03FFF8
000000
ENDCHAR

STARTCHAR cns4_2464
ENCODING 9316
SWIDTH 960 0
DWIDTH 24 0
BBX 24 24 0 -2
BITMAP
000008
41800E
7FC80C
618E0C
618C0C
618C0C
618C0C
618C0C
7F8C0C
618C0C
618C0C
618C0C
618C0C
618C0C
7F8C0C
618C0C
618C0C
619FFC
61880C
61800C
7F800C
61000C
40000C
000008
ENDCHAR

STARTCHAR cns4_2465
ENCODING 9317
SWIDTH 960 0
DWIDTH 24 0
BBX 24 24 0 -2
BITMAP
040000
070000
060000
060006
07FFFF
0C0006
0C0006
180306
1FFF86
360306
660306
87FF06
060306
060306
07FF06
060306
060306
060306
07FF06
06020E
04000C
00001C
0003F8
000070
ENDCHAR

STARTCHAR cns4_2466
ENCODING 9318
SWIDTH 960 0
DWIDTH 24 0
BBX 24 24 0 -2
BITMAP
040030
07FFF8
060030
060030
07FFF0
060030
060030
07FFF0
060030
060030
07FFF0
000020
070000
060000
060030
07FFF8
060000
060000
060004
060004
060006
07FFFE
03FFFC
000000
ENDCHAR

STARTCHAR cns4_2467
ENCODING 9319
SWIDTH 960 0
DWIDTH 24 0
BBX 24 24 0 -2
BITMAP
000000
001018
019FFC
FFD818
181818
181818
181818
181818
301818
319818
3FD818
719818
719818
B199F8
319870
319800
319804
319804
3F9804
311804
201806
001FFE
000FFC
000000
ENDCHAR

STARTCHAR cns4_2468
ENCODING 9320
SWIDTH 960 0
DWIDTH 24 0
BBX 24 24 0 -2
BITMAP
0001E0
003FF0
0FF800
001800
001800
00180C
7FFFFE
003800
007E00
00D9C0
031870
0C181C
30100E
C00006
001000
001C00
001800
003400
006300
00C180
0180E0
060038
18001F
E00008
ENDCHAR

STARTCHAR cns4_2469
ENCODING 9321
SWIDTH 960 0
DWIDTH 24 0
BBX 24 24 0 -2
BITMAP
003000
001800
201006
3FFFFF
60C306
C0C304
418300
0303FE
0C01FF
700000
000000
000006
FFFFFF
001800
001800
001800
001800
001800
001800
001800
001800
001800
01F800
003000
ENDCHAR

STARTCHAR cns4_246A
ENCODING 9322
SWIDTH 960 0
DWIDTH 24 0
BBX 24 24 0 -2
BITMAP
000000
20000C
3FFFFE
30C30C
30C30C
30C30C
30C30C
3FFFFC
200008
000000
000006
FFFFFF
001800
001800
001800
001800
001800
001800
001800
001800
001800
001800
01F800
003000
ENDCHAR

STARTCHAR cns4_246B
ENCODING 9323
SWIDTH 960 0
DWIDTH 24 0
BBX 24 24 0 -2
BITMAP
100018
1FFFFC
181018
181C18
181818
183618
186318
18C198
1B0118
180038
103010
001800
000C00
00080C
7FFFFE
0C0000
0C0000
0C0000
0C0000
0C0000
0C0000
0FFFFC
07FFFE
000000
ENDCHAR

STARTCHAR cns4_246C
ENCODING 9324
SWIDTH 960 0
DWIDTH 24 0
BBX 24 24 0 -2
BITMAP
020080
0380E0
0300C0
0300CC
7F00FE
0300C0
0310C0
021C80
001800
001830
1FFFF8
001800
001800
001800
001800
001806
FFFFFF
001800
001800
001800
001800
001800
001800
001000
ENDCHAR

STARTCHAR cns4_246D
ENCODING 9325
SWIDTH 960 0
DWIDTH 24 0
BBX 24 24 0 -2
BITMAP
000000
00C000
FFE00C
318FFE
31800C
318018
318018
3F8030
318030
318060
3180C0
3180C0
3F8180
318300
318300
318600
318C02
318C02
379802
F99802
619803
019FFF
018FFE
010000
ENDCHAR

STARTCHAR cns4_246E
ENCODING 9326
SWIDTH 960 0
DWIDTH 24 0
BBX 24 24 0 -2
BITMAP
43000C
7FBFFE
630180
630180
630180
630180
7B0180
6F0180
630180
630186
637FFF
630180
630180
6F0180
7B0180
630180
630180
630180
630180
630180
430180
430180
9F1F80
860300
ENDCHAR

STARTCHAR cns4_246F
ENCODING 9327
SWIDTH 960 0
DWIDTH 24 0
BBX 24 24 0 -2
BITMAP
430000
7F9030
631FF8
631830
631830
631830
7B1830
6F1C30
631A30
631B30
6319B0
6319B0
6318B0
6F1830
7B1830
631830
631832
631832
633032
433032
433033
83203F
9F401E
068000
ENDCHAR

STARTCHAR cns4_2470
ENCODING 9328
SWIDTH 960 0
DWIDTH 24 0
BBX 24 24 0 -2
BITMAP
000000
430008
7F820E
63018C
6308CC
63088C
63080C
7B0C0C
6F040C
63040C
630618
630218
630318
6F0130
7B01B0
6300E0
6300E0
6301F0
6301B8
43031C
43060E
830C07
9F3002
06C000
ENDCHAR

STARTCHAR cns4_2471
ENCODING 9329
SWIDTH 960 0
DWIDTH 24 0
BBX 24 24 0 -2
BITMAP
000000
200018
3FFFFC
300C00
300C00
300C00
300C00
320C30
33FFF8
330030
330030
330030
330030
330030
33FFF0
320C20
300C00
300C00
300C00
300C00
300C0C
7FFFFE
200000
000000
ENDCHAR

STARTCHAR cns4_2472
ENCODING 9330
SWIDTH 960 0
DWIDTH 24 0
BBX 24 24 0 -2
BITMAP
000000
00000C
7FFFFE
00C000
00C000
018000
0B0030
0FFFF8
0C0030
0C0030
0C0030
0FFFF0
0C0030
0C0030
0C0030
0C0030
0FFFF0
0C0030
0C0030
0C0030
0C0030
0FFFF0
0C0020
080000
ENDCHAR

STARTCHAR cns4_2473
ENCODING 9331
SWIDTH 960 0
DWIDTH 24 0
BBX 24 24 0 -2
BITMAP
040200
070380
0C0300
186300
7FF300
606300
606300
606300
606300
7FE300
606300
606300
606300
606300
606300
7FE300
606302
606302
606302
606302
606303
7FE3FF
6041FE
400000
ENDCHAR

STARTCHAR cns4_2474
ENCODING 9332
SWIDTH 960 0
DWIDTH 24 0
BBX 24 24 0 -2
BITMAP
006000
00F000
118000
1E0018
180FFC
180018
180018
180018
180018
180018
180018
180018
1FE7F8
180018
180018
180018
180018
180018
180018
180018
180018
1FE7F8
180010
100000
ENDCHAR

STARTCHAR cns4_2475
ENCODING 9333
SWIDTH 960 0
DWIDTH 24 0
BBX 24 24 0 -2
BITMAP
040040
070070
060062
FFE7FF
060060
060060
040040
000000
1FFFF8
001800
001800
001800
001800
001806
FFFFFF
001800
001800
001800
001800
001800
001800
001800
001800
001000
ENDCHAR

STARTCHAR cns4_2476
ENCODING 9334
SWIDTH 960 0
DWIDTH 24 0
BBX 24 24 0 -2
BITMAP
040040
070070
064062
FFE7FF
060060
060060
040040
000000
7FFFC0
0180C0
0180C0
0180C0
0180C0
0184C0
7FFEC0
0180C0
0180C2
0180C2
0180C2
0180C2
0180C3
0180FF
01807E
010000
ENDCHAR

STARTCHAR cns4_2477
ENCODING 9335
SWIDTH 960 0
DWIDTH 24 0
BBX 24 24 0 -2
BITMAP
040040
070070
064062
FFE7FF
060060
060860
040E40
000C00
000C00
000C0C
7FFFFE
000C00
001C00
003C00
006C00
00CC00
018C00
030C00
060C00
0C0C00
300C00
C00C00
000C00
000800
ENDCHAR

STARTCHAR cns4_2478
ENCODING 9336
SWIDTH 960 0
DWIDTH 24 0
BBX 24 24 0 -2
BITMAP
040040
070070
064062
FFE7FF
060060
060060
040040
00000C
7FFFFE
00C300
00C300
00C300
00C300
00C300
00C300
018300
018300
030302
030302
060302
0C0303
1803FF
3001FE
C00000
ENDCHAR

STARTCHAR cns4_2479
ENCODING 9337
SWIDTH 960 0
DWIDTH 24 0
BBX 24 24 0 -2
BITMAP
040040
070070
064062
FFE7FF
060060
060060
041040
001C00
001800
001800
001806
FFFFFF
001800
001800
003400
003600
006300
00C180
0180C0
030060
060030
0C001C
30000F
C00004
ENDCHAR

STARTCHAR cns4_247A
ENCODING 9338
SWIDTH 960 0
DWIDTH 24 0
BBX 24 24 0 -2
BITMAP
040040
070070
064062
FFE7FF
060060
060060
040040
000000
000000
080030
0FFFF8
0C0030
0C0030
0C0030
0C0030
0C0030
0C0030
0C0030
0C0030
0C0030
0FFFF0
0C0030
0C0020
080000
ENDCHAR

STARTCHAR cns4_247B
ENCODING 9339
SWIDTH 960 0
DWIDTH 24 0
BBX 24 24 0 -2
BITMAP
040040
070070
060060
FFE7FF
060060
061060
041C40
001800
101818
1FFFFC
181818
181818
181818
181818
181818
181818
181818
181818
181818
1819F8
101830
001800
001800
001000
ENDCHAR

STARTCHAR cns4_247C
ENCODING 9340
SWIDTH 960 0
DWIDTH 24 0
BBX 24 24 0 -2
BITMAP
040040
070070
064062
FFE7FF
060060
060060
040000
0001F0
001FF8
1FF000
003000
003000
003000
003006
FFFFFF
003000
003000
003004
003004
003004
003006
003FFE
001FFC
000000
ENDCHAR

STARTCHAR cns4_247D
ENCODING 9341
SWIDTH 960 0
DWIDTH 24 0
BBX 24 24 0 -2
BITMAP
060060
064062
FFE7FF
060060
040060
070040
06000C
07FFFE
0C0000
180000
100030
27FFF8
400070
0001C0
000700
001C00
007000
01C004
030004
060004
0C0006
0FFFFE
07FFFC
000000
ENDCHAR

STARTCHAR cns4_247E
ENCODING 9342
SWIDTH 960 0
DWIDTH 24 0
BBX 24 24 0 -2
BITMAP
000400
000300
400180
3000C0
18008C
18FFFE
003000
183000
FC3000
183000
183000
303000
243000
7E3000
0C3000
0C3000
0C3000
183FFC
181FFE
300000
FC0000
C78000
01FFFF
007FFC
ENDCHAR

STARTCHAR cns4_2521
ENCODING 9505
SWIDTH 960 0
DWIDTH 24 0
BBX 24 24 0 -2
BITMAP
000000
00000C
403FFE
300180
180180
180180
000180
180180
FC0186
187FFF
180180
300180
240180
7E0180
0C0180
0C0180
0C0180
180180
180180
300180
FC0100
C78000
01FFFF
007FFC
ENDCHAR

STARTCHAR cns4_2522
ENCODING 9506
SWIDTH 960 0
DWIDTH 24 0
BBX 24 24 0 -2
BITMAP
000000
000000
40000C
307FFE
180C30
180C30
000C30
180C30
FC0C30
180C30
180C30
300C30
240C30
7E0C30
0C0C30
0C1830
0C1830
181030
183030
302030
FC4020
C78000
01FFFF
007FFC
ENDCHAR

STARTCHAR cns4_2523
ENCODING 9507
SWIDTH 960 0
DWIDTH 24 0
BBX 24 24 0 -2
BITMAP
000000
400018
303FFC
180000
180000
000006
00FFFF
0C0C00
FE0C00
0C180C
0C3FFE
18100C
30000C
7E000C
060018
060018
060030
0C07E0
0C00C0
180000
FE0000
C3C000
00FFFF
003FFC
ENDCHAR

STARTCHAR cns4_2524
ENCODING 9508
SWIDTH 960 0
DWIDTH 24 0
BBX 24 24 0 -2
BITMAP
000000
400000
302018
183FFC
183018
003018
003018
0C3018
FE3018
0C3018
0C3FF8
183010
303000
7E3004
063004
063004
063006
0C3FFE
0C1FFC
180000
FE0000
C3C000
00FFFF
003FFC
ENDCHAR

STARTCHAR cns4_2525
ENCODING 9509
SWIDTH 960 0
DWIDTH 24 0
BBX 24 24 0 -2
BITMAP
00010C
0061FE
7FF18C
0C618C
0C618C
0C6198
0C6190
0C61A0
0C6198
0C618C
FFFD86
186186
186183
186183
186183
186183
186183
186187
1861BE
18618C
186980
FFFD80
000180
000100
ENDCHAR

STARTCHAR cns4_2526
ENCODING 9510
SWIDTH 960 0
DWIDTH 24 0
BBX 24 24 0 -2
BITMAP
020106
0381FF
030186
03018C
03318C
7FF998
030190
0301A0
030198
03318C
7FF986
003186
203183
106183
186183
0CC183
078183
078187
06C1BE
0C618C
187180
303180
602180
800100
ENDCHAR

STARTCHAR cns4_2527
ENCODING 9511
SWIDTH 960 0
DWIDTH 24 0
BBX 24 24 0 -2
BITMAP
020106
0381FF
030186
03198C
FFFD8C
030198
030190
4319A0
7FFD98
63198C
631986
631986
631983
631983
631983
631983
631983
637987
6331BE
43018C
030180
030180
030180
020100
ENDCHAR

STARTCHAR cns4_2528
ENCODING 9512
SWIDTH 960 0
DWIDTH 24 0
BBX 24 24 0 -2
BITMAP
01010C
01C1FE
01818C
01818C
01818C
11B198
1D9990
198DA0
198D98
31878C
318586
61A186
81B983
013183
007183
006183
00C183
018187
0301BE
06018C
0C0180
300180
C00180
000100
ENDCHAR

STARTCHAR cns4_2529
ENCODING 9513
SWIDTH 960 0
DWIDTH 24 0
BBX 24 24 0 -2
BITMAP
000106
0001FF
001986
FFFD8C
06018C
060198
0C4190
0C71A0
186190
30C188
70C18C
198186
0F0186
070183
060183
0C4183
182183
303187
61F9BE
FF198C
FC1980
600180
000180
000100
ENDCHAR

STARTCHAR cns4_252A
ENCODING 9514
SWIDTH 960 0
DWIDTH 24 0
BBX 24 24 0 -2
BITMAP
000106
00C1FF
03E186
7E018C
06018C
060198
060190
0601A0
060190
063188
FFF98C
060186
060186
060183
060183
060183
060183
060187
07F1BE
FF018C
780180
200180
000180
000100
ENDCHAR

STARTCHAR cns4_252B
ENCODING 9515
SWIDTH 960 0
DWIDTH 24 0
BBX 24 24 0 -2
BITMAP
020060
03FFF0
030000
030000
0300C0
03FFE0
030000
030000
0300C0
03FFE0
030000
030000
03000C
7FFFFE
008000
01E000
018080
030060
060030
0C0018
180FFC
7FFC0C
3F000C
180000
ENDCHAR

STARTCHAR cns4_252C
ENCODING 9516
SWIDTH 960 0
DWIDTH 24 0
BBX 24 24 0 -2
BITMAP
861000
FF1C00
C61806
C61FFF
C63000
CC3000
C82018
D07FFC
C88000
CC0000
C60018
C67FFC
C30030
C30060
C30180
C30300
C70604
FE0C04
CC1804
C03004
C06006
C07FFE
C03FFC
800000
ENDCHAR

STARTCHAR cns4_252D
ENCODING 9517
SWIDTH 960 0
DWIDTH 24 0
BBX 24 24 0 -2
BITMAP
860000
FF0830
C60FF8
C60C30
C60C30
CC0C30
C80C30
D01830
C8103E
CC201F
C64000
C60018
C33FFC
C30818
C30818
C30430
C70630
FE0360
CC01C0
C003C0
C00660
C00C38
C0301F
80C00C
ENDCHAR

STARTCHAR cns4_252E
ENCODING 9518
SWIDTH 960 0
DWIDTH 24 0
BBX 24 24 0 -2
BITMAP
430100
7F81C0
630180
630180
630180
660184
640987
687D86
640D8C
660D88
630DD0
630DA0
618DA0
6199B0
619990
619998
63B198
7F318C
66618E
60C187
618184
620180
601F80
400300
ENDCHAR

STARTCHAR cns4_252F
ENCODING 9519
SWIDTH 960 0
DWIDTH 24 0
BBX 24 24 0 -2
BITMAP
100010
1C821C
18E398
18C318
18C318
18C318
18C318
18C318
1FC7F8
188218
180018
1BFFD8
180018
18C218
1FE3F8
18C318
18C318
18C318
30C318
30C318
20C318
60C318
408218
800010
ENDCHAR

STARTCHAR cns4_2530
ENCODING 9520
SWIDTH 960 0
DWIDTH 24 0
BBX 24 24 0 -2
BITMAP
0C0200
060380
022300
FFF300
008300
40E300
20C300
118300
190300
0A2300
FFF300
060300
060300
060300
060300
7FE300
060302
060302
060302
060302
060303
0603FF
0601FE
040000
ENDCHAR

STARTCHAR cns4_2531
ENCODING 9521
SWIDTH 960 0
DWIDTH 24 0
BBX 24 24 0 -2
BITMAP
04000C
07087E
064FC0
FFEC00
060C06
060FFF
07CC18
FE0C18
660C18
061818
061018
3E2018
0C4010
0000C0
1FFFE0
000180
000E00
003004
00C004
030004
0C0004
380006
3FFFFE
1FFFFC
ENDCHAR

STARTCHAR cns4_2532
ENCODING 9522
SWIDTH 960 0
DWIDTH 24 0
BBX 24 24 0 -2
BITMAP
00000C
7FFFFE
000000
080080
0E00E0
0C00C0
180180
310190
61C31C
318618
1B0330
0F01E0
0600E0
0D00C8
188184
30C306
63E63F
FE6FE3
E06E03
600600
000000
000006
FFFFFF
000000
ENDCHAR

STARTCHAR cns4_2533
ENCODING 9523
SWIDTH 960 0
DWIDTH 24 0
BBX 24 24 0 -2
BITMAP
001000
001C00
001800
001818
3FFFFC
001800
101808
1FFFFC
18181C
181818
183818
187CF8
10DB30
0399C0
0C1870
30181F
C0180C
001000
1FFFF8
000000
000000
000006
FFFFFF
000000
ENDCHAR

STARTCHAR cns4_2534
ENCODING 9524
SWIDTH 960 0
DWIDTH 24 0
BBX 24 24 0 -2
BITMAP
004000
003000
001800
001C00
000806
FFFFFF
000000
000000
20000C
3FFFFE
30000C
31018C
31FFCC
31818C
31818C
31818C
31818C
31FF8C
31010C
30000C
30000C
3FFFFC
30000C
200008
ENDCHAR

STARTCHAR cns4_2535
ENCODING 9525
SWIDTH 960 0
DWIDTH 24 0
BBX 24 24 0 -2
BITMAP
040040
070070
060060
060060
060060
0E00E0
0D80D8
18C18C
106106
204203
400402
840840
070070
060060
060060
060060
0E0060
0D00D0
0C80D0
18C198
10610C
20620E
404407
800802
ENDCHAR

STARTCHAR cns4_2536
ENCODING 9526
SWIDTH 960 0
DWIDTH 24 0
BBX 24 24 0 -2
BITMAP
040040
070070
06006C
0E0066
0C0062
0DFFFF
180060
180060
380060
380060
58FF60
981860
181860
181860
181830
181830
181830
181F31
19F019
18C019
18000D
180007
180003
100001
ENDCHAR

STARTCHAR cns4_2537
ENCODING 9527
SWIDTH 960 0
DWIDTH 24 0
BBX 24 24 0 -2
BITMAP
040100
0701CC
060186
0E0182
0C0180
0DFFFF
180180
182180
383988
38318E
58318C
98318C
19FD8C
183198
1830D8
1830D8
1860F0
186072
184062
1880F2
19019A
18030F
180C07
103002
ENDCHAR

STARTCHAR cns4_2538
ENCODING 9528
SWIDTH 960 0
DWIDTH 24 0
BBX 24 24 0 -2
BITMAP
040100
0701C0
060180
0E018C
0C01FE
0C0180
180180
180180
380186
38FFFF
580180
980180
182180
183990
183188
183184
186186
184183
188183
190181
180180
180180
181F80
100300
ENDCHAR

STARTCHAR cns4_2539
ENCODING 9529
SWIDTH 960 0
DWIDTH 24 0
BBX 24 24 0 -2
BITMAP
040840
070E70
060C60
0E0C60
0C0C60
0C8C66
18FFFF
18CC66
38CC66
38CC66
58CC66
98CC66
18CC66
18FFFE
18CC66
18CC66
18CC66
18CC66
18CC66
18CC66
18CC66
18FFFE
18C006
108004
ENDCHAR

STARTCHAR cns4_253A
ENCODING 9530
SWIDTH 960 0
DWIDTH 24 0
BBX 24 24 0 -2
BITMAP
102080
1C38E0
1830C0
1A30C0
1BB0C0
333182
3331FF
33310C
73338C
73328C
B3348C
33388C
33308C
333088
333058
33F058
323070
303070
3030D8
303088
30310C
303206
303407
202802
ENDCHAR

STARTCHAR cns4_253B
ENCODING 9531
SWIDTH 960 0
DWIDTH 24 0
BBX 24 24 0 -2
BITMAP
040400
070300
064180
0C4106
0CFFFF
18C006
198004
318048
380070
780060
580066
99FFFF
180060
180060
182060
181060
180860
180C60
180C60
180060
180060
180060
180FE0
1000C0
ENDCHAR

STARTCHAR cns4_253C
ENCODING 9532
SWIDTH 960 0
DWIDTH 24 0
BBX 24 24 0 -2
BITMAP
084006
0E7FFF
0C6000
0C6000
18600C
186FFE
1860C0
3060C0
3860C0
7860C0
5860C8
9867FC
1860C0
1860C0
1860C0
1860C0
1860C0
1860CC
186FFE
186000
186000
186006
18FFFF
104000
ENDCHAR

STARTCHAR cns4_253D
ENCODING 9533
SWIDTH 960 0
DWIDTH 24 0
BBX 24 24 0 -2
BITMAP
084000
0E7000
0C6000
0C600C
0CFFFE
18C000
198000
314018
3A7FFC
786318
586318
986318
18631A
1BFFFF
18C318
18C318
18C618
18C618
18C61A
19FFFF
188018
180030
1803F0
100060
ENDCHAR

STARTCHAR cns4_253E
ENCODING 9534
SWIDTH 960 0
DWIDTH 24 0
BBX 24 24 0 -2
BITMAP
001C00
003800
006400
00C300
018180
0300C0
060370
0DFFBC
30000F
C00004
000030
1FFFF8
001800
001800
041800
0718C0
061FE0
061800
061800
061800
061800
061806
FFFFFF
000000
ENDCHAR

STARTCHAR cns4_253F
ENCODING 9535
SWIDTH 960 0
DWIDTH 24 0
BBX 24 24 0 -2
BITMAP
040040
070070
060060
060060
868864
FFCFFE
C60C60
C60C60
C60C60
C60C60
C64C62
FFEFFF
860860
060060
0600D8
0780D8
0D80D8
0D8199
098199
199319
11E619
21CC1F
40980F
806000
ENDCHAR

STARTCHAR cns4_2540
ENCODING 9536
SWIDTH 960 0
DWIDTH 24 0
BBX 24 24 0 -2
BITMAP
000200
400380
200318
30FFFC
180318
100318
00031A
05FFFF
040318
040318
0C0318
087FF8
180310
180300
300310
F07FF8
600300
600300
30030C
31FFFE
300300
300300
300300
000200
ENDCHAR

STARTCHAR cns4_2541
ENCODING 9537
SWIDTH 960 0
DWIDTH 24 0
BBX 24 24 0 -2
BITMAP
001000
401C00
301818
183FFC
1A3018
026830
064830
048460
0406C0
0C0380
0807C0
180C60
181838
30300F
30C006
F33FF8
603018
603018
703018
303018
303018
303FF8
303010
002000
ENDCHAR

STARTCHAR cns4_2542
ENCODING 9538
SWIDTH 960 0
DWIDTH 24 0
BBX 24 24 0 -2
BITMAP
000000
40800C
20FFFE
30C00C
18C20C
10C38C
02C30C
02C30C
04C34C
04DFEC
0CC30C
08C30C
18C30C
18C68C
30C64C
F0C46C
60CC2C
60C83C
30D82C
30D00C
30E00C
30C00C
30FFFC
008008
ENDCHAR

STARTCHAR cns4_2543
ENCODING 9539
SWIDTH 960 0
DWIDTH 24 0
BBX 24 24 0 -2
BITMAP
001000
401C00
201860
303FF0
183060
1060C0
028080
020118
04FFFC
040618
0C0618
08061A
1BFFFF
180618
300618
F00618
60FFF8
600610
300600
300600
300600
300600
307E00
000C00
ENDCHAR

STARTCHAR cns4_2544
ENCODING 9540
SWIDTH 960 0
DWIDTH 24 0
BBX 24 24 0 -2
BITMAP
000000
100018
1FFFFC
180018
18E018
18C018
18C198
18FFD8
199818
191818
1A1818
181858
1FFFF8
181818
191918
19D9D8
199998
319999
31998D
31998D
23FF8D
610107
400003
800001
ENDCHAR

STARTCHAR cns4_2545
ENCODING 9541
SWIDTH 960 0
DWIDTH 24 0
BBX 24 24 0 -2
BITMAP
100030
1FFFF8
180030
180030
180330
1BFFB0
183030
186030
194330
19FFB0
198330
198330
198330
198330
19FF30
198330
198332
198332
318332
31FF1A
21831A
61020E
400007
800003
ENDCHAR

STARTCHAR cns4_2546
ENCODING 9542
SWIDTH 960 0
DWIDTH 24 0
BBX 24 24 0 -2
BITMAP
004000
606430
18C7F8
0D8630
070630
0CC630
186630
644630
070630
063630
FFFE30
060630
0C0630
0D0630
0DC630
198632
1B0632
334632
262632
4CEC32
9F2C33
0C183F
00301E
004000
ENDCHAR

STARTCHAR cns4_2547
ENCODING 9543
SWIDTH 960 0
DWIDTH 24 0
BBX 24 24 0 -2
BITMAP
020004
038007
030006
030086
0318E6
FFFCC6
0300C6
0300C6
0300C6
0300C6
0310C6
7FF8C6
0000C6
0000C6
4030C6
7FF8C6
6030C6
6030C6
603086
603006
603006
7FF006
60207E
40000C
ENDCHAR

STARTCHAR cns4_2548
ENCODING 9544
SWIDTH 960 0
DWIDTH 24 0
BBX 24 24 0 -2
BITMAP
020004
038007
030006
06C086
0630E6
0C18C6
081CC6
100CC6
2000C6
4030C6
BFF8C6
0000C6
0000C6
0000C6
2030C6
3FF8C6
3030C6
3030C6
303086
303006
303006
3FF006
30207E
20000C
ENDCHAR

STARTCHAR cns4_2549
ENCODING 9545
SWIDTH 960 0
DWIDTH 24 0
BBX 24 24 0 -2
BITMAP
044004
077007
066006
066046
466276
266766
366666
1E6866
167066
066066
066066
066066
067866
0E6C66
366666
E66266
466066
066066
0C6246
0C6206
186306
307F06
603E3E
80000C
ENDCHAR

STARTCHAR cns4_254A
ENCODING 9546
SWIDTH 960 0
DWIDTH 24 0
BBX 24 24 0 -2
BITMAP
200004
380007
300006
301086
3FF8E6
2300C6
6300C6
4300C6
8300C6
0300C6
0318C6
FFFCC6
0300C6
0300C6
4310C6
731CC6
6318C6
6318C6
631886
631806
631806
FFF806
40107E
00000C
ENDCHAR

STARTCHAR cns4_254B
ENCODING 9547
SWIDTH 960 0
DWIDTH 24 0
BBX 24 24 0 -2
BITMAP
040004
070007
061806
0FFC86
1818E6
1030C6
2C60C6
46C0C6
0380C6
0300C6
0680C6
18E0C6
E18CC6
03FEC6
060CC6
0C0CC6
1818C6
6630C6
036086
01C006
018006
060006
18007E
E0000C
ENDCHAR

STARTCHAR cns4_254C
ENCODING 9548
SWIDTH 960 0
DWIDTH 24 0
BBX 24 24 0 -2
BITMAP
040004
070007
061806
0FFC86
0C18E6
1818C6
1C30C6
2660C6
43C0C6
81C0C6
0370C6
0638C6
0C1CC6
180CC6
3000C6
DFF8C6
1818C6
1818C6
181886
181806
181806
1FF806
18107E
10000C
ENDCHAR

STARTCHAR cns4_254D
ENCODING 9549
SWIDTH 960 0
DWIDTH 24 0
BBX 24 24 0 -2
BITMAP
060004
030007
070006
078086
0CC0E6
0C60C6
1830C6
3018C6
200EC6
7FF4C6
8300C6
0300C6
0300C6
0300C6
0300C6
3FF0C6
0300C6
0300C6
030086
030006
030006
03F806
FE007E
70000C
ENDCHAR

STARTCHAR cns4_254E
ENCODING 9550
SWIDTH 960 0
DWIDTH 24 0
BBX 24 24 0 -2
BITMAP
020004
038007
030006
06C006
066086
0C30E6
1818C6
30CCC6
6FECC6
8000C6
0000C6
0000C6
0018C6
7FFCC6
0600C6
0600C6
0C40C6
0C20C6
183086
181806
30FC06
7F8C06
38083E
00000C
ENDCHAR

STARTCHAR cns4_254F
ENCODING 9551
SWIDTH 960 0
DWIDTH 24 0
BBX 24 24 0 -2
BITMAP
004080
6070E0
30C0C0
1880C0
0910C0
FFF8C6
18C7FF
18C0C6
18C0C6
18C0C6
18C0C6
18D0C6
FFF8C6
18C0C6
18C0C6
18C186
18C186
18C186
18C306
30C306
30C606
20C40E
40C8FC
809018
ENDCHAR

STARTCHAR cns4_2550
ENCODING 9552
SWIDTH 960 0
DWIDTH 24 0
BBX 24 24 0 -2
BITMAP
000008
00180E
7FFD0C
0601CC
06318C
0FF98C
18318C
30618C
CCC18C
07810C
03000C
0C00FC
304018
C07000
006018
7FFFFC
00C018
00C018
018018
030018
060018
0C0038
300FF0
C00060
ENDCHAR

STARTCHAR cns4_2551
ENCODING 9553
SWIDTH 960 0
DWIDTH 24 0
BBX 24 24 0 -2
BITMAP
080000
0E0000
0C0000
0C000C
1FFFFE
18400C
30700C
20E00C
41980C
83060C
06038C
0C01EC
33FC8C
C0000C
00000C
07FE0C
06060C
06060C
06060C
07FE1C
040018
000038
003FF0
0000E0
ENDCHAR

STARTCHAR cns4_2552
ENCODING 9554
SWIDTH 960 0
DWIDTH 24 0
BBX 24 24 0 -2
BITMAP
100000
1C0000
180000
18000C
1FFFFE
30000C
20C00C
41830C
87FF8C
06030C
06630C
06330C
06030C
7FFFEC
06030C
06630C
06330C
0C030C
08030C
101E1C
200018
000038
000FF0
0000E0
ENDCHAR

STARTCHAR cns4_2553
ENCODING 9555
SWIDTH 960 0
DWIDTH 24 0
BBX 24 24 0 -2
BITMAP
000000
100018
1FFFFC
181818
181818
181818
1FFFF8
181818
181818
181818
1FFFF8
118410
01C700
030600
060600
180606
FFFFFF
000600
000600
000600
000600
000600
000600
000400
ENDCHAR

STARTCHAR cns4_2554
ENCODING 9556
SWIDTH 960 0
DWIDTH 24 0
BBX 24 24 0 -2
BITMAP
000800
000E00
000C18
200FFC
380C00
320C18
33FFFC
330018
330098
3340F8
3330D8
331998
330F18
330618
330F18
331998
3331D8
33C0D8
330018
33FFF8
320010
300006
7FFFFF
200000
ENDCHAR

STARTCHAR cns4_2555
ENCODING 9557
SWIDTH 960 0
DWIDTH 24 0
BBX 24 24 0 -2
BITMAP
044020
077038
066030
066230
8663B0
466330
666630
366438
266834
066036
066033
0E6033
367032
E66C30
466630
066330
0C6330
0C6030
186130
186130
3061B0
207FB0
403F30
800020
ENDCHAR

STARTCHAR cns4_2556
ENCODING 9558
SWIDTH 960 0
DWIDTH 24 0
BBX 24 24 0 -2
BITMAP
004006
3067FF
0CC186
038186
06C186
0C6186
303186
C23186
038186
030186
031986
FFFD86
060186
060186
0C0186
1B8186
1B21BE
33118C
661980
460980
8C7D80
1FCD80
0E0980
000100
ENDCHAR

STARTCHAR cns4_2557
ENCODING 9559
SWIDTH 960 0
DWIDTH 24 0
BBX 24 24 0 -2
BITMAP
100000
1C0000
180106
3031FF
3FF986
630186
430186
830186
030186
031986
FFFD86
030186
030186
431186
731D86
631986
631986
631986
6319BE
63198C
631980
FFF980
401180
000100
ENDCHAR

STARTCHAR cns4_2558
ENCODING 9560
SWIDTH 960 0
DWIDTH 24 0
BBX 24 24 0 -2
BITMAP
000000
200006
3FFFFF
300800
300E00
300C00
300C18
300FFC
300C00
300C00
300C06
3FFFFF
300600
300600
308600
30E640
30C630
318618
21060C
62060E
440606
480600
807E00
000C00
ENDCHAR

STARTCHAR cns4_2559
ENCODING 9561
SWIDTH 960 0
DWIDTH 24 0
BBX 24 24 0 -2
BITMAP
001000
001C00
001806
FFFFFF
001800
101818
1FFFFC
181818
181818
1FFFF8
181818
181818
1FFFF8
102010
003800
007000
006080
00C040
018020
030030
0607F8
0FFC1C
07001C
00000C
ENDCHAR

STARTCHAR cns4_255A
ENCODING 9562
SWIDTH 960 0
DWIDTH 24 0
BBX 24 24 0 -2
BITMAP
000000
401800
7FFC06
601BFF
601906
601906
7FF906
619106
618186
61808C
69988C
6FFCCC
6998D8
699858
699878
699830
699870
699878
4998D8
49F98C
49930C
818606
818C07
013002
ENDCHAR

STARTCHAR cns4_255B
ENCODING 9563
SWIDTH 960 0
DWIDTH 24 0
BBX 24 24 0 -2
BITMAP
000400
000300
860180
FF010C
C67FFE
C60180
C60180
C60180
C60180
C60180
C60180
C60198
C63FFC
C60180
C60180
C60180
C60180
FE0180
C40180
800180
000186
01FFFF
000000
000000
ENDCHAR

STARTCHAR cns4_255C
ENCODING 9564
SWIDTH 960 0
DWIDTH 24 0
BBX 24 24 0 -2
BITMAP
000000
000C10
8CFE1C
FE0C18
CC0C18
CC0C18
CC8C18
CCFC18
CCC818
CCC018
CCC018
CCCC30
CDFE30
CC8C30
CC0C30
CC0C60
CC0C64
FC0C62
C80CC2
800CC3
001D9F
003BE3
03F183
006000
ENDCHAR

STARTCHAR cns4_255D
ENCODING 9565
SWIDTH 960 0
DWIDTH 24 0
BBX 24 24 0 -2
BITMAP
000420
000718
43060C
7F8608
630602
637FFF
630600
630600
630608
63060E
630D0C
630D0C
630D18
631918
631998
6318B0
6330F0
7F2060
6260E0
4041B0
008318
01060C
001807
006002
ENDCHAR

STARTCHAR cns4_255E
ENCODING 9566
SWIDTH 960 0
DWIDTH 24 0
BBX 24 24 0 -2
BITMAP
000000
00000C
437FFE
7F830C
63030C
63030C
63060C
63060C
630C0C
63181C
6331F8
63C030
630000
63200C
633FFE
63300C
63300C
7F300C
62300C
40300C
00300C
003FFC
003008
002000
ENDCHAR

STARTCHAR cns4_255F
ENCODING 9567
SWIDTH 960 0
DWIDTH 24 0
BBX 24 24 0 -2
BITMAP
000000
00100C
431FFE
7F980C
63180C
63180C
63180C
63180C
63180C
63180C
63180C
63180C
631FFC
631808
631000
630000
630810
7F0E08
62180C
403006
006007
00C003
030003
000000
ENDCHAR

STARTCHAR cns4_2560
ENCODING 9568
SWIDTH 960 0
DWIDTH 24 0
BBX 24 24 0 -2
BITMAP
002040
003870
863460
FF3760
C63660
C66660
C66666
C6E67F
C6E7E6
C77E66
C66666
C66664
C6666C
C66668
C66660
C66660
C66662
FE6642
C46602
806602
006603
0067FF
0063FE
004000
ENDCHAR

STARTCHAR cns4_2561
ENCODING 9569
SWIDTH 960 0
DWIDTH 24 0
BBX 24 24 0 -2
BITMAP
000100
0001C0
860380
FF0340
C60660
C60C30
C61818
C6310C
C661C7
C78182
C60180
C61180
C61D90
C61988
C61984
C63186
C62186
FE4183
C48183
810183
000180
000180
001F80
000300
ENDCHAR

STARTCHAR cns4_2562
ENCODING 9570
SWIDTH 960 0
DWIDTH 24 0
BBX 24 24 0 -2
BITMAP
000100
0001C0
860180
FF0184
C67FFE
C60180
C60180
C60180
C61190
C61D1C
C61818
C61818
C61818
C6FFFF
C61818
C61818
C61818
FE3018
C43018
806018
00C018
018018
030018
0C0010
ENDCHAR

STARTCHAR cns4_2563
ENCODING 9571
SWIDTH 960 0
DWIDTH 24 0
BBX 24 24 0 -2
BITMAP
000000
000006
007FFF
430006
7F8006
630026
633FF6
630006
630006
6310C6
631FE6
6318C6
6318C6
6318C6
6318C6
6318C6
631FC6
7F1886
621006
400006
000006
000006
00007E
00000C
ENDCHAR

STARTCHAR cns4_2564
ENCODING 9572
SWIDTH 960 0
DWIDTH 24 0
BBX 24 24 0 -2
BITMAP
000018
00007C
0043C0
867C00
FF6006
C67FFF
C66006
C66006
C66006
C67FFE
C66004
C66030
C66FF8
C66030
C66060
C660C0
FE6180
C66302
84C602
00CC02
018C03
030FFF
0607FE
080000
ENDCHAR

STARTCHAR cns4_2565
ENCODING 9573
SWIDTH 960 0
DWIDTH 24 0
BBX 24 24 0 -2
BITMAP
100300
1C0180
182106
183FFF
186006
18C004
FF4008
180000
180006
187FFF
1800C0
1800C0
1800C0
1800C0
1800C0
1800C0
1800C0
1800C0
1F80C0
F000C0
6000C0
0000C0
000FC0
000180
ENDCHAR

STARTCHAR cns4_2566
ENCODING 9574
SWIDTH 960 0
DWIDTH 24 0
BBX 24 24 0 -2
BITMAP
100300
1C0180
184083
187FFF
18C003
18C002
FF0104
180080
1808C0
180E40
180C60
180C60
180C20
180C30
181830
181830
181818
1F3018
F83018
C0600C
00400C
008006
010007
020002
ENDCHAR

STARTCHAR cns4_2567
ENCODING 9575
SWIDTH 960 0
DWIDTH 24 0
BBX 24 24 0 -2
BITMAP
100100
1C01C0
180180
180180
180182
18FFFF
FF0180
180180
180180
180180
180184
187FFE
180180
180380
1807C0
180DA0
1819B0
1F3198
F0619C
C0C18E
018187
060182
000180
000100
ENDCHAR

STARTCHAR cns4_2568
ENCODING 9576
SWIDTH 960 0
DWIDTH 24 0
BBX 24 24 0 -2
BITMAP
100800
1C0E60
180C30
180C10
180C02
18FFFF
FF0C00
180C00
180C08
180D0E
180D0C
180D0C
18190C
181918
181998
1830B0
1830F0
1F60E0
F041A0
C08330
010618
020C0C
003007
00C002
ENDCHAR

STARTCHAR cns4_2569
ENCODING 9577
SWIDTH 960 0
DWIDTH 24 0
BBX 24 24 0 -2
BITMAP
10000C
1C41FE
187F10
186310
186310
186310
FF6310
186310
186310
186310
186318
186318
186318
186608
186608
18664C
18644C
1F6C6C
F8CC24
C0C836
009FF6
019E37
010823
020002
ENDCHAR

STARTCHAR cns4_256A
ENCODING 9578
SWIDTH 960 0
DWIDTH 24 0
BBX 24 24 0 -2
BITMAP
01C000
018080
030060
060030
0C0FF8
3FF81C
18200C
003800
003000
006006
FFFFFF
018060
031030
061C1C
0C1807
301802
C01830
1FFFF8
001800
001800
001800
001806
FFFFFF
000000
ENDCHAR

STARTCHAR cns4_256B
ENCODING 9579
SWIDTH 960 0
DWIDTH 24 0
BBX 24 24 0 -2
BITMAP
000060
0FFFF0
001800
041840
021860
0318C0
019880
011900
001818
3FFFFC
001800
001800
001800
001000
001C00
001800
001830
1FFFF8
001800
001800
001800
001806
FFFFFF
000000
ENDCHAR

STARTCHAR cns4_256C
ENCODING 9580
SWIDTH 960 0
DWIDTH 24 0
BBX 24 24 0 -2
BITMAP
040000
070000
060018
069FFC
7FC818
060818
060818
060818
064418
FFE430
000430
040630
070260
060360
0641C0
7FE180
0601C0
060360
060320
060630
07EC18
FC180E
603007
00C002
ENDCHAR

STARTCHAR cns4_256D
ENCODING 9581
SWIDTH 960 0
DWIDTH 24 0
BBX 24 24 0 -2
BITMAP
10400C
1C7FFE
18600C
18600C
18600C
18600C
1A7FFC
FF6008
186200
186380
186300
186330
186FF8
186330
186330
186330
186330
1F6332
F0C632
40C632
018C33
01183F
02101E
042000
ENDCHAR

STARTCHAR cns4_256E
ENCODING 9582
SWIDTH 960 0
DWIDTH 24 0
BBX 24 24 0 -2
BITMAP
100000
1C4646
187F7F
186666
186666
186666
1A6666
FF6666
186666
186666
186666
186666
186666
1867E6
186446
186006
186006
186006
1F6006
F86006
606006
007FFE
006006
004004
ENDCHAR

STARTCHAR cns4_256F
ENCODING 9583
SWIDTH 960 0
DWIDTH 24 0
BBX 24 24 0 -2
BITMAP
00000C
7FFFFE
001000
001C20
081838
061830
033060
026680
00C180
030070
0C001C
30800E
C0E006
00C000
18C030
05FFF8
030060
0780C0
186380
601E00
003380
00C0E0
07003F
78000C
ENDCHAR

STARTCHAR cns4_2570
ENCODING 9584
SWIDTH 960 0
DWIDTH 24 0
BBX 24 24 0 -2
BITMAP
200080
3800E0
3010C0
301CC0
3018C0
3318C4
3F9FFE
6318C0
6330C0
6320C0
6340C0
5300C0
5B00C0
8E00C4
861FFE
0600C0
0C00C0
0C00C0
1800C0
1800C0
3000C0
2000C6
407FFF
800000
ENDCHAR

STARTCHAR cns4_2571
ENCODING 9585
SWIDTH 960 0
DWIDTH 24 0
BBX 24 24 0 -2
BITMAP
002000
003800
003006
FFFFFF
006180
00C0C0
018060
030030
06009C
0D80CF
30C182
C04300
1FFFF0
001800
001800
001800
001818
3FFFFC
001800
001800
001800
001800
001800
001000
ENDCHAR

STARTCHAR cns4_2572
ENCODING 9586
SWIDTH 960 0
DWIDTH 24 0
BBX 24 24 0 -2
BITMAP
002000
003800
003006
FFFFFF
00C180
0180C0
030060
060030
0C001C
18000F
3FFFFA
C60000
060000
060060
07FFF0
060060
060060
060060
07FFE0
060040
060000
06000C
7FFFFE
000000
ENDCHAR

STARTCHAR cns4_2573
ENCODING 9587
SWIDTH 960 0
DWIDTH 24 0
BBX 24 24 0 -2
BITMAP
002000
003800
003006
FFFFFF
006180
00C0C0
018060
030030
06001C
0C00C7
33FFE2
C300C0
0300C0
0300C0
03FFC0
0300C0
0300C0
0300C0
03FFC0
0300C0
0300C0
0300C6
FFFFFF
000000
ENDCHAR

STARTCHAR cns4_2574
ENCODING 9588
SWIDTH 960 0
DWIDTH 24 0
BBX 24 24 0 -2
BITMAP
002000
003800
003006
FFFFFF
006180
00C0C0
019060
033830
06611C
0CC08F
318042
C30FE0
0FF830
060030
018180
018180
018184
7FFFFE
018180
030180
060180
0C0180
180180
600100
ENDCHAR

STARTCHAR cns4_2575
ENCODING 9589
SWIDTH 960 0
DWIDTH 24 0
BBX 24 24 0 -2
BITMAP
004000
007000
006006
FFFFFF
00C0C0
018060
030030
0600DC
0C07EF
37FE02
C60600
060600
060618
07FFFC
060600
060300
060300
060184
0600C4
062064
06C034
07809E
033FCE
000004
ENDCHAR

STARTCHAR cns4_2576
ENCODING 9590
SWIDTH 960 0
DWIDTH 24 0
BBX 24 24 0 -2
BITMAP
002000
003800
003006
FFFFFF
006180
00C0C0
018060
030030
0700DC
0C1FEF
37F842
C61840
061840
061840
061840
061840
0C1860
0C3020
083230
186118
10C09C
218FCE
47F8C7
8300C2
ENDCHAR

STARTCHAR cns4_2577
ENCODING 9591
SWIDTH 960 0
DWIDTH 24 0
BBX 24 24 0 -2
BITMAP
002000
003800
007000
08C030
0FFFF8
0C0030
0C0030
0C0030
0FFFF0
0C0030
0C0030
0C0030
0FFFF0
082020
003800
003006
FFFFFF
006200
00C180
0180C0
030070
06003C
18001F
E00008
ENDCHAR

STARTCHAR cns4_2578
ENCODING 9592
SWIDTH 960 0
DWIDTH 24 0
BBX 24 24 0 -2
BITMAP
040040
070070
060060
060060
064064
7FE7FE
060060
060060
060060
064062
FFEFFF
060060
060060
060060
0D00D0
0D00D0
0C80D0
0CC198
18C188
18C30C
30060C
200C06
401807
806002
ENDCHAR

STARTCHAR cns4_2579
ENCODING 9593
SWIDTH 960 0
DWIDTH 24 0
BBX 24 24 0 -2
BITMAP
002000
003800
003000
003006
FFFFFF
106204
0C6187
06C0CC
058368
03FFB0
06001C
0C000F
300066
CFFFF0
00C000
00C000
018030
03FFF8
010030
000030
000060
0000E0
001FC0
000180
ENDCHAR

STARTCHAR cns4_257A
ENCODING 9594
SWIDTH 960 0
DWIDTH 24 0
BBX 24 24 0 -2
BITMAP
040200
070388
06030E
06430C
07E30C
26030C
361FFF
36830C
3FC30C
31830C
21860C
21860C
598C18
4D8C18
871830
033F30
0619E0
0600F0
0C0198
0C030C
180606
300C07
203003
40C000
ENDCHAR

STARTCHAR cns4_257B
ENCODING 9595
SWIDTH 960 0
DWIDTH 24 0
BBX 24 24 0 -2
BITMAP
200080
3800E0
3000C0
3300C0
3300C0
FFC0C2
F300FF
3300C0
3300C0
3300C0
3300C0
3310C6
631FFF
661806
661806
F61806
5C1806
0E1806
1B1806
139806
219806
401FFE
801804
001000
ENDCHAR

STARTCHAR cns4_257C
ENCODING 9596
SWIDTH 960 0
DWIDTH 24 0
BBX 24 24 0 -2
BITMAP
200040
381070
301C60
301860
331860
333066
FFB1FF
F32666
336666
33C466
336C66
633866
631866
631866
E61066
563066
0C2466
0E6266
1B4EC6
19F2C6
314186
60030E
8006FC
000818
ENDCHAR

STARTCHAR cns4_257D
ENCODING 9597
SWIDTH 960 0
DWIDTH 24 0
BBX 24 24 0 -2
BITMAP
200080
3800EC
3000C6
3300C2
3320C0
FFBFFF
F330C0
3330C0
3330C4
3330C7
3330C6
3330C6
633066
66306C
66306C
F63078
5C3038
0E3130
1B3679
13BC79
21B8CD
401187
800303
000C01
ENDCHAR

STARTCHAR cns4_257E
ENCODING 9598
SWIDTH 960 0
DWIDTH 24 0
BBX 24 24 0 -2
BITMAP
200080
3810E4
301CC7
3218C6
3318C6
331FFE
FF9004
F30000
332006
333FFF
333000
633000
633000
633000
E63000
563000
0C3000
0E3000
1B3000
19B000
312000
606000
804000
008000
ENDCHAR

STARTCHAR cns4_2621
ENCODING 9761
SWIDTH 960 0
DWIDTH 24 0
BBX 24 24 0 -2
BITMAP
200800
385C00
307086
3060FF
3264C6
3366C6
FFE6C6
F366C6
3366C6
3366C6
3366C6
3366C6
6366C6
6366C6
6666C6
F666C6
5C6EC6
0E76FE
1B26CC
198CC0
310CC0
6018C0
8030C0
00C080
ENDCHAR

STARTCHAR cns4_2622
ENCODING 9762
SWIDTH 960 0
DWIDTH 24 0
BBX 24 24 0 -2
BITMAP
000100
00C1C0
7FE180
00C180
018308
030304
060606
060C02
06183F
063FE3
061E03
07C800
FE0000
660806
060FFF
060C06
060C06
060C06
060C06
060C06
060C06
060FFE
7E0C04
0C0800
ENDCHAR

STARTCHAR cns4_2623
ENCODING 9763
SWIDTH 960 0
DWIDTH 24 0
BBX 24 24 0 -2
BITMAP
001000
081C20
061838
031860
231880
201806
7FFFFF
600006
C00004
C000C8
0FFFE0
0001C0
000300
001E00
001806
FFFFFF
001800
001800
001800
001800
001800
001800
03F800
007000
ENDCHAR

STARTCHAR cns4_2624
ENCODING 9764
SWIDTH 960 0
DWIDTH 24 0
BBX 24 24 0 -2
BITMAP
040100
0701C0
063180
FFF980
060180
060180
463180
7FF980
C03180
C02180
00C180
3FE180
00C180
018180
030180
033180
03C182
FF0182
730182
030182
030183
0301FF
3F00FE
060000
ENDCHAR

STARTCHAR cns4_2625
ENCODING 9765
SWIDTH 960 0
DWIDTH 24 0
BBX 24 24 0 -2
BITMAP
004000
003000
001800
201006
3FFFFF
600006
E000C4
4FFFE8
00C000
00C000
00C0C0
00FFE0
0180C0
0180C0
0320C0
031180
061980
061980
000300
000300
000600
000606
FFFFFF
000000
ENDCHAR

STARTCHAR cns4_2626
ENCODING 9766
SWIDTH 960 0
DWIDTH 24 0
BBX 24 24 0 -2
BITMAP
000000
080030
0FFFF8
0C0030
0C0030
0FFFF0
0C0030
0C0030
0FFFF0
000000
000030
1FFFF8
0000C0
0000C0
0000C6
FFFFFF
0000C0
0C00C0
0700C0
0380C0
0180C0
0000C0
003FC0
000180
ENDCHAR

STARTCHAR cns4_2627
ENCODING 9767
SWIDTH 960 0
DWIDTH 24 0
BBX 24 24 0 -2
BITMAP
080040
0E0070
0C0060
0C0866
0C0FFF
0C4C66
FFEC64
0D8C68
0D8C60
0D8FFC
0D8D0C
0D8D0C
098D0C
198C98
198CB0
198860
1198D0
319198
31A30C
218C09
618001
41FFFF
C0FFFF
800000
ENDCHAR

STARTCHAR cns4_2628
ENCODING 9768
SWIDTH 960 0
DWIDTH 24 0
BBX 24 24 0 -2
BITMAP
080000
0E0400
0C0700
0C0600
0C0600
0C860C
FFDFFE
1B0600
1B0600
1B0C08
1B0FFC
1B08C0
1B18C0
1B10C0
1B20C0
1B40C0
331FFE
330000
330002
230002
630003
43FFFF
41FFFE
800000
ENDCHAR

STARTCHAR cns4_2629
ENCODING 9769
SWIDTH 960 0
DWIDTH 24 0
BBX 24 24 0 -2
BITMAP
010000
108000
1CC018
186FFC
3060C0
2030C0
4030C0
9100C0
19C0D0
1987F8
1980C0
1980C0
1980C0
1980C0
1980C0
1980CC
199FFE
318000
318002
218002
618003
41FFFF
40FFFE
800000
ENDCHAR

STARTCHAR cns4_262A
ENCODING 9770
SWIDTH 960 0
DWIDTH 24 0
BBX 24 24 0 -2
BITMAP
10000C
1FFFFE
18000C
18000C
18000C
1FFFFC
180000
180070
1807F8
1BFC00
180000
181800
180C30
1BFFF8
180060
1801C0
180700
180C00
303800
30E000
23C000
4F7FFF
8C1FFE
000000
ENDCHAR

STARTCHAR cns4_262B
ENCODING 9771
SWIDTH 960 0
DWIDTH 24 0
BBX 24 24 0 -2
BITMAP
20000C
3FFFFE
30000C
30000C
30000C
3FFFFC
304000
30E0C0
318030
33201C
36380E
383006
363060
337FF0
30C060
31E0C0
333180
341B00
300E00
201B00
6060C0
40C070
43001F
9C0006
ENDCHAR

STARTCHAR cns4_262C
ENCODING 9772
SWIDTH 960 0
DWIDTH 24 0
BBX 24 24 0 -2
BITMAP
20000C
3FFFFE
30000C
30000C
30000C
30000C
3FFFFC
300400
300700
300630
3107F8
31FE00
318600
318600
31860C
33FFFE
310E0C
301E0C
20360C
60660C
40C61C
4306F8
8C0630
000400
ENDCHAR

STARTCHAR cns4_262D
ENCODING 9773
SWIDTH 960 0
DWIDTH 24 0
BBX 24 24 0 -2
BITMAP
001000
101C10
1C181C
183018
186018
3FFFF8
118010
060000
180030
6FFFF8
0C0030
0C3030
0C1830
0C1036
FFFFFF
180030
186030
183030
182034
3FFFFE
100060
0000E0
000FC0
000180
ENDCHAR

STARTCHAR cns4_262E
ENCODING 9774
SWIDTH 960 0
DWIDTH 24 0
BBX 24 24 0 -2
BITMAP
100080
1C00E0
1800CC
1800C6
1800C2
9990C0
999FFF
9998C0
9998C0
9998C3
9998C3
9998C3
999866
999866
999864
99986C
999838
9998B0
999B31
FF9E79
811CD9
80098D
000307
000C03
ENDCHAR

STARTCHAR cns4_262F
ENCODING 9775
SWIDTH 960 0
DWIDTH 24 0
BBX 24 24 0 -2
BITMAP
100000
1C200C
183FFE
18300C
18300C
99300C
99300C
99300C
99300C
99300C
993FFC
992668
990660
990660
990660
990660
990C62
990C62
991862
FF1862
813063
80607F
00C03E
030000
ENDCHAR

STARTCHAR cns4_2630
ENCODING 9776
SWIDTH 960 0
DWIDTH 24 0
BBX 24 24 0 -2
BITMAP
10000C
1C10FE
181F80
181806
181FFF
999806
999806
999806
999FFE
999800
99980C
999BFE
99980C
999818
999830
999860
9998C0
999981
999B01
FF9601
813601
8027FF
0043FF
008000
ENDCHAR

STARTCHAR cns4_2631
ENCODING 9777
SWIDTH 960 0
DWIDTH 24 0
BBX 24 24 0 -2
BITMAP
001000
101C10
1C181C
181818
3FFFF8
100000
040060
07FFF0
060060
060060
060060
07FFE0
000000
000006
FFFFFF
030000
060060
0FFFF0
040060
000060
000060
0000C0
007F80
000300
ENDCHAR

STARTCHAR cns4_2632
ENCODING 9778
SWIDTH 960 0
DWIDTH 24 0
BBX 24 24 0 -2
BITMAP
000000
000060
1FFFF0
0000C0
000180
000604
018C0E
7FCE18
018DA0
018CC0
030C60
060C30
0C0C1C
18FC0F
301802
C00000
001000
201C08
38180E
30180C
30180C
30180C
7FFFFC
200008
ENDCHAR

STARTCHAR cns4_2633
ENCODING 9779
SWIDTH 960 0
DWIDTH 24 0
BBX 24 24 0 -2
BITMAP
001000
101C10
1C181C
181818
181818
3FFFF8
100010
000000
200018
3FFFFC
300000
300000
310060
31FFF0
318060
318060
318060
31FFE0
318040
310000
300000
30000C
7FFFFE
200000
ENDCHAR

STARTCHAR cns4_2634
ENCODING 9780
SWIDTH 960 0
DWIDTH 24 0
BBX 24 24 0 -2
BITMAP
001000
001C00
101810
1C181C
181818
181818
181818
3FFFF8
100010
000000
000000
100018
1FFFFC
181818
181818
181818
181818
1FFFF8
181818
181818
181818
181818
1FFFF8
100010
ENDCHAR

STARTCHAR cns4_2635
ENCODING 9781
SWIDTH 960 0
DWIDTH 24 0
BBX 24 24 0 -2
BITMAP
1000C0
1C0060
180820
180FFF
999803
FFD802
998004
998000
998006
999FFF
998060
998060
998060
998060
998060
998060
998060
998060
9F8060
990060
180060
180060
1807E0
1000C0
ENDCHAR

STARTCHAR cns4_2636
ENCODING 9782
SWIDTH 960 0
DWIDTH 24 0
BBX 24 24 0 -2
BITMAP
100400
1C0700
180600
18060C
9987FE
FFCC0C
998A18
999218
99A130
9981E0
9980C0
9981E0
998330
99861C
998D8F
9998E2
99E070
998030
9F8000
990300
1800C0
180070
180038
100018
ENDCHAR

STARTCHAR cns4_2637
ENCODING 9783
SWIDTH 960 0
DWIDTH 24 0
BBX 24 24 0 -2
BITMAP
1C0000
18C418
1FE7FC
30C618
20C618
58C618
8D86F8
058632
030602
060603
0C07FF
3013FE
C01C00
001800
101818
1FFFFC
181818
181818
181818
181818
181818
1819F8
101830
001000
ENDCHAR

STARTCHAR cns4_2638
ENCODING 9784
SWIDTH 960 0
DWIDTH 24 0
BBX 24 24 0 -2
BITMAP
001800
000C00
200406
3FFFFF
300000
300800
300400
300600
30020C
33FFFE
300000
300020
308038
304030
306070
303060
303060
3038C0
301880
201980
200106
47FFFF
400000
800000
ENDCHAR

STARTCHAR cns4_2639
ENCODING 9785
SWIDTH 960 0
DWIDTH 24 0
BBX 24 24 0 -2
BITMAP
001800
000C00
200406
3FFFFF
300000
302060
303830
303020
303006
37FFFF
303010
30301C
303018
306830
306830
306460
30C6C0
30C380
3183C0
210660
220C30
44301C
48C00F
830004
ENDCHAR

STARTCHAR cns4_263A
ENCODING 9786
SWIDTH 960 0
DWIDTH 24 0
BBX 24 24 0 -2
BITMAP
001800
000C00
200406
3FFFFF
300000
300000
310018
31FFFC
318018
318018
318018
318018
31FFF8
318018
318018
318018
318018
31FFF8
310010
200000
200000
400006
4FFFFF
800000
ENDCHAR

STARTCHAR cns4_263B
ENCODING 9787
SWIDTH 960 0
DWIDTH 24 0
BBX 24 24 0 -2
BITMAP
001800
000C00
200406
3FFFFF
300000
300000
300000
308018
30FFFC
30C018
30C018
30C018
30C018
30C018
30C018
30FFF8
308010
300000
302020
207018
20C00C
418006
430007
8C0003
ENDCHAR

STARTCHAR cns4_263C
ENCODING 9788
SWIDTH 960 0
DWIDTH 24 0
BBX 24 24 0 -2
BITMAP
001800
000C00
200406
3FFFFF
300000
308000
30E000
30C000
30C00C
30FFFE
308600
318600
310608
3207FC
340600
300600
300608
3007FC
300600
200600
200600
400600
400600
800400
ENDCHAR

STARTCHAR cns4_263D
ENCODING 9789
SWIDTH 960 0
DWIDTH 24 0
BBX 24 24 0 -2
BITMAP
001800
000C00
200406
3FFFFF
300000
300400
300700
300600
300D80
301860
303030
306FDC
30C00F
318004
360030
30FFF8
300030
300060
3030C0
200D80
200700
400380
4001C0
8000C0
ENDCHAR

STARTCHAR cns4_263E
ENCODING 9790
SWIDTH 960 0
DWIDTH 24 0
BBX 24 24 0 -2
BITMAP
001800
000C00
200806
3FFFFF
300000
304000
307000
306030
307FF8
30C600
30C600
318600
320600
300600
30060C
37FFFE
300C80
301860
203030
606018
40C00C
41800E
860006
180000
ENDCHAR

STARTCHAR cns4_263F
ENCODING 9791
SWIDTH 960 0
DWIDTH 24 0
BBX 24 24 0 -2
BITMAP
001000
001C00
001830
1FFFF8
001800
001800
001804
7FFFFE
00C180
018180
0601FE
1800FF
620000
0380C0
0300C0
0300C6
FFFFFF
0300C0
0300C0
0600C0
0C00C0
1800C0
3000C0
C00080
ENDCHAR

STARTCHAR cns4_2640
ENCODING 9792
SWIDTH 960 0
DWIDTH 24 0
BBX 24 24 0 -2
BITMAP
000000
031006
FF9FFF
031806
031806
031806
431806
7F1FFE
6218C4
6018C0
C018C0
C318C6
FF9FFF
0318C0
0318C0
0318C0
031860
031860
031832
031832
0318DA
061B0E
FC1E07
180C03
ENDCHAR

STARTCHAR cns4_2641
ENCODING 9793
SWIDTH 960 0
DWIDTH 24 0
BBX 24 24 0 -2
BITMAP
000080
0300E0
FF80C0
0310C6
031FFF
0318C6
4318C4
7F18C8
6218C0
6018C0
C01FFC
C3190C
FF990C
03190C
03190C
031898
031898
031870
031060
0330F0
032198
06430C
FC8607
181802
ENDCHAR

STARTCHAR cns4_2642
ENCODING 9794
SWIDTH 960 0
DWIDTH 24 0
BBX 24 24 0 -2
BITMAP
01C000
0180C0
03FFE0
0300C0
060180
0FFF80
040300
000306
FFFFFF
0C6000
18C800
318E00
630C18
87FFFC
0E0C18
1E0C18
360C18
C60C18
060C18
060C18
060DF8
040C30
000C00
000800
ENDCHAR

STARTCHAR cns4_2643
ENCODING 9795
SWIDTH 960 0
DWIDTH 24 0
BBX 24 24 0 -2
BITMAP
040000
070008
06000C
060018
060030
062060
07F0C0
060184
060606
06000C
060018
060030
466060
7FF0C2
606303
606C06
60600C
606018
606030
606060
6060C0
7FE300
604C00
400000
ENDCHAR

STARTCHAR cns4_2644
ENCODING 9796
SWIDTH 960 0
DWIDTH 24 0
BBX 24 24 0 -2
BITMAP
000038
0807FC
0FFC00
0C0000
0C0000
0C0006
0FFFFF
0C0180
0C0180
0C0180
180180
180180
100180
200180
401900
820C00
238608
230244
230046
630043
E30063
C3FFE3
01FFC0
000000
ENDCHAR

STARTCHAR cns4_2645
ENCODING 9797
SWIDTH 960 0
DWIDTH 24 0
BBX 24 24 0 -2
BITMAP
001C00
003800
007600
00C300
0181C0
060070
0D011F
31C1C4
C18180
018180
018180
030180
020180
040180
083100
021800
038C00
130800
130048
230044
630066
C3FFE3
41FFC2
000000
ENDCHAR

STARTCHAR cns4_2646
ENCODING 9798
SWIDTH 960 0
DWIDTH 24 0
BBX 24 24 0 -2
BITMAP
100200
1C0100
180180
184086
187FFF
18C006
5CC004
5A0000
5B000C
DA7FFE
D80180
D80180
180180
180180
180180
180180
180180
180180
180180
180180
180180
180180
181F80
100300
ENDCHAR

STARTCHAR cns4_2647
ENCODING 9799
SWIDTH 960 0
DWIDTH 24 0
BBX 24 24 0 -2
BITMAP
100100
1C01C0
180180
180180
180186
18FFFF
5C0180
5A0180
5B0180
DA0180
D8018C
D87FFE
180380
1803C0
1807A0
180D90
180D98
18198C
18318E
186187
188182
190180
180180
100100
ENDCHAR

STARTCHAR cns4_2648
ENCODING 9800
SWIDTH 960 0
DWIDTH 24 0
BBX 24 24 0 -2
BITMAP
100100
1C01C0
180180
180180
180180
1C0186
5A7FFF
5B0340
5B0640
D80620
D80C30
D81918
1831CC
18C187
1B0182
180180
183FFC
180180
180180
180180
180180
180180
180180
100100
ENDCHAR

STARTCHAR cns4_2649
ENCODING 9801
SWIDTH 960 0
DWIDTH 24 0
BBX 24 24 0 -2
BITMAP
100200
1C0380
180300
180306
18FFFF
1C0600
5A0C00
5B0C10
5B1808
D83004
D860FE
D8FFC6
186CC6
180CC0
180CC0
180CC0
180CC2
1818C2
1818C2
1830C2
1860C3
18C0FF
19807E
120000
ENDCHAR

STARTCHAR cns4_264A
ENCODING 9802
SWIDTH 960 0
DWIDTH 24 0
BBX 24 24 0 -2
BITMAP
100000
1C4006
187FFF
186186
186186
1C6186
5A6186
5B7FFE
5B6186
D86186
D86186
D86186
187FFE
186184
184180
180180
180180
180180
180180
180180
180180
180180
180180
100100
ENDCHAR

STARTCHAR cns4_264B
ENCODING 9803
SWIDTH 960 0
DWIDTH 24 0
BBX 24 24 0 -2
BITMAP
100000
1C100C
181FFE
18180C
181A0C
1C198C
5A18CC
5B18CC
5B180C
D8180C
D8FFFF
D8300C
18320C
18318C
1830CC
1830CC
18300C
18300C
187FFF
182018
180018
180030
180FE0
1000C0
ENDCHAR

STARTCHAR cns4_264C
ENCODING 9804
SWIDTH 960 0
DWIDTH 24 0
BBX 24 24 0 -2
BITMAP
100100
1C01C0
182188
18398E
18318C
1C318C
5A318C
5B318C
5B318C
D87FFC
D82188
D80180
180180
184184
187187
186186
186186
186186
186186
186186
186186
18FFFE
184006
100004
ENDCHAR

STARTCHAR cns4_264D
ENCODING 9805
SWIDTH 960 0
DWIDTH 24 0
BBX 24 24 0 -2
BITMAP
100400
1C0700
180600
18060C
180FFE
1C0C0C
5A1A18
5B1218
5B2130
D841E0
D800C0
D801E0
180330
18061C
180D87
1830E2
18C070
180030
180000
180300
1800C0
180070
180038
100018
ENDCHAR

STARTCHAR cns4_264E
ENCODING 9806
SWIDTH 960 0
DWIDTH 24 0
BBX 24 24 0 -2
BITMAP
100808
1C0E0E
180C0C
180C0C
18180C
1C180C
5A33FF
5B380C
5B580C
D8580C
D8990C
D8188C
1818CC
18186C
18186C
18180C
18180C
18180C
18180C
18180C
18180C
18180C
1819FC
101018
ENDCHAR

STARTCHAR cns4_264F
ENCODING 9807
SWIDTH 960 0
DWIDTH 24 0
BBX 24 24 0 -2
BITMAP
100000
1C000C
1820FE
183FC0
1830C0
1C30C0
5A30C0
5B30C0
5B30C6
D83FFF
D830C0
D830C0
1830C0
1830C0
183060
183062
183062
183132
183632
183C1A
18180E
180067
183FF3
100000
ENDCHAR

STARTCHAR cns4_2650
ENCODING 9808
SWIDTH 960 0
DWIDTH 24 0
BBX 24 24 0 -2
BITMAP
00000C
7FFFFE
006000
006000
006060
1FFFF0
00C060
00C060
00C060
018060
018066
FFFFFF
000000
002000
021800
038C00
030E10
130608
13004C
330046
330066
63FFE6
61FFC0
000000
ENDCHAR

STARTCHAR cns4_2651
ENCODING 9809
SWIDTH 960 0
DWIDTH 24 0
BBX 24 24 0 -2
BITMAP
100600
1C0300
180380
1806C0
180C60
1C1830
5A301C
5B600F
DAC004
D90000
980018
187FFC
180300
180300
180300
180300
180300
180300
180300
180300
180300
180306
19FFFF
100000
ENDCHAR

STARTCHAR cns4_2652
ENCODING 9810
SWIDTH 960 0
DWIDTH 24 0
BBX 24 24 0 -2
BITMAP
200000
38000C
331FFE
31818C
30818C
30018C
FFE18C
300FFC
30018C
31018C
31C18C
31818C
198FFC
1B018C
1B018C
1E018C
0E018D
0C430D
0E430D
1E420D
13460D
21C40F
40C807
805000
ENDCHAR

STARTCHAR cns4_2653
ENCODING 9811
SWIDTH 960 0
DWIDTH 24 0
BBX 24 24 0 -2
BITMAP
000100
0001D8
00018C
000186
000184
FFFFFF
000180
038180
030184
06C187
0C3186
181986
300D86
CFE98C
0000CC
0030D8
1FF878
003071
003061
0060F1
00C199
00830D
010407
001803
ENDCHAR

STARTCHAR cns4_2654
ENCODING 9812
SWIDTH 960 0
DWIDTH 24 0
BBX 24 24 0 -2
BITMAP
102080
1C38E0
1830CC
1830C6
3468C3
2644C2
4486C0
8104C0
FFFFFF
0000C0
0000C8
0000CE
0000CC
0000CC
0000D8
0000D8
000070
000071
0000E1
0001B1
000319
00060D
001807
006003
ENDCHAR

STARTCHAR cns4_2655
ENCODING 9813
SWIDTH 960 0
DWIDTH 24 0
BBX 24 24 0 -2
BITMAP
000038
200FFC
3FF800
300000
30000C
3FFFFE
30000C
30000C
30000C
3FFFFC
300808
300E00
300C00
300C0C
3FFFFE
300C00
310C20
318C10
230C08
220C0C
440C06
480C06
900C00
000800
ENDCHAR

STARTCHAR cns4_2656
ENCODING 9814
SWIDTH 960 0
DWIDTH 24 0
BBX 24 24 0 -2
BITMAP
000038
200FFC
3FF800
300000
30000C
3FFFFE
30000C
30000C
30000C
3FFFFC
300008
37FFE0
318060
3180C0
318180
31FFF8
31B018
319830
310C60
230380
2207C0
440C70
48701F
938006
ENDCHAR

STARTCHAR cns4_2657
ENCODING 9815
SWIDTH 960 0
DWIDTH 24 0
BBX 24 24 0 -2
BITMAP
010000
21C00C
39807E
319FC0
3180C0
3180C0
3180C0
3180C4
7F9FFE
2180C0
0180C0
0180C0
3F80C0
3180C2
31BFFF
3180C0
3180C0
3180C0
3180C0
3180C0
2180C0
6180C0
418FC0
810180
ENDCHAR

STARTCHAR cns4_2658
ENCODING 9816
SWIDTH 960 0
DWIDTH 24 0
BBX 24 24 0 -2
BITMAP
100200
1C0180
1820C0
182086
183FFF
FF6006
18C004
184088
180040
180040
180840
180E60
1F0C60
F80C60
D80C30
181830
181830
181018
183018
18600C
18400E
18C007
F88002
310000
ENDCHAR

STARTCHAR cns4_2659
ENCODING 9817
SWIDTH 960 0
DWIDTH 24 0
BBX 24 24 0 -2
BITMAP
100000
1C0200
180180
1800C0
180088
FF000E
18040C
18070C
180618
180618
182630
182630
1F2664
F82662
D866C3
1866C3
18C782
18C708
180E08
181E08
18360C
1867FC
F983F8
300000
ENDCHAR

STARTCHAR cns4_265A
ENCODING 9818
SWIDTH 960 0
DWIDTH 24 0
BBX 24 24 0 -2
BITMAP
040040
070070
060060
062060
FFF062
060FFF
060060
7FE060
666060
666066
6667FF
666206
666206
666106
66610C
66608C
6660D8
666070
67E070
4640F8
06019C
06030E
060C07
043002
ENDCHAR

STARTCHAR cns4_265B
ENCODING 9819
SWIDTH 960 0
DWIDTH 24 0
BBX 24 24 0 -2
BITMAP
020080
4380E0
7300C0
6300C0
6300C4
630FFE
6300C0
6300C0
7BE0C0
6300CC
630FFE
63020C
63020C
63020C
630318
630118
6301B0
6320E0
6320E0
6331B0
6BF318
71E60C
200C07
003002
ENDCHAR

STARTCHAR cns4_265C
ENCODING 9820
SWIDTH 960 0
DWIDTH 24 0
BBX 24 24 0 -2
BITMAP
040100
0701C0
060180
460180
463300
7FFB06
C633FF
86220C
06070C
06050C
06090C
06010C
0D8118
0D8118
0D8098
0980B0
1980B0
198060
1188E0
31B1B0
21E318
40C60C
800C07
003002
ENDCHAR

STARTCHAR cns4_265D
ENCODING 9821
SWIDTH 960 0
DWIDTH 24 0
BBX 24 24 0 -2
BITMAP
020100
4381C0
730180
630180
630300
630306
6303FF
63F20C
7F070C
63050C
63090C
63010C
630118
630118
631098
6310B0
6310B0
631060
6318E0
67F9B0
79F318
30060C
000C07
003002
ENDCHAR

STARTCHAR cns4_265E
ENCODING 9822
SWIDTH 960 0
DWIDTH 24 0
BBX 24 24 0 -2
BITMAP
080100
0E01C0
0C0180
0E0180
198300
10C306
30E3FF
20620C
40070C
BFC50C
00090C
00010C
00C118
7FE118
00C098
00C0B0
00C0B0
018060
0180E0
0301B0
020318
04060C
080C07
103002
ENDCHAR

STARTCHAR cns4_265F
ENCODING 9823
SWIDTH 960 0
DWIDTH 24 0
BBX 24 24 0 -2
BITMAP
200080
3800E0
3060C0
3FF0C0
6000C6
4000FF
80C0C0
7FE0C0
0000C0
0000CC
018FFE
7FC20C
01820C
03020C
060318
0C0118
1801B0
3080E0
6080E0
C081B0
C0C318
FFC60C
7F8C07
003002
ENDCHAR

STARTCHAR cns4_2660
ENCODING 9824
SWIDTH 960 0
DWIDTH 24 0
BBX 24 24 0 -2
BITMAP
040080
0700E0
0600C0
0660C0
FFF0C6
0600FF
0600C0
4640C0
7670C0
6660CC
666FFE
66620C
66620C
66620C
FFE318
464118
0601B0
0600E0
0600E0
062190
06C318
07860C
031807
006002
ENDCHAR

STARTCHAR cns4_2661
ENCODING 9825
SWIDTH 960 0
DWIDTH 24 0
BBX 24 24 0 -2
BITMAP
0000C0
000060
430420
7F8730
630610
630618
630C08
630C0C
631906
6311C7
7F2182
634180
630180
630300
630300
630600
630620
630C10
7F0C08
62180C
4031FE
007F06
003806
000000
ENDCHAR

STARTCHAR cns4_2662
ENCODING 9826
SWIDTH 960 0
DWIDTH 24 0
BBX 24 24 0 -2
BITMAP
001000
201C08
38180E
30180C
30180C
7FFFFC
201808
001800
001806
FFFFFF
000000
000000
080030
0FFFF8
0C0030
0C0030
0C0030
0FFFF0
0C0030
0C0030
0C0030
0FFFF0
0C0030
080020
ENDCHAR

STARTCHAR cns4_2663
ENCODING 9827
SWIDTH 960 0
DWIDTH 24 0
BBX 24 24 0 -2
BITMAP
080000
0E0000
0C000C
1FFFFE
18618C
30618C
60C30C
81860C
030C0C
0C1818
3033F0
00C060
030000
040060
07FFF0
060060
060060
060060
07FFE0
060060
060060
060060
07FFE0
040040
ENDCHAR

STARTCHAR cns4_2664
ENCODING 9828
SWIDTH 960 0
DWIDTH 24 0
BBX 24 24 0 -2
BITMAP
430000
7F800C
633FFE
630300
630300
630300
630300
7F0300
630300
630330
633FF8
630630
630630
630630
7F0630
630630
630630
630630
630C30
430C30
430C30
C30C36
9F7FFF
860000
ENDCHAR

STARTCHAR cns4_2665
ENCODING 9829
SWIDTH 960 0
DWIDTH 24 0
BBX 24 24 0 -2
BITMAP
200400
380700
300600
30660C
3FF7FE
300600
300602
300602
306603
3387FF
3E03FE
181000
001C00
001800
001806
FFFFFF
001800
011800
0398C0
061830
0C181C
30180E
C01806
001000
ENDCHAR

STARTCHAR cns4_2666
ENCODING 9830
SWIDTH 960 0
DWIDTH 24 0
BBX 24 24 0 -2
BITMAP
100004
1C0187
187FC6
180186
180186
FF0186
180186
182186
383F86
3C3106
5A3006
5B6006
5A6186
98FFC6
984186
180186
180186
180186
180186
180186
180186
180306
187E06
100C04
ENDCHAR

STARTCHAR cns4_2667
ENCODING 9831
SWIDTH 960 0
DWIDTH 24 0
BBX 24 24 0 -2
BITMAP
100000
1C001C
1821FE
183F30
183330
FF3330
183330
183330
383330
383330
5C3330
5A3330
5B3330
9A3330
983330
183310
183318
186318
186308
18430C
18C304
188306
190203
120002
ENDCHAR

STARTCHAR cns4_2668
ENCODING 9832
SWIDTH 960 0
DWIDTH 24 0
BBX 24 24 0 -2
BITMAP
020080
0380E0
0300C2
FF00FF
0300C0
0300C0
021080
001C00
001800
001800
001806
FFFFFF
003800
007C00
00DB00
019980
0318C0
061860
0C1830
18181C
30180F
C01804
001800
001000
ENDCHAR

STARTCHAR cns4_2669
ENCODING 9833
SWIDTH 960 0
DWIDTH 24 0
BBX 24 24 0 -2
BITMAP
100100
1C01C0
180180
180186
18FFFF
1A0180
FF0180
180180
184186
387FFF
3C6186
5A6186
5B6186
5A6186
986186
986186
986186
186186
186186
1861BE
18418C
180180
180180
100100
ENDCHAR

STARTCHAR cns4_266A
ENCODING 9834
SWIDTH 960 0
DWIDTH 24 0
BBX 24 24 0 -2
BITMAP
100000
1C1020
181C38
181830
181830
181830
FF1830
181830
181830
381830
3C1830
5A1030
5B3830
9A3430
983468
183268
186268
186348
1862CC
18C084
18C184
198106
190203
120402
ENDCHAR

STARTCHAR cns4_266B
ENCODING 9835
SWIDTH 960 0
DWIDTH 24 0
BBX 24 24 0 -2
BITMAP
001000
001C00
081800
0E1830
0C1FF8
0C1800
0C1800
0C1800
0C180C
7FFFFE
000000
001000
001C00
001806
FFFFFF
001800
021900
0398C0
071860
0E1838
18181C
30180C
401800
001000
ENDCHAR

STARTCHAR cns4_266C
ENCODING 9836
SWIDTH 960 0
DWIDTH 24 0
BBX 24 24 0 -2
BITMAP
000400
000700
FFC600
330600
330606
3307FF
330CC6
330CC6
3308C4
3310C8
FFC0C0
3300C0
3300C0
3301A0
3301A0
3301A0
330330
330310
330618
230608
630C0C
431806
433007
824002
ENDCHAR

STARTCHAR cns4_266D
ENCODING 9837
SWIDTH 960 0
DWIDTH 24 0
BBX 24 24 0 -2
BITMAP
200400
380700
30C600
3FE600
300606
2007FF
4086C6
5FC4C4
800CC8
0008C0
0190C0
7FC0C0
0180C0
0301A0
0601A0
0C01A0
180330
308330
608610
60C618
7FCC0C
3F980E
003007
00C002
ENDCHAR

STARTCHAR cns4_266E
ENCODING 9838
SWIDTH 960 0
DWIDTH 24 0
BBX 24 24 0 -2
BITMAP
100100
1C01C0
180180
180180
306306
3FF3FF
266266
664666
468464
860868
060060
060060
060060
0D00D0
0D00D0
0C80D0
18C198
18C188
30630C
30630C
606604
400C06
801807
006002
ENDCHAR

STARTCHAR cns4_266F
ENCODING 9839
SWIDTH 960 0
DWIDTH 24 0
BBX 24 24 0 -2
BITMAP
020200
110380
1D8300
18C300
30C606
2067FF
4064C6
800CC6
0008C4
7FD0C8
1800C0
1800C0
1800C0
30C1A0
7FE1A0
20C1B0
00C310
00C310
00C618
00C608
00CC0C
019806
3F3007
064002
ENDCHAR

STARTCHAR cns4_2670
ENCODING 9840
SWIDTH 960 0
DWIDTH 24 0
BBX 24 24 0 -2
BITMAP
040400
070700
060600
0D0600
0C8606
18C7FF
1866C6
3064C4
600CC8
4008C0
9110C0
1DC0C0
1980C0
1981A0
1981A0
1981B0
198310
198310
318618
318608
218C0C
619806
41B007
814002
ENDCHAR

STARTCHAR cns4_2671
ENCODING 9841
SWIDTH 960 0
DWIDTH 24 0
BBX 24 24 0 -2
BITMAP
080200
0E0380
0C0300
0C0300
0C0300
0F8306
0C03FF
0C06C6
0C04C6
0CCCC4
FFE8C8
00D0C0
00C0C0
00C0C0
00C1A0
06C1A0
38C1B0
E0C310
40C318
01C608
018C0C
039806
3F3007
064002
ENDCHAR

STARTCHAR cns4_2672
ENCODING 9842
SWIDTH 960 0
DWIDTH 24 0
BBX 24 24 0 -2
BITMAP
000040
080070
0E0060
0C0060
0C0060
0C0060
0C0060
0C0060
0C8460
0CE764
7CC67E
0CC660
0CC660
0CC660
0CC660
0CC660
0CC660
0CC660
0DF660
0F0660
F80660
600666
003FFF
000000
ENDCHAR

STARTCHAR cns4_2673
ENCODING 9843
SWIDTH 960 0
DWIDTH 24 0
BBX 24 24 0 -2
BITMAP
000200
000380
018300
FFC300
300318
303FFC
330318
3F8318
330318
330318
630318
630318
5B031A
8E7FFF
060600
0C0680
0C0C60
180C30
181818
30300C
206006
40C003
818002
060000
ENDCHAR

STARTCHAR cns4_2674
ENCODING 9844
SWIDTH 960 0
DWIDTH 24 0
BBX 24 24 0 -2
BITMAP
000100
0001C0
018180
FFC180
300186
3001FF
330180
3F8180
330180
330198
633FFC
730818
5F0818
8E0C18
060430
0C0630
0C0360
1801C0
1803C0
300660
200C30
40181C
80600F
018004
ENDCHAR

STARTCHAR cns4_2675
ENCODING 9845
SWIDTH 960 0
DWIDTH 24 0
BBX 24 24 0 -2
BITMAP
000080
00C0E0
FFE0C0
3000C0
3000C0
3180C0
3FC0C0
3180C0
3190C4
219CFE
3198C0
6D98C0
4798C0
8318C0
8318C0
0618C0
0618C0
0418C0
0C18C0
0818C0
1036C0
2023FF
4040FE
808000
ENDCHAR

STARTCHAR cns4_2676
ENCODING 9846
SWIDTH 960 0
DWIDTH 24 0
BBX 24 24 0 -2
BITMAP
00001C
00107E
019FC0
FFD800
301800
301800
331800
3F9806
331FFF
331830
631830
631830
5B1830
8E1830
061830
0C1830
0C3030
183030
183030
302030
206030
404030
808030
000020
ENDCHAR

STARTCHAR cns4_2677
ENCODING 9847
SWIDTH 960 0
DWIDTH 24 0
BBX 24 24 0 -2
BITMAP
010000
FF8000
302004
303807
303026
333036
3FB026
333426
333226
633326
633146
5330C6
9B30C6
0A31A6
063136
063216
0C341E
0C3816
183006
183006
303006
207FFE
402006
800004
ENDCHAR

STARTCHAR cns4_2678
ENCODING 9848
SWIDTH 960 0
DWIDTH 24 0
BBX 24 24 0 -2
BITMAP
080000
0E0418
0C07FC
0C0618
0C0618
4CC618
7FE618
CCC418
CC8C1E
0C080F
0C1000
0C27FC
0C020C
1B020C
1B0218
1B0118
1B0130
1B00E0
3310E0
3361B0
23C318
41860C
801807
006002
ENDCHAR

STARTCHAR cns4_2679
ENCODING 9849
SWIDTH 960 0
DWIDTH 24 0
BBX 24 24 0 -2
BITMAP
080000
0E0030
0C00F8
0C0F80
0C8180
FFC180
0C0188
0C1FFC
0C0180
0C8180
FFC186
21BFFF
218180
218180
230182
330182
160183
1C01FF
0C00FE
1A0000
318000
20FFFF
403FFC
800000
ENDCHAR

STARTCHAR cns4_267A
ENCODING 9850
SWIDTH 960 0
DWIDTH 24 0
BBX 24 24 0 -2
BITMAP
010000
41C018
7180FC
618F80
618180
618180
618180
618188
7F9FFC
610180
600180
600180
618180
7FC18C
61BFFE
618180
618180
618182
618182
418182
418183
C181FF
8180FE
810000
ENDCHAR

STARTCHAR cns4_267B
ENCODING 9851
SWIDTH 960 0
DWIDTH 24 0
BBX 24 24 0 -2
BITMAP
004006
207FFF
186006
0C6006
086006
007FFE
026004
826200
466380
646300
4C6330
0C6FF8
186330
186330
306330
306332
F06332
60C332
60C632
60C632
318C33
31083F
32101E
342000
ENDCHAR

STARTCHAR cns4_267C
ENCODING 9852
SWIDTH 960 0
DWIDTH 24 0
BBX 24 24 0 -2
BITMAP
002000
203800
183000
0C300C
083FFE
013000
013000
813000
633000
323FFE
261FFF
040000
040080
0C00E0
0800C0
1800CC
703FFE
3000C0
1800C0
1800C0
1800C0
1800C6
187FFF
000000
ENDCHAR

STARTCHAR cns4_267D
ENCODING 9853
SWIDTH 960 0
DWIDTH 24 0
BBX 24 24 0 -2
BITMAP
000200
200380
180300
0C030C
08FFFE
000300
820300
422320
663B38
443230
0C3030
0C3030
183036
1BFFFF
303030
303030
E03030
603030
603030
302030
306030
304030
308030
310020
ENDCHAR

STARTCHAR cns4_267E
ENCODING 9854
SWIDTH 960 0
DWIDTH 24 0
BBX 24 24 0 -2
BITMAP
002080
4038E0
3030C0
1830C0
1030C0
01FEC0
8030C0
6030C0
4470C0
0478C0
08B4C0
08B6C0
19B4C0
1130C0
3230C0
3230C0
E030C2
6030C2
6030C2
6030C2
3030C3
3030FF
30307E
302000
ENDCHAR

STARTCHAR cns4_2721
ENCODING 10017
SWIDTH 960 0
DWIDTH 24 0
BBX 24 24 0 -2
BITMAP
000000
208006
18FFFF
0CC006
08C006
00C006
82C066
62DFF6
32C866
24C866
04CC66
0CC4C6
08C6C6
18C386
18C386
30C6C6
F0CC66
30D83E
30E016
18C006
18C006
18FFFE
18C006
008004
ENDCHAR

STARTCHAR cns4_2722
ENCODING 10018
SWIDTH 960 0
DWIDTH 24 0
BBX 24 24 0 -2
BITMAP
000200
200380
180300
0C030C
087FFE
000600
000600
820C10
420C08
64180C
44303E
0CFFE6
086C60
180C60
180C60
300C60
F00C60
601862
601862
603062
306063
30C07F
31803E
360000
ENDCHAR

STARTCHAR cns4_2723
ENCODING 10019
SWIDTH 960 0
DWIDTH 24 0
BBX 24 24 0 -2
BITMAP
000038
2001FC
183F80
0C0180
080180
000180
820180
420186
62FFFF
440180
040380
0C07C0
0805A0
180DB0
180990
301998
F0318C
606187
60C182
610180
300180
300180
300180
300100
ENDCHAR

STARTCHAR cns4_2724
ENCODING 10020
SWIDTH 960 0
DWIDTH 24 0
BBX 24 24 0 -2
BITMAP
00400C
207FFE
18600C
0C600C
08600C
00600C
827FFC
426008
626000
446430
0467F8
0C6630
086630
186630
106630
306630
E06630
30C632
30C632
30CC32
188C33
18983F
19101E
192000
ENDCHAR

STARTCHAR cns4_2725
ENCODING 10021
SWIDTH 960 0
DWIDTH 24 0
BBX 24 24 0 -2
BITMAP
000200
200380
180300
0C0300
084318
007FFC
026318
826318
446318
646318
4C7FF8
086318
186318
106318
306318
63FFFF
E06018
606018
606018
306018
306018
306018
3060F8
004030
ENDCHAR

STARTCHAR cns4_2726
ENCODING 10022
SWIDTH 960 0
DWIDTH 24 0
BBX 24 24 0 -2
BITMAP
001000
201C00
181800
0C1800
081806
001FFF
023186
822186
426184
644188
448180
0C1180
081DA0
181990
101998
30198C
E03186
603186
602183
306183
304180
308180
300F80
000300
ENDCHAR

STARTCHAR cns4_2727
ENCODING 10023
SWIDTH 960 0
DWIDTH 24 0
BBX 24 24 0 -2
BITMAP
100600
1C0300
180100
180180
182186
993FFF
99B0C6
DB30C6
DA30C6
5C30E6
5831A6
583136
183336
18361E
18341E
183816
143006
323006
333006
21B006
613006
403006
80307E
00200C
ENDCHAR

STARTCHAR cns4_2728
ENCODING 10024
SWIDTH 960 0
DWIDTH 24 0
BBX 24 24 0 -2
BITMAP
101000
1C1C00
181800
181800
183006
993FFF
99A666
DB6666
DA4666
5C8C66
580C66
580C66
1818C6
1818C6
1830C6
183186
146186
32C306
330606
218C0C
61180C
40601C
8183F8
000030
ENDCHAR

STARTCHAR cns4_2729
ENCODING 10025
SWIDTH 960 0
DWIDTH 24 0
BBX 24 24 0 -2
BITMAP
020080
0380E0
0300C0
0300C0
0300C6
FFFFFF
0300C0
0300C0
0300C0
03FFC0
030080
021000
001C00
201810
18181C
0C1830
063460
043680
006300
00C180
0180C0
070070
1C003F
E00018
ENDCHAR

STARTCHAR cns4_272A
ENCODING 10026
SWIDTH 960 0
DWIDTH 24 0
BBX 24 24 0 -2
BITMAP
001000
001C08
01981C
7FDC30
019AC0
019980
0318C0
061860
0C1838
30F81F
C0300C
000000
001000
101C10
081818
0C1830
061860
043680
006180
00C060
018038
06001C
18000E
E00006
ENDCHAR

STARTCHAR cns4_272B
ENCODING 10027
SWIDTH 960 0
DWIDTH 24 0
BBX 24 24 0 -2
BITMAP
001000
101C10
08181C
0C1830
041820
063640
006180
00C070
01801C
06000E
1A1006
E39C00
071800
061800
0C180C
1E1FFE
361800
661800
861802
061802
061803
061FFF
060FFE
040000
ENDCHAR

STARTCHAR cns4_272C
ENCODING 10028
SWIDTH 960 0
DWIDTH 24 0
BBX 24 24 0 -2
BITMAP
0000F0
0007F8
007E00
3FC020
000038
103030
0C1860
0618C0
031080
020100
000060
0FFFF0
001800
001800
001800
00180C
7FFFFE
001800
001800
001800
001800
001830
1FFFF8
000000
ENDCHAR

STARTCHAR cns4_272D
ENCODING 10029
SWIDTH 960 0
DWIDTH 24 0
BBX 24 24 0 -2
BITMAP
020100
4381C0
730180
630180
630180
630184
630D87
637D86
7F0D8C
430DC8
030DB0
030DA0
430DB0
7F1990
631998
631988
63318C
632186
634187
438182
430180
830180
831F80
020300
ENDCHAR

STARTCHAR cns4_272E
ENCODING 10030
SWIDTH 960 0
DWIDTH 24 0
BBX 24 24 0 -2
BITMAP
200830
390FF8
31CC30
318C30
318C30
318C30
318830
31983E
3F901F
312000
304018
301FFC
318418
3FC418
318418
318230
318230
318160
3180E0
3181B0
318318
61860E
419807
816002
ENDCHAR

STARTCHAR cns4_272F
ENCODING 10031
SWIDTH 960 0
DWIDTH 24 0
BBX 24 24 0 -2
BITMAP
040020
070038
460030
760830
660630
660330
7FC330
460030
460030
861030
060C30
060630
07C630
FE0030
660030
060036
063FFF
060030
060030
060030
060030
060030
060030
040020
ENDCHAR

STARTCHAR cns4_2730
ENCODING 10032
SWIDTH 960 0
DWIDTH 24 0
BBX 24 24 0 -2
BITMAP
080100
0E01C0
0C0180
6C0180
6C2186
6C3FFF
7F2186
4C6184
4C6188
8C0180
0C0380
0C03E0
0F06C0
FC06C0
CC06C0
0C06C0
0C0CC2
0C0CC2
0C18C2
0C18C2
0C30C3
0C60FF
0C807E
090000
ENDCHAR

STARTCHAR cns4_2731
ENCODING 10033
SWIDTH 960 0
DWIDTH 24 0
BBX 24 24 0 -2
BITMAP
080200
0E0390
0C030C
6C0306
6C0304
6C0300
7F8306
4C7FFF
4C0300
8C0300
0C0304
0C0307
0F8306
FC030C
6C0198
0C01B0
0C00E0
0C00C2
0C01E2
0C0332
0C061A
0C180E
0C6007
098003
ENDCHAR

STARTCHAR cns4_2732
ENCODING 10034
SWIDTH 960 0
DWIDTH 24 0
BBX 24 24 0 -2
BITMAP
080180
0E00C0
0C0840
6C0E60
6C0C20
6C0C30
7F9818
4C181C
4C300F
8C6004
0C8018
0C3FFC
0F8618
FC0618
CC0618
0C0618
0C0618
0C0618
0C0C18
0C0C18
0C1818
0C3038
0C63F0
088060
ENDCHAR

STARTCHAR cns4_2733
ENCODING 10035
SWIDTH 960 0
DWIDTH 24 0
BBX 24 24 0 -2
BITMAP
040080
0700E0
0600C0
6600C0
6600C6
663FFF
7FC0C0
4600C0
4610C6
861FFF
0618C6
0658C6
0F98C6
FE18C6
C618C6
0618C6
0618C6
0618C6
0618DE
0610CC
0600C0
0600C0
0600C0
040080
ENDCHAR

STARTCHAR cns4_2734
ENCODING 10036
SWIDTH 960 0
DWIDTH 24 0
BBX 24 24 0 -2
BITMAP
040100
0701C0
060180
068190
06418C
066186
064184
060180
FFEFFF
060180
060180
060180
060180
0D0340
0C8340
0CC320
0CC320
186630
186610
304C18
300C0C
60180E
401007
802002
ENDCHAR

STARTCHAR cns4_2735
ENCODING 10037
SWIDTH 960 0
DWIDTH 24 0
BBX 24 24 0 -2
BITMAP
020018
83A0FC
633FC0
3630C0
1C30C0
1830C0
1C30C0
3430C0
6630C6
463FFF
8E30C0
0E30C0
1E30C0
1630C0
363060
263060
463062
863032
063392
063E1A
06180E
0E0007
FC3FF3
180000
ENDCHAR

STARTCHAR cns4_2736
ENCODING 10038
SWIDTH 960 0
DWIDTH 24 0
BBX 24 24 0 -2
BITMAP
040040
872070
663860
3C3060
1C3060
183062
1C21FF
346466
664766
46C666
8E7466
0E1C66
1E0866
161866
361066
263466
466266
86C266
06FEC6
0662C6
060186
0E0106
FC027C
180418
ENDCHAR

STARTCHAR cns4_2737
ENCODING 10039
SWIDTH 960 0
DWIDTH 24 0
BBX 24 24 0 -2
BITMAP
040080
0700E0
0600C8
0620C4
FFF0C6
0600C4
0600C0
0600C0
4660C6
7FEFFF
6660C0
6660C0
6660C0
6661A0
6661A0
6661B0
666310
666318
666618
66E60C
464C0C
061806
063007
044002
ENDCHAR

STARTCHAR cns4_2738
ENCODING 10040
SWIDTH 960 0
DWIDTH 24 0
BBX 24 24 0 -2
BITMAP
020100
8381C0
63018C
360186
1C0184
180180
1C0186
34FFFF
660180
460180
8E1190
0E1D9C
1E1998
161998
361998
261998
461998
861198
06319E
06218F
064180
0E8180
FC0180
180100
ENDCHAR

STARTCHAR cns4_2739
ENCODING 10041
SWIDTH 960 0
DWIDTH 24 0
BBX 24 24 0 -2
BITMAP
044000
877000
466000
6C6000
386000
386646
3BFF7F
686666
4C6666
8C6666
1C6666
1C6666
3C6666
2C6666
6C6666
4C6666
8C6666
0C6666
0CC666
0CC67E
0C8664
1D8C40
F97C00
321800
ENDCHAR

STARTCHAR cns4_273A
ENCODING 10042
SWIDTH 960 0
DWIDTH 24 0
BBX 24 24 0 -2
BITMAP
040100
8701C0
660180
3C0180
1C0180
18218C
1C3FFE
34318C
66318C
46318C
8E318C
0E318C
1E318C
16318C
36FFFF
260300
460340
860630
060618
060C0C
061806
0E3003
FC6003
188000
ENDCHAR

STARTCHAR cns4_273B
ENCODING 10043
SWIDTH 960 0
DWIDTH 24 0
BBX 24 24 0 -2
BITMAP
000200
000380
020310
FF030C
180306
180304
180300
180306
18FFFF
1A0300
FF0300
180380
180680
1806C0
180640
180C60
180C60
181830
1F1830
F03018
60601C
00C00E
018007
020002
ENDCHAR

STARTCHAR cns4_273C
ENCODING 10044
SWIDTH 960 0
DWIDTH 24 0
BBX 24 24 0 -2
BITMAP
000400
000700
01060C
FF87FE
18060C
18060C
180C0C
18080C
18180C
1911F8
FFA030
180000
183FFC
180818
180818
180430
180630
1F8360
F001C0
600360
000630
000C1C
00300F
01C004
ENDCHAR

STARTCHAR cns4_273D
ENCODING 10045
SWIDTH 960 0
DWIDTH 24 0
BBX 24 24 0 -2
BITMAP
0038C0
003060
003006
FFFFFF
003000
001802
000E02
000383
0000FF
00001E
000000
000006
FFFFFF
030000
030060
03FFF0
030060
033062
061862
061062
0C0063
0CFC7F
7F803E
380000
ENDCHAR

STARTCHAR cns4_273E
ENCODING 10046
SWIDTH 960 0
DWIDTH 24 0
BBX 24 24 0 -2
BITMAP
000000
21000C
39CFFE
3180C0
3180C0
3180C0
31A0C0
FFF0C0
3180C0
3180C0
3180C6
319FFF
3180C0
3F80C0
3180C0
3180C0
3180C0
3180C0
3180C0
3180C0
3F80C0
3180C0
2100C0
000080
ENDCHAR

STARTCHAR cns4_273F
ENCODING 10047
SWIDTH 960 0
DWIDTH 24 0
BBX 24 24 0 -2
BITMAP
000000
00000C
819FFE
FFC0C0
C980C0
C980C0
C980C0
C980C0
C980C0
C980C0
C980C6
FFBFFF
C980C0
C980C0
C980C0
C980C0
C980C0
C980C0
C980C0
FF80C0
C100C0
8000C0
0000C0
000080
ENDCHAR

STARTCHAR cns4_2740
ENCODING 10048
SWIDTH 960 0
DWIDTH 24 0
BBX 24 24 0 -2
BITMAP
080800
0E0E00
0C0C00
8C8C00
FFCC06
CC8FFF
CC8C06
CC9806
CC9806
FF9006
CCA406
CC8306
CC8186
CC80C6
FF80C6
CC8006
8C0006
0C0006
0C0006
0C000E
0C000C
0C001C
0C03F8
080030
ENDCHAR

STARTCHAR cns4_2741
ENCODING 10049
SWIDTH 960 0
DWIDTH 24 0
BBX 24 24 0 -2
BITMAP
001000
001C00
081830
0FFFF8
0C1830
0C1830
0C1830
0FFFF0
0C1830
0C1830
0C1830
0FFFF0
090100
01C1C0
018180
018186
FFFFFF
018180
030180
030180
060180
0C0180
180180
600100
ENDCHAR

STARTCHAR cns4_2742
ENCODING 10050
SWIDTH 960 0
DWIDTH 24 0
BBX 24 24 0 -2
BITMAP
000000
000000
408000
7FC842
648E73
648C63
6498C6
6498C6
64908C
64B188
64A118
7FE210
64C620
64A318
64B188
64988C
6498C6
648C66
648C63
7F8C63
608842
400000
000000
000000
ENDCHAR

STARTCHAR cns4_2743
ENCODING 10051
SWIDTH 960 0
DWIDTH 24 0
BBX 24 24 0 -2
BITMAP
000C00
000600
080406
0FFFFF
8C0000
4C0000
6C000C
4DFFFE
0C0600
0C0600
0C0600
0C0600
1C0700
6C06C0
CC0660
4C0630
0C0618
0C0618
180600
180600
300600
200600
400600
800400
ENDCHAR

STARTCHAR cns4_2744
ENCODING 10052
SWIDTH 960 0
DWIDTH 24 0
BBX 24 24 0 -2
BITMAP
000C00
000600
080406
0FFFFF
0C0000
8C00E0
4C07F0
6CFE00
3C0600
2C0600
0C0600
0C0600
0C060C
0DFFFE
1C0600
6C0600
CC0600
8C0604
0C0604
180604
100606
3007FE
2003FC
400000
ENDCHAR

STARTCHAR cns4_2745
ENCODING 10053
SWIDTH 960 0
DWIDTH 24 0
BBX 24 24 0 -2
BITMAP
000C00
000600
080406
0FFFFF
0C0000
8C1000
4C1C00
6C1800
4C1800
0C1860
0DFFF0
0C1860
0C1860
1C1860
6C1860
CC3460
0C3662
0C3362
186362
186062
10C063
31807F
23003E
440000
ENDCHAR

STARTCHAR cns4_2746
ENCODING 10054
SWIDTH 960 0
DWIDTH 24 0
BBX 24 24 0 -2
BITMAP
040100
0701C0
060180
466180
7FF180
666180
664198
669FFC
660198
66C198
7FE198
60C198
60C598
70C318
6D8198
6581D8
63035A
63831A
46C21A
44661A
4C4C1B
98081F
90100E
202000
ENDCHAR

STARTCHAR cns4_2747
ENCODING 10055
SWIDTH 960 0
DWIDTH 24 0
BBX 24 24 0 -2
BITMAP
002000
001800
000C00
000806
FFFFFF
060000
060000
060000
060000
060000
07FFF8
03FFFC
000000
000000
080030
0FFFF8
0C6630
0C6630
0C6630
0C6630
0C6630
0C6636
FFFFFF
000000
ENDCHAR

STARTCHAR cns4_2748
ENCODING 10056
SWIDTH 960 0
DWIDTH 24 0
BBX 24 24 0 -2
BITMAP
000060
0FFFF0
001800
001800
001800
001800
001800
00180C
7FFFFE
001800
001800
001800
001800
001800
001000
080030
0FFFF8
0C6630
0C6630
0C6630
0C6630
0C6636
FFFFFF
000000
ENDCHAR

STARTCHAR cns4_2749
ENCODING 10057
SWIDTH 960 0
DWIDTH 24 0
BBX 24 24 0 -2
BITMAP
000000
000018
1FFFFC
001800
001800
001800
001800
001800
001800
00180C
7FFFFE
000000
000000
000000
080030
0FFFF8
0C6630
0C6630
0C6630
0C6630
0C6630
0C6636
FFFFFF
000000
ENDCHAR

STARTCHAR cns4_274A
ENCODING 10058
SWIDTH 960 0
DWIDTH 24 0
BBX 24 24 0 -2
BITMAP
000000
430006
7FBFFF
630186
630186
630186
630186
632186
7F1986
630D86
630786
630386
630186
630186
7F0186
630306
630306
630606
630606
630C06
7F1806
62300E
4061FC
008018
ENDCHAR

STARTCHAR cns4_274B
ENCODING 10059
SWIDTH 960 0
DWIDTH 24 0
BBX 24 24 0 -2
BITMAP
000000
431030
7F9FF8
631830
631830
631830
631830
631830
7F1830
631C30
631A30
631B30
6319B0
631930
7F1830
631830
631832
631832
631832
633032
7F3033
62603F
40C01E
010000
ENDCHAR

STARTCHAR cns4_274C
ENCODING 10060
SWIDTH 960 0
DWIDTH 24 0
BBX 24 24 0 -2
BITMAP
000800
430E00
7F8C00
630C00
630C00
630C30
637FF8
630C30
7F0C30
630C30
630C30
630E30
630D30
630DB0
7F0DB0
630C30
630C32
630C32
631832
631832
7F3033
62203F
40401E
008000
ENDCHAR

STARTCHAR cns4_274D
ENCODING 10061
SWIDTH 960 0
DWIDTH 24 0
BBX 24 24 0 -2
BITMAP
000000
430038
7F81FC
633F80
630180
630180
630180
630180
7F0180
630180
630186
637FFF
630180
630180
7F0180
630180
630180
630180
630180
630180
7F0180
620180
400180
000100
ENDCHAR

STARTCHAR cns4_274E
ENCODING 10062
SWIDTH 960 0
DWIDTH 24 0
BBX 24 24 0 -2
BITMAP
000008
41800E
7FC01C
618030
618060
6180C0
618300
618C04
7F8007
61800E
618018
618030
6180C0
618300
7F8C00
618004
61800F
61801C
618038
618060
7F80C0
610300
400C00
000000
ENDCHAR

STARTCHAR cns4_274F
ENCODING 10063
SWIDTH 960 0
DWIDTH 24 0
BBX 24 24 0 -2
BITMAP
000000
430018
7FBFFC
630018
630018
631618
631318
631198
7F1118
631830
630830
630830
630C60
630460
7F06C0
6302C0
630380
630380
6306C0
630C60
7F1830
62301C
40C00F
030004
ENDCHAR

STARTCHAR cns4_2750
ENCODING 10064
SWIDTH 960 0
DWIDTH 24 0
BBX 24 24 0 -2
BITMAP
040060
07FFF0
060060
060060
07FFE0
060060
060060
07FFE0
060060
060060
07FFE0
050100
01C1C0
018180
018186
FFFFFF
018180
018180
030180
030180
060180
0C0180
300180
C00100
ENDCHAR

STARTCHAR cns4_2751
ENCODING 10065
SWIDTH 960 0
DWIDTH 24 0
BBX 24 24 0 -2
BITMAP
00C200
7FE380
00C300
018300
230306
1403FF
0C0606
08C606
FFEC06
0CC806
1C9206
1D0106
3C0186
2C00C6
6C00C6
4C0006
8C0006
0C0006
0C0006
0C000E
0C000C
0C001C
7C01F8
180030
ENDCHAR

STARTCHAR cns4_2752
ENCODING 10066
SWIDTH 960 0
DWIDTH 24 0
BBX 24 24 0 -2
BITMAP
030400
FF8700
030600
03060C
030FFE
030CC0
4308C0
7F18C0
6210C0
6020C0
C000C0
C300C6
FFBFFF
8300C0
0300C0
0301A0
030198
03030C
03030C
030606
030C07
071803
7E3003
0C4000
ENDCHAR

STARTCHAR cns4_2753
ENCODING 10067
SWIDTH 960 0
DWIDTH 24 0
BBX 24 24 0 -2
BITMAP
000000
00000C
019FFE
FFC00C
18000C
180B0C
18098C
1808CC
300898
330C18
3F8418
730430
730630
B30220
330360
3301C0
3301C0
330360
330620
3F0C30
321818
20300E
00C007
030002
ENDCHAR

STARTCHAR cns4_2754
ENCODING 10068
SWIDTH 960 0
DWIDTH 24 0
BBX 24 24 0 -2
BITMAP
000000
018400
FFC300
180180
1801C0
1800C0
180086
187FFF
301800
331800
3F9800
731800
731800
B31800
331800
331800
331800
331800
331800
3F1800
321FFC
200FFE
000000
000000
ENDCHAR

STARTCHAR cns4_2755
ENCODING 10069
SWIDTH 960 0
DWIDTH 24 0
BBX 24 24 0 -2
BITMAP
030000
0F800C
7C1FFE
0C000C
0C0018
0C0030
0C0060
0C80C0
FFC0C0
0C00C0
1C00C0
1E00CF
2D00F0
2DBFC0
4D18C0
4C00C0
8C00C0
0C00C0
0C00C0
0C00C0
0C00C0
0C00C0
0C0FC0
080180
ENDCHAR

STARTCHAR cns4_2756
ENCODING 10070
SWIDTH 960 0
DWIDTH 24 0
BBX 24 24 0 -2
BITMAP
030800
0F8E00
7C0C00
0C0C00
0C1806
0C1FFF
0D1006
FFB006
0C2006
1C4006
1E0806
2D0606
2D8306
6D0186
4C0186
4C0006
8C0006
0C0006
0C0006
0C000E
0C000C
0C001C
0C07F8
080070
ENDCHAR

STARTCHAR cns4_2757
ENCODING 10071
SWIDTH 960 0
DWIDTH 24 0
BBX 24 24 0 -2
BITMAP
030400
078700
1C0600
6C0C06
0C0FFF
0C1800
0D1000
FFA000
0C000C
1C0FFE
1E000C
2D0018
2D8030
4D8060
4C00C0
8C0180
8C0302
0C0602
0C0C02
0C1802
0C1803
0C1FFF
0C0FFE
080000
ENDCHAR

STARTCHAR cns4_2758
ENCODING 10072
SWIDTH 960 0
DWIDTH 24 0
BBX 24 24 0 -2
BITMAP
003000
001800
201806
3FFFFF
60C306
E0C304
C18300
0303FE
0C01FF
704000
003000
001800
001006
FFFFFF
0C0000
0C0000
0C0000
0C0000
0C0000
0C0000
0C0000
0FFFF8
07FFFC
000000
ENDCHAR

STARTCHAR cns4_2759
ENCODING 10073
SWIDTH 960 0
DWIDTH 24 0
BBX 24 24 0 -2
BITMAP
003000
001800
201806
3FFFFF
60C306
E0C304
C18300
0303FE
0C11FF
701C00
001800
001800
001800
001830
1FFFF8
001800
001800
001800
001800
001800
001800
001806
FFFFFF
000000
ENDCHAR

STARTCHAR cns4_275A
ENCODING 10074
SWIDTH 960 0
DWIDTH 24 0
BBX 24 24 0 -2
BITMAP
006000
203800
201006
7FFFFF
E0C306
C0C308
018300
030380
0601FE
1880FF
E0E000
00C180
00C186
FFFFFF
018180
018180
030300
060600
1FFC00
0C1B80
0030E0
00C038
07001C
38000C
ENDCHAR

STARTCHAR cns4_275B
ENCODING 10075
SWIDTH 960 0
DWIDTH 24 0
BBX 24 24 0 -2
BITMAP
003000
001800
00080C
7FFFFE
000040
060060
0300C0
018080
008106
FFFFFF
010100
01C1C0
018180
018180
018186
FFFFFF
018180
030180
030180
060180
0C0180
180180
300180
C00100
ENDCHAR

STARTCHAR cns4_275C
ENCODING 10076
SWIDTH 960 0
DWIDTH 24 0
BBX 24 24 0 -2
BITMAP
080400
0E0700
0C0600
180600
180600
310600
318630
633FF8
E30630
360630
0C0630
080630
180630
320630
210C30
678C30
FD8C30
608C32
021832
491032
4DB033
4CA03F
C8401E
808000
ENDCHAR

STARTCHAR cns4_275D
ENCODING 10077
SWIDTH 960 0
DWIDTH 24 0
BBX 24 24 0 -2
BITMAP
000000
20000C
3FFFFE
30C30C
30C30C
30C30C
3FFFFC
100000
1C0000
18000C
1FFFFE
18000C
30000C
20000C
43000C
80C00C
00700C
00380C
00180C
00000C
00000C
000018
000FF0
000060
ENDCHAR

STARTCHAR cns4_275E
ENCODING 10078
SWIDTH 960 0
DWIDTH 24 0
BBX 24 24 0 -2
BITMAP
20000C
3FFFFE
30C30C
30C30C
30C30C
30C30C
3FFFFC
200008
003000
001800
000C00
00080C
7FFFFE
0C0000
0C0000
0C0000
0C0000
0C0000
0C0000
0C0000
0FFFFC
07FFFE
000000
000000
ENDCHAR

STARTCHAR cns4_275F
ENCODING 10079
SWIDTH 960 0
DWIDTH 24 0
BBX 24 24 0 -2
BITMAP
002000
003800
003008
00319E
1FFFF8
003060
0030C0
003186
FFFFFF
000600
001C00
007000
01E000
07600C
1C7FFE
E0CCCC
018CCC
0218CC
00198C
00318C
00C30C
030C1C
0033F8
00C070
ENDCHAR

STARTCHAR cns4_2760
ENCODING 10080
SWIDTH 960 0
DWIDTH 24 0
BBX 24 24 0 -2
BITMAP
001000
001C08
00188E
0FFFDC
001830
001860
001986
FFFFFF
000C00
003000
00C1C0
0307E0
1DFC00
E01800
07FFF0
001800
001800
1FFFFC
001802
001802
001803
001FFF
000FFE
000000
ENDCHAR

STARTCHAR cns4_2761
ENCODING 10081
SWIDTH 960 0
DWIDTH 24 0
BBX 24 24 0 -2
BITMAP
080000
0E0006
0C3FFF
0D80C0
0FC0C0
FC00C0
0C00C0
0D00C0
7F80C0
0C00C0
0C00C0
0C80C0
FFC0C0
1C00C0
1C00C0
2E00C0
2D80C0
6CC0C0
4C80C0
4C00C0
8C00C0
0C00C0
0C0FC0
080180
ENDCHAR

STARTCHAR cns4_2762
ENCODING 10082
SWIDTH 960 0
DWIDTH 24 0
BBX 24 24 0 -2
BITMAP
430184
7F9FC7
630186
630186
630186
630186
7B1186
6F1F86
631906
631806
633006
633186
637FC6
6F2186
7B0186
630186
630186
630186
630186
430186
430186
C30386
9F3F06
860604
ENDCHAR

STARTCHAR cns4_2763
ENCODING 10083
SWIDTH 960 0
DWIDTH 24 0
BBX 24 24 0 -2
BITMAP
460000
7F0006
66FFFF
666330
666330
666330
766330
6E6330
666330
666330
666330
666630
666630
6E643E
766C1F
666800
667000
666000
666000
666000
467FFE
463FFF
5E0000
840000
ENDCHAR

STARTCHAR cns4_2764
ENCODING 10084
SWIDTH 960 0
DWIDTH 24 0
BBX 24 24 0 -2
BITMAP
430400
7F8700
630600
630600
630C06
630FFF
7B0D86
6F1986
631184
632188
634180
630180
630180
6F0340
7B0340
630360
630620
630630
630C10
430C18
43180C
83300E
9F2007
064002
ENDCHAR

STARTCHAR cns4_2765
ENCODING 10085
SWIDTH 960 0
DWIDTH 24 0
BBX 24 24 0 -2
BITMAP
430100
7F81C0
630180
630180
632186
633FFF
7B6186
6F6184
634188
630180
630180
630360
630360
6F0360
7B0360
630660
630662
630662
630C62
430C62
431863
43307F
9F203E
864000
ENDCHAR

STARTCHAR cns4_2766
ENCODING 10086
SWIDTH 960 0
DWIDTH 24 0
BBX 24 24 0 -2
BITMAP
430000
7F8018
633FFC
630318
630318
630318
7B0318
6F0318
630318
630318
63031A
637FFF
630618
6F0618
7B0618
630618
630618
630618
630618
430618
430618
430618
9F3FFE
860000
ENDCHAR

STARTCHAR cns4_2767
ENCODING 10087
SWIDTH 960 0
DWIDTH 24 0
BBX 24 24 0 -2
BITMAP
430800
7F8E00
630C06
630FFF
631800
63100C
7B2FFE
6F4000
630018
631FFC
630018
630030
630060
6F00C0
7B0180
630300
630600
630C02
631802
433002
433003
433FFF
9F1FFE
860000
ENDCHAR

STARTCHAR cns4_2768
ENCODING 10088
SWIDTH 960 0
DWIDTH 24 0
BBX 24 24 0 -2
BITMAP
430000
7F8018
630FFC
6300C0
6300C0
6300C0
7B00C0
6F00C0
6300C0
6300C0
6300C6
633FFF
6300C0
6F00C0
7B00C0
6300C0
6300C0
6300C0
6300C0
4300C0
4300C0
4300CC
9F1FFE
860000
ENDCHAR

STARTCHAR cns4_2769
ENCODING 10089
SWIDTH 960 0
DWIDTH 24 0
BBX 24 24 0 -2
BITMAP
430420
7F8710
630608
630C0C
630806
631007
7B2002
6F5FFC
630300
630300
630600
630600
630C0C
6F1FFE
7B080C
63000C
63000C
63000C
63000C
43000C
43000C
43001C
9F03F8
860030
ENDCHAR

STARTCHAR cns4_276A
ENCODING 10090
SWIDTH 960 0
DWIDTH 24 0
BBX 24 24 0 -2
BITMAP
001000
001C00
001818
001FFC
201800
201806
3FFFFF
600006
C00006
440064
07FFE8
060060
066060
061C60
060C60
060060
0603E0
061C60
06F060
046060
0C0060
080060
1007E0
2000C0
ENDCHAR

STARTCHAR cns4_276B
ENCODING 10091
SWIDTH 960 0
DWIDTH 24 0
BBX 24 24 0 -2
BITMAP
080400
0E0E00
0C1820
0C7070
0C18C0
0C0D80
0C0620
0C0C10
0C31F8
0CFE0C
0C700C
0C0000
0C3FF8
0C3018
0C3718
0C31D8
0C30D8
083018
182078
186198
105E18
208818
4101F8
820030
ENDCHAR

STARTCHAR cns4_276C
ENCODING 10092
SWIDTH 960 0
DWIDTH 24 0
BBX 24 24 0 -2
BITMAP
000000
406000
7FF00C
6307FE
63020C
63020C
63020C
63020C
63320C
7FF90C
603118
603118
603118
6030B0
7FF0F0
632060
630060
6300E0
6301B0
630198
63231C
FFF60E
400C07
003002
ENDCHAR

STARTCHAR cns4_276D
ENCODING 10093
SWIDTH 960 0
DWIDTH 24 0
BBX 24 24 0 -2
BITMAP
008000
00E000
00C060
01FFF0
018060
030060
0600C0
0C1F80
30C300
03E018
1E03FC
180018
180018
180018
180018
1FC3F8
180018
180018
180018
180018
180018
1FFFF8
180010
100000
ENDCHAR

STARTCHAR cns4_276E
ENCODING 10094
SWIDTH 960 0
DWIDTH 24 0
BBX 24 24 0 -2
BITMAP
000004
00C007
7FE206
060386
060306
060306
060306
062306
FFF306
060306
060306
060306
060306
466306
7FF306
606306
6067FE
606206
606006
606006
606006
7FE006
604006
400004
ENDCHAR

STARTCHAR cns4_276F
ENCODING 10095
SWIDTH 960 0
DWIDTH 24 0
BBX 24 24 0 -2
BITMAP
0E0000
0C0006
081FFF
518006
7FC00C
618018
618030
798060
6D8060
698060
618060
67C060
F98060
E18060
618060
798060
6D8060
698060
618060
618060
618060
418060
4F87E0
8300C0
ENDCHAR

STARTCHAR cns4_2770
ENCODING 10096
SWIDTH 960 0
DWIDTH 24 0
BBX 24 24 0 -2
BITMAP
020004
038007
030006
266106
3FF1C6
306186
346186
326186
336186
326186
306186
33F986
FC6186
F06186
346186
326186
336186
326186
306106
206006
206006
406006
47E0FE
80C00C
ENDCHAR

STARTCHAR cns4_2771
ENCODING 10097
SWIDTH 960 0
DWIDTH 24 0
BBX 24 24 0 -2
BITMAP
040080
0700E0
0600C0
2CC0C0
3FE0C0
30C0C0
30C0C0
38C0C0
36C0C0
32C0C0
30C0C0
37E1A0
FCC1A0
F0C1A0
30C1A0
38C190
34C310
36C310
34C618
30C608
20CC0C
60C806
47D007
81A002
ENDCHAR

STARTCHAR cns4_2772
ENCODING 10098
SWIDTH 960 0
DWIDTH 24 0
BBX 24 24 0 -2
BITMAP
040040
070070
064062
FFE7FF
060060
061060
041C40
001800
201806
3FFFFF
601806
C01806
401804
003708
003600
006600
006600
00C602
018602
030602
060603
0C07FF
3003FE
C00000
ENDCHAR

STARTCHAR cns4_2773
ENCODING 10099
SWIDTH 960 0
DWIDTH 24 0
BBX 24 24 0 -2
BITMAP
040040
070070
064062
FFE7FF
060060
060060
040040
003010
3FF81C
003018
003018
103018
1FF018
180018
300018
301818
7FFC18
201818
001818
001818
001818
003018
3FE018
00C010
ENDCHAR

STARTCHAR cns4_2774
ENCODING 10100
SWIDTH 960 0
DWIDTH 24 0
BBX 24 24 0 -2
BITMAP
040040
070070
064062
FFE7FF
060060
060060
040040
000018
3FFFFC
001800
001800
001800
001806
FFFFFF
003400
003400
006200
00C300
018180
0300C0
060060
0C0038
30001F
C0000C
ENDCHAR

STARTCHAR cns4_2775
ENCODING 10101
SWIDTH 960 0
DWIDTH 24 0
BBX 24 24 0 -2
BITMAP
040040
070070
064062
FFE7FF
060060
060060
040040
00000C
7FFFFE
018000
018000
0180C0
01FFE0
0180C0
0300C0
0300C0
0300C0
07FFC0
020180
000180
000180
000186
FFFFFF
000000
ENDCHAR

STARTCHAR cns4_2776
ENCODING 10102
SWIDTH 960 0
DWIDTH 24 0
BBX 24 24 0 -2
BITMAP
040040
070070
064062
FFE7FF
060060
060060
040040
20000C
3FFFFE
30000C
30018C
33FFCC
30818C
30418C
30630C
30360C
301E0C
30338C
3060EC
31806C
36000C
30000C
3001FC
200018
ENDCHAR

STARTCHAR cns4_2777
ENCODING 10103
SWIDTH 960 0
DWIDTH 24 0
BBX 24 24 0 -2
BITMAP
040040
070070
060062
FFE7FF
060060
060060
041040
001C00
001800
20180C
3FFFFE
30180C
30180C
30180C
30180C
3FFFFC
201808
001800
001800
001800
001800
001800
001800
001000
ENDCHAR

STARTCHAR cns4_2778
ENCODING 10104
SWIDTH 960 0
DWIDTH 24 0
BBX 24 24 0 -2
BITMAP
040040
070070
064062
FFE7FF
060060
060060
000040
040200
070380
060300
0C0300
180300
1C03C0
3C0330
2C031C
4C030E
8C0306
0C0300
0C0300
0C0300
0C0300
0C0300
0C0300
080200
ENDCHAR

STARTCHAR cns4_2779
ENCODING 10105
SWIDTH 960 0
DWIDTH 24 0
BBX 24 24 0 -2
BITMAP
070070
060060
FFE7FF
060060
060060
041040
081C00
0E1800
0C1800
0C1860
19FFF0
181860
301860
381860
581860
981060
183062
183062
182062
186062
184063
18807F
19003E
120000
ENDCHAR

STARTCHAR cns4_277A
ENCODING 10106
SWIDTH 960 0
DWIDTH 24 0
BBX 24 24 0 -2
BITMAP
070070
064062
FFE7FF
060060
060040
000000
080030
0EFFF8
0C1830
0C1830
181860
181866
3018FF
381846
581806
981806
183006
183006
182006
18600E
18400C
18801C
1907F8
120030
ENDCHAR

STARTCHAR cns4_277B
ENCODING 10107
SWIDTH 960 0
DWIDTH 24 0
BBX 24 24 0 -2
BITMAP
070070
060062
FFE7FF
060060
060060
040040
200006
3FFFFF
300000
300000
310030
31FFF8
318030
318030
318030
318030
3187F0
318062
318002
218002
218003
41FFFF
40FFFE
800000
ENDCHAR

STARTCHAR cns4_277C
ENCODING 10108
SWIDTH 960 0
DWIDTH 24 0
BBX 24 24 0 -2
BITMAP
040040
070070
064062
FFE7FF
060060
060060
040040
00001C
080FFE
0FF840
0C1840
0C1840
0C1860
0C1860
0C1820
0C1830
0C1830
0C1810
181818
181818
30180C
20180E
401007
800004
ENDCHAR

STARTCHAR cns4_277D
ENCODING 10109
SWIDTH 960 0
DWIDTH 24 0
BBX 24 24 0 -2
BITMAP
060060
064062
FFE7FF
060060
060060
040C40
000300
008180
00E0C0
018060
030030
06201C
0C380F
303004
C06000
006000
00C080
018060
030030
060018
0C0FFC
1FF80C
1FC00C
0C0008
ENDCHAR

STARTCHAR cns4_277E
ENCODING 10110
SWIDTH 960 0
DWIDTH 24 0
BBX 24 24 0 -2
BITMAP
040040
070070
064062
FFE7FF
060060
040040
000000
040080
0700E0
0600C0
0600C0
0600C0
0600C0
0600E0
0D01A0
0C81A0
0CC1B0
086310
183318
102618
300C0C
20180E
403007
80C002
ENDCHAR

STARTCHAR cns4_2821
ENCODING 10273
SWIDTH 960 0
DWIDTH 24 0
BBX 24 24 0 -2
BITMAP
040040
070070
064062
FFE7FF
060060
061060
041C40
001800
001860
001FF0
1FF800
001800
001830
1FFFF8
001800
001800
001806
FFFFFF
001800
001800
001800
001800
001800
001000
ENDCHAR

STARTCHAR cns4_2822
ENCODING 10274
SWIDTH 960 0
DWIDTH 24 0
BBX 24 24 0 -2
BITMAP
000000
20000C
3FFFFE
300000
300800
300E00
300C00
320C30
33FFF8
330C30
330C30
330C30
330C30
33FFF0
320C20
300C10
300C08
300FFC
37F80C
338008
300002
7FFFFF
200000
000000
ENDCHAR

STARTCHAR cns4_2823
ENCODING 10275
SWIDTH 960 0
DWIDTH 24 0
BBX 24 24 0 -2
BITMAP
104000
1C700C
18607E
306000
306000
686000
4E6600
8DFF06
0C66FF
186618
186618
306618
386618
586618
586618
986618
186698
18C698
18C698
1887D8
198398
190018
1A00F8
100030
ENDCHAR

STARTCHAR cns4_2824
ENCODING 10276
SWIDTH 960 0
DWIDTH 24 0
BBX 24 24 0 -2
BITMAP
100000
1C0004
1820FE
303800
203000
483000
8E3000
0C3006
0C31FF
183018
183018
303018
386818
786C18
586418
984618
18C218
18C318
188198
198118
190018
1A0018
1800F8
100030
ENDCHAR

STARTCHAR cns4_2825
ENCODING 10277
SWIDTH 960 0
DWIDTH 24 0
BBX 24 24 0 -2
BITMAP
000000
000018
40FFFC
300318
180318
184318
007FF8
186310
FCC300
18C30C
19FFFE
30830C
24030C
7E030C
0C030C
0C031C
0C03F8
180330
180300
300300
FC0200
C78000
01FFFF
007FFC
ENDCHAR

STARTCHAR cns4_2826
ENCODING 10278
SWIDTH 960 0
DWIDTH 24 0
BBX 24 24 0 -2
BITMAP
000000
000018
407FFC
300000
180000
180000
00000C
18FFFE
FC0300
180300
180600
300600
240C10
7E0C08
0C180C
0C30FE
0C7F86
187C04
183000
300000
FC0000
C78000
01FFFF
007FFC
ENDCHAR

STARTCHAR cns4_2827
ENCODING 10279
SWIDTH 960 0
DWIDTH 24 0
BBX 24 24 0 -2
BITMAP
000200
000380
40030C
31FFFE
180300
180300
004318
187FFC
FC6318
186318
186318
306318
246318
7E6318
0C6318
0C6378
0C4330
180300
180300
300300
FC0200
C78000
01FFFF
007FFC
ENDCHAR

STARTCHAR cns4_2828
ENCODING 10280
SWIDTH 960 0
DWIDTH 24 0
BBX 24 24 0 -2
BITMAP
000000
401040
301C70
181860
181860
001860
001864
0CFFFE
FE1860
0C1860
0C1860
181860
301860
7E1860
061860
061860
061860
0C1FE0
0C1840
181000
FE0000
C3C000
00FFFF
003FFC
ENDCHAR

STARTCHAR cns4_2829
ENCODING 10281
SWIDTH 960 0
DWIDTH 24 0
BBX 24 24 0 -2
BITMAP
000106
0031FF
FFF986
30018C
30018C
300198
300190
3061A0
3FF198
30618C
306186
306186
306183
306183
306183
3FE183
304183
300187
3001BE
30018C
300180
303180
FFF980
000100
ENDCHAR

STARTCHAR cns4_282A
ENCODING 10282
SWIDTH 960 0
DWIDTH 24 0
BBX 24 24 0 -2
BITMAP
088086
0EE0FF
0CC0C6
0CC8C6
7FFCCC
0CC8C8
0CC8C8
0CC8D0
4CC8C8
7FF8C4
4CC0C6
4CC0C6
CCC0C3
8CCCC3
FFFEC3
98CCC3
18CCC3
18CCC7
18CCDE
30F8CC
30D0C0
60C0C0
40C0C0
808080
ENDCHAR

STARTCHAR cns4_282B
ENCODING 10283
SWIDTH 960 0
DWIDTH 24 0
BBX 24 24 0 -2
BITMAP
020106
0381FF
030186
03018C
03018C
030198
431990
7FFDA0
631998
63198C
631986
631986
631983
7FF983
631983
631983
631983
631987
6319BE
63198C
7FF980
601180
400180
000100
ENDCHAR

STARTCHAR cns4_282C
ENCODING 10284
SWIDTH 960 0
DWIDTH 24 0
BBX 24 24 0 -2
BITMAP
040106
0701FF
060186
0C418C
0C218C
183198
181990
31F9A0
7F1998
30118C
084186
0E7186
0C6183
0C6183
0C6D83
FFFF83
0C6183
0C6187
1861BE
18618C
306180
206180
406180
804100
ENDCHAR

STARTCHAR cns4_282D
ENCODING 10285
SWIDTH 960 0
DWIDTH 24 0
BBX 24 24 0 -2
BITMAP
200106
3801FF
300186
30318C
3FF98C
603198
603190
4331A0
BFB198
33318C
333186
333186
3F3183
303183
307183
33E183
30C183
301187
3011BE
30118C
301980
3FF980
1FF180
000100
ENDCHAR

STARTCHAR cns4_282E
ENCODING 10286
SWIDTH 960 0
DWIDTH 24 0
BBX 24 24 0 -2
BITMAP
000106
0001FF
000186
000186
088184
FCF98C
18C188
18C190
18C188
18C18C
18C184
18C186
18C186
18C183
18C183
18C183
18C183
18C187
18C1FE
18FD8C
FF8180
600180
000180
000100
ENDCHAR

STARTCHAR cns4_282F
ENCODING 10287
SWIDTH 960 0
DWIDTH 24 0
BBX 24 24 0 -2
BITMAP
020086
0380FF
0300C6
2330CC
3FF8CC
3330D8
3330D0
3330E0
3334D0
FFFEC8
3330CC
3330C6
3330C6
3330C3
3334C3
FFFEC3
3030C3
3030C7
3030FE
3030CC
3030C0
3030C0
30F0C0
202080
ENDCHAR

STARTCHAR cns4_2830
ENCODING 10288
SWIDTH 960 0
DWIDTH 24 0
BBX 24 24 0 -2
BITMAP
8C400C
FE7FFE
CC600C
CC600C
CC600C
D8600C
D07FFC
E06008
D06200
D86380
CC6300
CC6330
C66FF8
C66330
C66330
C66330
CE6330
FC6332
D86232
C0C632
C0C433
C0883F
C1101E
822000
ENDCHAR

STARTCHAR cns4_2831
ENCODING 10289
SWIDTH 960 0
DWIDTH 24 0
BBX 24 24 0 -2
BITMAP
461000
7F1C00
661800
661806
663FFF
6C3006
686006
70C006
690006
6C10C6
661FE6
6618C6
6318C6
6318C6
6318C6
6318C6
671FC6
7E1086
6C0006
600006
600006
60000E
6000FC
400018
ENDCHAR

STARTCHAR cns4_2832
ENCODING 10290
SWIDTH 960 0
DWIDTH 24 0
BBX 24 24 0 -2
BITMAP
430000
7F8006
633FFF
630306
630306
660306
640306
680606
640606
660C0E
6308FC
631018
61A000
618806
618FFF
618C06
638C06
7F0C06
660C06
600C06
600C06
600FFE
600C04
400800
ENDCHAR

STARTCHAR cns4_2833
ENCODING 10291
SWIDTH 960 0
DWIDTH 24 0
BBX 24 24 0 -2
BITMAP
43001C
7FA0FE
633F00
633000
63300C
663FFE
64300C
68300C
64300C
663FFC
633000
633018
61B7FC
61B018
61B030
61B060
63B0C0
7F3182
662302
606602
604603
60C7FF
6083FE
410000
ENDCHAR

STARTCHAR cns4_2834
ENCODING 10292
SWIDTH 960 0
DWIDTH 24 0
BBX 24 24 0 -2
BITMAP
040060
07FFF0
060060
060060
060060
07FFE0
000000
100018
1FFFFC
181818
181818
181818
1FFFF8
181818
181818
181818
1FFFF8
101812
001802
001802
001803
001FFF
000FFE
000000
ENDCHAR

STARTCHAR cns4_2835
ENCODING 10293
SWIDTH 960 0
DWIDTH 24 0
BBX 24 24 0 -2
BITMAP
040200
076380
063300
062300
060300
FFF300
060318
060FFC
064318
866318
66C318
368318
270318
060318
070318
0EC318
366318
E63319
463619
060619
060C19
06081F
3E100F
0C2000
ENDCHAR

STARTCHAR cns4_2836
ENCODING 10294
SWIDTH 960 0
DWIDTH 24 0
BBX 24 24 0 -2
BITMAP
100040
1D0070
188060
18C060
184460
300768
342664
322666
632663
726663
B04460
B04C60
30C864
309067
308066
31804C
370018
330030
330060
3180C0
318180
318300
318C00
203000
ENDCHAR

STARTCHAR cns4_2837
ENCODING 10295
SWIDTH 960 0
DWIDTH 24 0
BBX 24 24 0 -2
BITMAP
080200
0E0388
0C830C
0C6318
183310
1823A0
1006C0
380C60
381830
58301C
58600F
999024
181C38
181830
181830
181832
19FFFF
181830
181830
183030
182030
184030
188030
110020
ENDCHAR

STARTCHAR cns4_2838
ENCODING 10296
SWIDTH 960 0
DWIDTH 24 0
BBX 24 24 0 -2
BITMAP
040200
070380
06030C
067FFE
0C0300
0C0300
184306
187FFF
30C006
398064
58BFF0
580060
9800C0
180180
180300
180306
18FFFF
180300
180300
180300
180300
180300
183F00
100600
ENDCHAR

STARTCHAR cns4_2839
ENCODING 10297
SWIDTH 960 0
DWIDTH 24 0
BBX 24 24 0 -2
BITMAP
080000
0E0006
0DFFFF
0C6640
186670
186660
106660
387E60
386660
586660
586660
986660
187E60
186660
186660
186660
186662
186662
187E62
19E662
18C663
18067F
18063E
100400
ENDCHAR

STARTCHAR cns4_283A
ENCODING 10298
SWIDTH 960 0
DWIDTH 24 0
BBX 24 24 0 -2
BITMAP
084000
0E7006
0C611F
0C61F0
186180
186180
13FD80
386182
3861FF
58618C
58618C
98618C
187D8C
1BE18C
19618C
18618C
18618C
18618C
18630C
18630C
18620C
18660C
1BE40C
10C808
ENDCHAR

STARTCHAR cns4_283B
ENCODING 10299
SWIDTH 960 0
DWIDTH 24 0
BBX 24 24 0 -2
BITMAP
080100
0E41C4
0C7187
0C6186
186186
18FFFE
104004
380030
38FFF8
581830
581830
981860
18186C
181FFE
18340C
18320C
183318
1861B0
1860E0
18C0E0
1881B0
19031C
1A0C0F
107002
ENDCHAR

STARTCHAR cns4_283C
ENCODING 10300
SWIDTH 960 0
DWIDTH 24 0
BBX 24 24 0 -2
BITMAP
080000
0E0018
0C20FC
0C3F80
183000
183000
10300C
383FFE
383030
583030
583030
983030
183030
183030
183032
19FFFF
180000
181020
181818
18300C
186006
18C007
198003
120000
ENDCHAR

STARTCHAR cns4_283D
ENCODING 10301
SWIDTH 960 0
DWIDTH 24 0
BBX 24 24 0 -2
BITMAP
100000
1C000C
1BFFFE
1818C0
1818C0
3018C0
3218C6
23FFFF
7318C6
7318C6
B318C6
3318C6
3314A6
3336B6
33259E
336116
334306
338206
330406
330006
330006
330006
33007E
22000C
ENDCHAR

STARTCHAR cns4_283E
ENCODING 10302
SWIDTH 960 0
DWIDTH 24 0
BBX 24 24 0 -2
BITMAP
084018
0E7FFC
0C6318
0C6318
186318
187FF8
106318
306318
386318
587FF8
984410
180700
180600
18060C
19FFFE
180C0C
180C0C
180C0C
18180C
18180C
18300C
18601C
18C3F8
110070
ENDCHAR

STARTCHAR cns4_283F
ENCODING 10303
SWIDTH 960 0
DWIDTH 24 0
BBX 24 24 0 -2
BITMAP
081000
0E1C00
0C1800
0C300C
183FFE
186830
184830
308460
3906C0
780380
5806C0
981830
18611F
19838C
180620
181870
1860C0
180304
180C0E
187018
180070
1801C0
180E00
10F000
ENDCHAR

STARTCHAR cns4_2840
ENCODING 10304
SWIDTH 960 0
DWIDTH 24 0
BBX 24 24 0 -2
BITMAP
00C100
7FE1C0
000180
000180
000310
000308
00630C
FFF63C
198FCC
198608
198000
198418
1987FC
198618
198618
198618
198618
1987FA
198612
318402
318003
61FFFF
40FFFE
800000
ENDCHAR

STARTCHAR cns4_2841
ENCODING 10305
SWIDTH 960 0
DWIDTH 24 0
BBX 24 24 0 -2
BITMAP
000200
400380
300300
180306
1AFFFF
020300
024310
04731C
046318
044310
08E338
08932C
191B46
120A82
300680
E006C0
600C40
600C60
301830
303018
30601C
30C00E
318007
060002
ENDCHAR

STARTCHAR cns4_2842
ENCODING 10306
SWIDTH 960 0
DWIDTH 24 0
BBX 24 24 0 -2
BITMAP
000006
40FFFF
300000
181084
1A18C6
02318C
066318
04C630
044210
0C2108
08318C
1818C6
1818C6
300000
307FFE
F00180
600180
600180
700180
300180
300180
300186
30FFFF
000000
ENDCHAR

STARTCHAR cns4_2843
ENCODING 10307
SWIDTH 960 0
DWIDTH 24 0
BBX 24 24 0 -2
BITMAP
00000C
407FFE
20000C
30000C
19FFFF
10000C
02000C
027FFC
040008
048006
0CFFFF
098006
1B0004
190030
307FF8
F01030
601030
600860
3004C0
300380
3006C0
301838
30600F
018004
ENDCHAR

STARTCHAR cns4_2844
ENCODING 10308
SWIDTH 960 0
DWIDTH 24 0
BBX 24 24 0 -2
BITMAP
001804
3FFC07
001806
001846
FFFE76
001866
001866
3FF866
000066
400666
7FFF66
C00666
800466
3FF066
103066
083066
0C6066
06C066
038046
06C006
0C7006
183806
60183E
80000C
ENDCHAR

STARTCHAR cns4_2845
ENCODING 10309
SWIDTH 960 0
DWIDTH 24 0
BBX 24 24 0 -2
BITMAP
020004
038007
030806
FFFC86
0300E6
4318C6
7FFCC6
6318C6
6318C6
6318C6
7FF8C6
6318C6
6318C6
6318C6
7FF8C6
4310C6
0300C6
0308C6
FFFC86
030006
030006
030006
03007E
02000C
ENDCHAR

STARTCHAR cns4_2846
ENCODING 10310
SWIDTH 960 0
DWIDTH 24 0
BBX 24 24 0 -2
BITMAP
020004
03B007
031806
031086
FFFCE6
0300C6
0300C6
4318C6
7FFCC6
6318C6
6318C6
6318C6
7FF8C6
6318C6
6318C6
6318C6
7FF8C6
6318C6
631886
631806
631806
631806
62F87E
40300C
ENDCHAR

STARTCHAR cns4_2847
ENCODING 10311
SWIDTH 960 0
DWIDTH 24 0
BBX 24 24 0 -2
BITMAP
020004
038007
031006
03F886
0300E6
0300C6
0300C6
830CC6
FFFEC6
CCCCC6
CCCCC6
CCCCC6
CCCCC6
CCCCC6
CCCCC6
FFFCC6
CCCCC6
CCCCC6
CCCCC6
CCCC86
CCCC06
CCCC06
C8BC7E
80080C
ENDCHAR

STARTCHAR cns4_2848
ENCODING 10312
SWIDTH 960 0
DWIDTH 24 0
BBX 24 24 0 -2
BITMAP
003004
01F807
0F0006
F81086
001CE6
0818C6
8630C6
6320C6
3240C6
2000C6
0040C6
0070C6
0064C6
FFFEC6
0060C6
2060C6
1060C6
1860C6
0C6086
086006
006006
006006
07E07E
00C00C
ENDCHAR

STARTCHAR cns4_2849
ENCODING 10313
SWIDTH 960 0
DWIDTH 24 0
BBX 24 24 0 -2
BITMAP
0C0080
0600E0
4460C0
7FF0C0
6060C0
6060C6
606FFF
7FE0C6
6060C6
6060C6
6060C6
7FE0C6
6020C6
7070C6
6CE0C6
6780C6
630186
618186
60C106
60E306
606206
6E440E
7808FC
301018
ENDCHAR

STARTCHAR cns4_284A
ENCODING 10314
SWIDTH 960 0
DWIDTH 24 0
BBX 24 24 0 -2
BITMAP
020080
0380E0
0360C0
0330C0
0310C0
0300C6
FFFBFF
0300C6
0330C6
4330C6
2360C6
3340C6
1B80C6
1B00C6
0380C6
036186
0F3186
331986
E31906
430306
030206
03040E
3F087C
061018
ENDCHAR

STARTCHAR cns4_284B
ENCODING 10315
SWIDTH 960 0
DWIDTH 24 0
BBX 24 24 0 -2
BITMAP
006080
FFF0E0
0060C0
30C0C0
0D80C0
0600C0
8330C6
FFF7FF
C630C6
C630C6
C630C6
FFF0C6
C630C6
C630C6
C630C6
C630C6
FFF086
C63186
C63186
C63106
C63306
C6320E
C4F47C
806818
ENDCHAR

STARTCHAR cns4_284C
ENCODING 10316
SWIDTH 960 0
DWIDTH 24 0
BBX 24 24 0 -2
BITMAP
100000
1C0000
18000C
1FFFFE
19C00C
31860C
23030C
47FF8C
818C8C
030C0C
060F8C
18E7CC
06C00C
03FF0C
01830C
03C60C
066C0C
18380C
006C0C
00C70C
0301CC
1C0098
0003F0
000060
ENDCHAR

STARTCHAR cns4_284D
ENCODING 10317
SWIDTH 960 0
DWIDTH 24 0
BBX 24 24 0 -2
BITMAP
400400
700700
60C600
7FE600
600600
600600
7FC600
3FE606
2007FF
380600
30C600
3FE600
660600
460600
860600
066600
FFF602
060602
0D0602
0C8602
18C603
3067FF
6063FE
800000
ENDCHAR

STARTCHAR cns4_284E
ENCODING 10318
SWIDTH 960 0
DWIDTH 24 0
BBX 24 24 0 -2
BITMAP
40000C
7FFFFE
600000
604080
6470E0
6760C0
6660C0
6660C0
6660C0
67E0C8
646FFC
6060C0
67E0C0
6660C0
6660C0
6660C0
6660C0
6460C0
6467F8
684000
600006
FFFFFF
400000
000000
ENDCHAR

STARTCHAR cns4_284F
ENCODING 10319
SWIDTH 960 0
DWIDTH 24 0
BBX 24 24 0 -2
BITMAP
40000C
7FFFFE
610200
61C380
618300
630304
6243FE
667618
6E6618
766A18
667318
666130
6661B0
6660E0
6660E0
6661B0
66431C
66060F
660C04
643000
600006
FFFFFF
400000
000000
ENDCHAR

STARTCHAR cns4_2850
ENCODING 10320
SWIDTH 960 0
DWIDTH 24 0
BBX 24 24 0 -2
BITMAP
20000C
3FFFFE
300400
300700
310610
31C61C
318618
33FFF8
310610
300600
300618
33FFFC
300600
300600
300660
30FFF0
300600
300600
30060C
37FFFE
300000
300006
7FFFFF
200000
ENDCHAR

STARTCHAR cns4_2851
ENCODING 10321
SWIDTH 960 0
DWIDTH 24 0
BBX 24 24 0 -2
BITMAP
001000
001C00
001830
001FF8
001800
20180C
3FFFFE
30100C
301C0C
30180C
30340C
30630C
30C1CC
3190EC
361C6C
30180C
30340C
30630C
30C1CC
3180EC
36006C
30000C
3FFFFC
200008
ENDCHAR

STARTCHAR cns4_2852
ENCODING 10322
SWIDTH 960 0
DWIDTH 24 0
BBX 24 24 0 -2
BITMAP
100040
1C0070
180060
180C60
3FFE60
200060
400060
9FF860
181878
1B186C
199866
189867
181A63
FFFF60
301860
331860
319860
309860
301860
7FFE60
203060
007060
07E060
00C040
ENDCHAR

STARTCHAR cns4_2853
ENCODING 10323
SWIDTH 960 0
DWIDTH 24 0
BBX 24 24 0 -2
BITMAP
200000
380000
31800C
3FDFFE
618330
410330
824330
7FE330
600330
68C330
6FE330
6CC330
6CC330
6CC330
6CC330
6FC330
6D8332
6C0632
6C2632
6CCC32
4D8C33
4F183F
86301E
004000
ENDCHAR

STARTCHAR cns4_2854
ENCODING 10324
SWIDTH 960 0
DWIDTH 24 0
BBX 24 24 0 -2
BITMAP
000000
200006
3FFFFF
300800
300E00
300C00
300C0C
3FFFFE
310C40
31CC70
318C60
334CD0
336C98
362D0C
340E08
381A00
301B00
303180
3060C0
20C060
218030
43001C
86000F
180004
ENDCHAR

STARTCHAR cns4_2855
ENCODING 10325
SWIDTH 960 0
DWIDTH 24 0
BBX 24 24 0 -2
BITMAP
100006
1FFFFF
180000
18800C
18FFFE
18C00C
18C00C
18C00C
18FFFC
18C00C
18C00C
18C00C
18FFFC
188208
180380
184300
187320
186310
18C30C
318306
230307
660303
481F00
800600
ENDCHAR

STARTCHAR cns4_2856
ENCODING 10326
SWIDTH 960 0
DWIDTH 24 0
BBX 24 24 0 -2
BITMAP
080000
0E0018
0C1FFC
0C0618
0C0618
7F8618
0C0618
0C0630
0C0636
0C07FF
0C8686
FFC686
0C0686
0C068C
0C064C
180658
190C78
308C30
20CC78
67D8D8
F8D98C
60B30E
002607
004802
ENDCHAR

STARTCHAR cns4_2857
ENCODING 10327
SWIDTH 960 0
DWIDTH 24 0
BBX 24 24 0 -2
BITMAP
020000
038000
030000
031806
03FDFF
030086
030086
431886
7FFC86
649886
6498C6
649844
64984C
64986C
7FF828
649838
649838
649868
64986C
6498CC
6498C6
649986
607B03
403402
ENDCHAR

STARTCHAR cns4_2858
ENCODING 10328
SWIDTH 960 0
DWIDTH 24 0
BBX 24 24 0 -2
BITMAP
000300
000180
860086
FF7FFF
C60008
C6200E
C6100C
C60818
C60C10
C60620
C60440
C60002
C6FFFF
C60180
C60180
C60180
C60180
FE0180
C40180
800180
000180
000180
000180
000100
ENDCHAR

STARTCHAR cns4_2859
ENCODING 10329
SWIDTH 960 0
DWIDTH 24 0
BBX 24 24 0 -2
BITMAP
000080
0000E8
8600C6
FF00C3
C640C2
C67FFF
C660C0
C660C0
C660C0
C660C4
C660C7
C662C6
C67FC6
C660CC
C660CC
C660D8
C660D8
FE6070
C4C062
80C0F2
00819A
01030E
020C07
043003
ENDCHAR

STARTCHAR cns4_285A
ENCODING 10330
SWIDTH 960 0
DWIDTH 24 0
BBX 24 24 0 -2
BITMAP
000100
0001C0
430180
7F818C
6301FE
630180
630180
630180
630186
637FFF
630000
630000
637FFF
630180
630180
6301C0
6301B0
7F019C
62018E
400186
000180
000180
000180
000100
ENDCHAR

STARTCHAR cns4_285B
ENCODING 10331
SWIDTH 960 0
DWIDTH 24 0
BBX 24 24 0 -2
BITMAP
000100
0001C0
430180
7F818C
6301FE
630180
630180
630180
630186
637FFF
630100
6301C0
630180
632180
633990
633188
63318C
7F6186
624187
408183
010183
000180
001F80
000300
ENDCHAR

STARTCHAR cns4_285C
ENCODING 10332
SWIDTH 960 0
DWIDTH 24 0
BBX 24 24 0 -2
BITMAP
000440
000770
860660
FF0660
C60660
C64666
C67FFF
C66666
C66666
C66666
C66666
C66666
C66666
C67FFE
C66666
C66666
C66666
FE6666
C46666
806666
006666
007FFE
006004
004000
ENDCHAR

STARTCHAR cns4_285D
ENCODING 10333
SWIDTH 960 0
DWIDTH 24 0
BBX 24 24 0 -2
BITMAP
001080
001CE8
8618C4
FF18C6
C618C3
C630C2
C630C0
C62FFF
C660C0
C660C0
C6E0C0
C760C8
C660CE
C660CC
C660CC
C660D8
C66078
FE6072
C46062
8060F2
00619A
00630F
006607
005802
ENDCHAR

STARTCHAR cns4_285E
ENCODING 10334
SWIDTH 960 0
DWIDTH 24 0
BBX 24 24 0 -2
BITMAP
100200
1C0180
1800C0
180088
181FFC
180430
1A0430
FF4432
187433
186233
186233
186263
186363
1861C3
1861C3
186363
186333
18663B
1F6C1F
F8700B
606003
00FFFF
004002
000000
ENDCHAR

STARTCHAR cns4_285F
ENCODING 10335
SWIDTH 960 0
DWIDTH 24 0
BBX 24 24 0 -2
BITMAP
000000
010030
7FBFF8
0C0630
0C0630
0C3630
0C0E30
0C0730
0C0DB2
0C1932
0FB032
F86033
60C03F
03101E
001C00
001800
001830
1FFFF8
001800
001800
001800
001806
FFFFFF
000000
ENDCHAR

STARTCHAR cns4_2860
ENCODING 10336
SWIDTH 960 0
DWIDTH 24 0
BBX 24 24 0 -2
BITMAP
000018
3FFFFC
00C300
00C310
20C31C
18C318
0CC330
06C320
04C340
00C300
00C30C
7FFFFE
001000
001C00
001800
001818
3FFFFC
001800
001800
001800
001800
001806
FFFFFF
000000
ENDCHAR

STARTCHAR cns4_2861
ENCODING 10337
SWIDTH 960 0
DWIDTH 24 0
BBX 24 24 0 -2
BITMAP
100110
1CC39C
183618
181C18
183718
18C1D8
1B00D8
1FFFF8
118180
030180
064180
0C71FC
3060FE
C4C000
02FFE0
0180C0
028180
0C4300
303600
007E00
01C380
0700F0
1C003F
E0000C
ENDCHAR

STARTCHAR cns4_2862
ENCODING 10338
SWIDTH 960 0
DWIDTH 24 0
BBX 24 24 0 -2
BITMAP
002000
003800
003000
006006
FFFFFF
00C180
0180C0
030060
060030
0C001C
37FFE7
C00002
000000
07FFE0
060060
060060
07FFE0
060060
060060
07FFE0
040040
00000C
7FFFFE
000000
ENDCHAR

STARTCHAR cns4_2863
ENCODING 10339
SWIDTH 960 0
DWIDTH 24 0
BBX 24 24 0 -2
BITMAP
002000
003800
003000
003006
FFFFFF
006200
00C180
0180E0
030038
0C021F
31038C
C1C300
018300
11830C
1DFBFE
198300
198300
198302
198302
198302
198303
19FBFF
FF01FE
600000
ENDCHAR

STARTCHAR cns4_2864
ENCODING 10340
SWIDTH 960 0
DWIDTH 24 0
BBX 24 24 0 -2
BITMAP
020200
038380
030300
230300
3B330C
33FBFE
330300
330302
330302
330303
33F3FF
FE01FE
601000
001C00
001800
001806
FFFFFF
003000
006100
00C0C0
018030
06001C
18000E
E00006
ENDCHAR

STARTCHAR cns4_2865
ENCODING 10341
SWIDTH 960 0
DWIDTH 24 0
BBX 24 24 0 -2
BITMAP
200004
380087
30FFC6
303306
323326
323336
FF3326
F23326
323326
323326
32FFE6
623326
623326
623326
E43326
543326
0C3326
0A3326
1B3326
122306
206306
404306
80833E
01020C
ENDCHAR

STARTCHAR cns4_2866
ENCODING 10342
SWIDTH 960 0
DWIDTH 24 0
BBX 24 24 0 -2
BITMAP
200800
380E00
300C00
320C0C
330FFE
3318C0
FF90C0
F320C0
3340C0
3300C0
3300C2
633FFF
6300C0
6300C0
E610C4
561CC7
0C18C6
0E18C6
1B18C6
1198C6
2198C6
403FFE
801004
000000
ENDCHAR

STARTCHAR cns4_2867
ENCODING 10343
SWIDTH 960 0
DWIDTH 24 0
BBX 24 24 0 -2
BITMAP
200000
380418
3207FC
330618
330618
FF8618
F30618
330C18
33081E
33108F
3320E0
3300C0
6300C2
637FFF
6600C0
F608C0
5C0EC8
0E0CC4
1B18C6
1390C3
21A0C3
4040C3
8080C0
000080
ENDCHAR

STARTCHAR cns4_2868
ENCODING 10344
SWIDTH 960 0
DWIDTH 24 0
BBX 24 24 0 -2
BITMAP
300018
183FFC
080000
020002
C2FFFF
660C00
24180C
0C7FFE
08200C
18000C
F0001C
3007F8
300030
310000
01C0C0
0180C6
FFFFFF
0300C0
060180
1FFB00
080FC0
0038F8
01C03C
3E000C
ENDCHAR

STARTCHAR cns4_2869
ENCODING 10345
SWIDTH 960 0
DWIDTH 24 0
BBX 24 24 0 -2
BITMAP
040000
070006
064FFF
07E186
7E0186
060186
07E106
7E0306
060206
07E40E
FE08FC
661018
062000
0580C0
0180C6
FFFFFF
0300C0
060180
1FE300
083E00
0033C0
00C078
07001C
78000C
ENDCHAR

STARTCHAR cns4_286A
ENCODING 10346
SWIDTH 960 0
DWIDTH 24 0
BBX 24 24 0 -2
BITMAP
001000
001C00
001860
0FFFF0
001800
081820
0E1038
0C0030
0C0032
FFC3FF
0C0030
0C0030
0D0020
09C0C0
0180C6
FFFFFF
0300C0
060180
0FF300
0C1F80
0038F0
00E03C
07000E
780006
ENDCHAR

STARTCHAR cns4_286B
ENCODING 10347
SWIDTH 960 0
DWIDTH 24 0
BBX 24 24 0 -2
BITMAP
001000
081C30
061860
031840
221886
3FFFFF
600006
C00004
4000C8
07FFE0
008000
00E080
00C0E0
00C0C6
FFFFFF
0180C0
0180C0
030180
07E300
061E00
003B80
00E0F0
07003C
78000C
ENDCHAR

STARTCHAR cns4_286C
ENCODING 10348
SWIDTH 960 0
DWIDTH 24 0
BBX 24 24 0 -2
BITMAP
803080
FFF8E0
C030C0
C030C0
C330C8
DFB0CE
C030CC
C037FF
C0318C
C9318C
CFB18C
C9318C
C9318C
C9330C
C93318
C937D8
CF3270
C93038
C0306C
C03066
C030C7
C03183
C1F303
806C00
ENDCHAR

STARTCHAR cns4_286D
ENCODING 10349
SWIDTH 960 0
DWIDTH 24 0
BBX 24 24 0 -2
BITMAP
20000C
3820FE
303F80
323000
333000
333204
FFB3FE
F33324
333324
333324
333324
633324
633324
6333FC
E63304
563300
0C3300
0E3302
1B3302
19B302
312303
6063FF
8041FE
008000
ENDCHAR

STARTCHAR cns4_286E
ENCODING 10350
SWIDTH 960 0
DWIDTH 24 0
BBX 24 24 0 -2
BITMAP
0000C0
03FFE0
000180
000600
000C18
3FFFFC
000C00
000C00
00FC00
001800
00000C
7FE7FE
00C00C
018018
030030
030060
03E062
0F1FFF
FB0060
630060
030060
030060
3F07E0
0600C0
ENDCHAR

STARTCHAR cns4_286F
ENCODING 10351
SWIDTH 960 0
DWIDTH 24 0
BBX 24 24 0 -2
BITMAP
020200
038380
230300
3B230C
33F3FE
330300
330302
330303
33F3FF
FE01FE
700000
0000C0
0FFFE0
000180
000600
000C00
000C06
FFFFFF
000C00
000C00
000C00
000C00
01FC00
001800
ENDCHAR

STARTCHAR cns4_2870
ENCODING 10352
SWIDTH 960 0
DWIDTH 24 0
BBX 24 24 0 -2
BITMAP
040000
070000
06000C
0FFFFE
0C000C
18060C
37FF0C
66060C
87FE0C
06060C
07FE0C
040078
000180
07FFC0
000180
000600
000C00
000C06
FFFFFF
000C00
000C00
000C00
01FC00
001800
ENDCHAR

STARTCHAR cns4_2871
ENCODING 10353
SWIDTH 960 0
DWIDTH 24 0
BBX 24 24 0 -2
BITMAP
003000
001800
201006
3FFFFF
610006
C1C004
418308
03FF80
060300
0C0618
1FFFFC
2C0000
0C8060
0CFFF0
0CC060
0CC060
0CC060
0CCFE4
0CC0C4
18C004
10C006
30FFFE
607FFC
800000
ENDCHAR

STARTCHAR cns4_2872
ENCODING 10354
SWIDTH 960 0
DWIDTH 24 0
BBX 24 24 0 -2
BITMAP
003000
001800
201006
3FFFFF
600006
C40064
47FFF0
060060
060060
07FFE0
060060
060060
07FFE0
080000
0E0000
0C0060
0FFFF0
0C0000
0C0004
0C0004
0C0006
0FFFFE
07FFFC
000000
ENDCHAR

STARTCHAR cns4_2873
ENCODING 10355
SWIDTH 960 0
DWIDTH 24 0
BBX 24 24 0 -2
BITMAP
003000
001800
201006
3FFFFF
600006
E01004
401C08
001800
001818
001FFC
001800
001800
00180C
7FFFFE
001800
041880
071860
0E1830
0C1818
18180C
30180E
601806
80F800
003000
ENDCHAR

STARTCHAR cns4_2874
ENCODING 10356
SWIDTH 960 0
DWIDTH 24 0
BBX 24 24 0 -2
BITMAP
080000
0E1006
0C1FFF
0C1800
0C1840
0C9870
FFD862
1B1C63
1B1B66
1B1964
1B1868
1B1860
1B18D0
1B1888
1B118C
1B3306
132203
132402
334800
230002
230002
43FFFF
41FFFE
800000
ENDCHAR

STARTCHAR cns4_2875
ENCODING 10357
SWIDTH 960 0
DWIDTH 24 0
BBX 24 24 0 -2
BITMAP
100000
1C100C
181FFE
18180C
18180C
189FFC
FFD80C
1B180C
1B1FFC
1B1000
1B1C00
1B1810
1B1FF8
1B1800
1B1804
1B1804
1B1804
131FFE
330FFC
230002
630002
43FFFF
41FFFE
800000
ENDCHAR

STARTCHAR cns4_2876
ENCODING 10358
SWIDTH 960 0
DWIDTH 24 0
BBX 24 24 0 -2
BITMAP
20000C
3FFFFE
30000C
30000C
30000C
3FFFFC
300600
300604
37FFFE
300600
33FFFC
30060C
30060C
33FFFC
330600
330606
37FFFF
320D06
301986
3030DC
206060
20C038
43000F
8C0004
ENDCHAR

STARTCHAR cns4_2877
ENCODING 10359
SWIDTH 960 0
DWIDTH 24 0
BBX 24 24 0 -2
BITMAP
20000C
3FFFFE
30000C
30000C
30000C
3FFFFC
300000
30000C
37FFFE
300000
308030
30FFF8
30C030
30C030
30C030
30FFF0
30C030
30C030
60C030
60FFF0
408000
400006
8FFFFF
800000
ENDCHAR

STARTCHAR cns4_2878
ENCODING 10360
SWIDTH 960 0
DWIDTH 24 0
BBX 24 24 0 -2
BITMAP
20000C
3FFFFE
30000C
30000C
30000C
3FFFFC
320008
338000
330030
33FFF8
330000
330000
33FFF8
31FFFC
300000
300000
31FFF8
318018
218018
61FFF8
618018
418018
81FFF8
810010
ENDCHAR

STARTCHAR cns4_2879
ENCODING 10361
SWIDTH 960 0
DWIDTH 24 0
BBX 24 24 0 -2
BITMAP
20000C
3FFFFE
30000C
30000C
30000C
3FFFFC
301008
301C00
301800
313018
31FFFC
318018
318018
318018
31FFF8
318018
318018
318018
31FFF8
318018
218018
618018
41FFF8
810010
ENDCHAR

STARTCHAR cns4_287A
ENCODING 10362
SWIDTH 960 0
DWIDTH 24 0
BBX 24 24 0 -2
BITMAP
20000C
3FFFFE
30000C
30000C
30000C
3FFFFC
300808
301C00
303020
30C0F0
3381C0
31C300
307C00
301820
306010
3187F8
37FE0C
33060C
610660
61C618
43060C
460606
883E04
800C00
ENDCHAR

STARTCHAR cns4_287B
ENCODING 10363
SWIDTH 960 0
DWIDTH 24 0
BBX 24 24 0 -2
BITMAP
100000
1C2004
183027
183436
183226
993146
9930C6
9931A6
993336
99341E
993816
993006
993FFE
992664
990660
990660
990662
990C62
FF0C62
811862
003063
00607F
00C03E
030000
ENDCHAR

STARTCHAR cns4_287C
ENCODING 10364
SWIDTH 960 0
DWIDTH 24 0
BBX 24 24 0 -2
BITMAP
100830
1C0FF8
180C30
180C30
180C30
990C30
991830
99183E
99311F
9961C0
998180
990180
990186
99FFFF
990180
990180
992190
99398C
FF3186
816187
80C183
008183
010180
000100
ENDCHAR

STARTCHAR cns4_287D
ENCODING 10365
SWIDTH 960 0
DWIDTH 24 0
BBX 24 24 0 -2
BITMAP
000800
000E00
100C08
1C0C0E
180C0C
180C0C
3FFFFC
100008
003000
001800
001006
FFFFFF
000000
040030
07FFF8
060030
060030
060030
07FFF0
060030
060030
060030
07FFF0
040020
ENDCHAR

STARTCHAR cns4_287E
ENCODING 10366
SWIDTH 960 0
DWIDTH 24 0
BBX 24 24 0 -2
BITMAP
001000
101C10
1C181C
181818
3FFFF8
101000
001C08
00180E
0FFFDC
001830
001860
001986
FFFFFF
000C00
003000
00C000
03C060
1CFFF0
E0C000
00C000
00C000
00FFF8
007FFC
000000
ENDCHAR

STARTCHAR cns4_2921
ENCODING 10529
SWIDTH 960 0
DWIDTH 24 0
BBX 24 24 0 -2
BITMAP
100180
1C00C0
180086
187FFF
981800
FF9800
999800
999800
999800
999FFC
998FFE
998000
998888
998EEE
998CCC
998CCC
998CCC
998CCC
9F8CCC
990CCC
1818CC
1810CF
182087
104000
ENDCHAR

STARTCHAR cns4_2922
ENCODING 10530
SWIDTH 960 0
DWIDTH 24 0
BBX 24 24 0 -2
BITMAP
100100
1C01C0
180186
187FFF
990330
FF8618
990C0C
991807
9937F2
994000
990000
990004
993FFE
990600
990600
990C0C
991FFE
99080C
9F000C
9A000C
18000C
180018
1807F0
100060
ENDCHAR

STARTCHAR cns4_2923
ENCODING 10531
SWIDTH 960 0
DWIDTH 24 0
BBX 24 24 0 -2
BITMAP
100400
1C0700
180618
180FFC
990C18
FF1818
993630
994360
9901C0
990340
990C70
993060
9900C6
9901FF
990306
990606
991B0C
996198
9F00F0
9A00C0
180180
180600
181800
10E000
ENDCHAR

STARTCHAR cns4_2924
ENCODING 10532
SWIDTH 960 0
DWIDTH 24 0
BBX 24 24 0 -2
BITMAP
000008
00300E
FFF90C
0C01CC
0C618C
1FF18C
30618C
60618C
98C18C
0D810C
07000C
0C100C
301C7C
C01818
101800
1FFFF8
181818
181818
181818
181818
1819F8
101830
001800
001000
ENDCHAR

STARTCHAR cns4_2925
ENCODING 10533
SWIDTH 960 0
DWIDTH 24 0
BBX 24 24 0 -2
BITMAP
010200
01C380
018300
21930C
39FBFE
318300
318302
318302
318302
31FBFF
FF01FE
601000
001C00
101818
1FFFFC
181818
181818
181818
181818
181818
1819F8
101830
001800
001000
ENDCHAR

STARTCHAR cns4_2926
ENCODING 10534
SWIDTH 960 0
DWIDTH 24 0
BBX 24 24 0 -2
BITMAP
100004
1C0007
180186
187FC6
991806
FF9826
991B36
991FA6
993326
993326
993326
992326
996326
995B26
998E26
990626
9F0626
9A0C26
180C06
181806
183006
186006
18803E
10000C
ENDCHAR

STARTCHAR cns4_2927
ENCODING 10535
SWIDTH 960 0
DWIDTH 24 0
BBX 24 24 0 -2
BITMAP
001800
000C00
200806
3FFFFF
300000
31000C
31FFFE
31800C
31800C
31804C
31BFEC
31800C
31800C
319FCC
3198CC
3198CC
3198CC
319FCC
31908C
21800C
21800C
41800C
4180FC
810018
ENDCHAR

STARTCHAR cns4_2928
ENCODING 10536
SWIDTH 960 0
DWIDTH 24 0
BBX 24 24 0 -2
BITMAP
000C00
000600
200406
3FFFFF
300000
300E00
300C00
311818
31FFFC
318018
318018
318018
31FFF8
318000
318000
31800C
31FFFE
31800C
31800C
21800C
21800C
41FFFC
418008
810000
ENDCHAR

STARTCHAR cns4_2929
ENCODING 10537
SWIDTH 960 0
DWIDTH 24 0
BBX 24 24 0 -2
BITMAP
001800
000C00
200406
3FFFFF
300600
300C30
301FF8
303030
307860
30CCC0
330780
300600
300D00
303180
30C30C
3307FE
300C0C
303818
31CC30
2006C0
200380
400600
403800
87C000
ENDCHAR

STARTCHAR cns4_292A
ENCODING 10538
SWIDTH 960 0
DWIDTH 24 0
BBX 24 24 0 -2
BITMAP
001800
000C00
200806
3FFFFF
304040
303060
3018C0
30108C
37FFFE
300600
310610
31C61C
318618
318618
318618
33FFF8
310C10
300C00
301800
203000
606000
40C000
418000
860000
ENDCHAR

STARTCHAR cns4_292B
ENCODING 10539
SWIDTH 960 0
DWIDTH 24 0
BBX 24 24 0 -2
BITMAP
000080
4018E0
7FFCC8
6018C4
6018C6
6098C6
6FD8C0
601FFF
6018C0
6498C0
67D8C0
6498C0
6498C0
6498C0
6498C0
679860
649862
601862
601832
601832
60181A
60180F
60F807
403002
ENDCHAR

STARTCHAR cns4_292C
ENCODING 10540
SWIDTH 960 0
DWIDTH 24 0
BBX 24 24 0 -2
BITMAP
000000
031006
FF9FFF
0318C0
0318C0
0318C0
4318C0
7F18CC
621FFE
60180C
C0180C
C3180C
FF980C
03180C
031FFC
0318C8
0318C0
0318C0
0318C0
0318C0
0318C6
063FFF
FC1000
180000
ENDCHAR

STARTCHAR cns4_292D
ENCODING 10541
SWIDTH 960 0
DWIDTH 24 0
BBX 24 24 0 -2
BITMAP
000800
030E00
FF8C00
030C06
030FFF
031800
43100C
7F287E
624FC0
600C80
C00C84
C30C86
FF8CCC
030C48
030C50
030C60
030C20
030C30
030C30
030C18
030C5C
070D8E
FE0F07
0C0602
ENDCHAR

STARTCHAR cns4_292E
ENCODING 10542
SWIDTH 960 0
DWIDTH 24 0
BBX 24 24 0 -2
BITMAP
000080
0300E0
FF80C0
0301A0
0301B0
030318
43060C
7F0C06
621807
603002
C04FFC
C30000
FF8000
03080C
030FFE
030C0C
030C0C
030C0C
030C0C
030C0C
030C0C
060FFC
FC0C08
180800
ENDCHAR

STARTCHAR cns4_292F
ENCODING 10543
SWIDTH 960 0
DWIDTH 24 0
BBX 24 24 0 -2
BITMAP
000008
03080E
FF840C
030618
030310
030222
433FFF
7F0618
620618
600618
C00618
C30618
FF8618
033FFF
030618
030618
030618
030618
030418
030C18
030818
061018
FC2018
184010
ENDCHAR

STARTCHAR cns4_2930
ENCODING 10544
SWIDTH 960 0
DWIDTH 24 0
BBX 24 24 0 -2
BITMAP
01800C
7FC7FE
060060
060060
06C066
FFEFFF
0C0060
0C0060
180060
200040
000030
1FFFF8
000030
100030
1FFFF0
180020
30000C
7FFFFE
20000C
00000C
00000C
00001C
0003F8
000030
ENDCHAR

STARTCHAR cns4_2931
ENCODING 10545
SWIDTH 960 0
DWIDTH 24 0
BBX 24 24 0 -2
BITMAP
080100
0E01C0
0C0180
180184
107FFE
200180
440180
870180
060180
0C0182
0CFFFF
180100
1801C0
380180
580180
980184
187FFE
180180
180180
180180
180180
180182
18FFFF
100000
ENDCHAR

STARTCHAR cns4_2932
ENCODING 10546
SWIDTH 960 0
DWIDTH 24 0
BBX 24 24 0 -2
BITMAP
080000
0E4006
0C7FFF
186006
106006
206026
446FF6
876006
066006
0C6466
0C67F6
186666
186666
386666
586666
986666
1867E6
186446
186006
186006
186006
186006
1860FE
10400C
ENDCHAR

STARTCHAR cns4_2933
ENCODING 10547
SWIDTH 960 0
DWIDTH 24 0
BBX 24 24 0 -2
BITMAP
080800
0E0E00
0C0C0C
180FFE
10180C
20140C
442418
874230
060360
0C01C0
0C01E0
180330
180C1C
38180F
586004
999FFC
18180C
18180C
18180C
18180C
18180C
181FFC
181808
101000
ENDCHAR

STARTCHAR cns4_2934
ENCODING 10548
SWIDTH 960 0
DWIDTH 24 0
BBX 24 24 0 -2
BITMAP
080100
0E01C0
0C0180
180340
100360
200630
440C18
87180C
063007
0C6032
0D9FF8
180000
180000
380000
58200C
983FFE
18300C
18300C
18300C
18300C
18300C
183FFC
183008
102000
ENDCHAR

ENDFONT
